{
.appVersion = "926";
classes = (
{
automatic = 1;
code = "A Aacute Abreve Acircumflex Adblgrave Adieresis Adotbelow Agrave Ainvertedbreve Amacron Aogonek Aring Atilde AE AEacute B C Cacute Ccaron Ccedilla Ccircumflex Cdotaccent D Eth Dcaron Dcroat E Eacute Ebreve Ecaron Ecircumflex Edblgrave Edieresis Edotaccent Edotbelow Egrave Einvertedbreve Emacron Eogonek Etilde F G Gbreve Gcaron Gcircumflex Gdotaccent H Hcircumflex I Iacute Ibreve Icircumflex Idblgrave Idieresis Idotaccent Idotbelow Igrave Iinvertedbreve Imacron Itilde J Jcircumflex K L Lacute Lcaron Lslash M N Nacute Ncaron Eng Ntilde O Oacute Obreve Ocircumflex Odblgrave Odieresis Odotbelow Ograve Ohungarumlaut Oinvertedbreve Omacron Oslash Oslashacute Otilde OE P Thorn Q R Racute Rcaron Rdblgrave Rinvertedbreve S Sacute Scaron Scircumflex Germandbls Schwa T Tcaron U Uacute Ubreve Ucircumflex Udblgrave Udieresis Udotbelow Ugrave Uhungarumlaut Uinvertedbreve Umacron Uring Utilde V W Wacute Wcircumflex Wdieresis Wgrave X Y Yacute Ycircumflex Ydieresis Ygrave Ymacron Ytilde Z Zacute Zcaron Zdotaccent A-cy Be-cy Ve-cy Ge-cy Gje-cy Gheupturn-cy De-cy Ie-cy Iegrave-cy Io-cy Zhe-cy Ze-cy Ii-cy Iishort-cy Iigrave-cy Ka-cy Kje-cy El-cy Em-cy En-cy O-cy Pe-cy Er-cy Es-cy Te-cy U-cy Ushort-cy Ef-cy Ha-cy Che-cy Tse-cy Sha-cy Shcha-cy Dzhe-cy Softsign-cy Hardsign-cy Yeru-cy Lje-cy Nje-cy Dze-cy E-cy Ereversed-cy I-cy Yi-cy Je-cy Tshe-cy Iu-cy Ia-cy Dje-cy Yat-cy Yusbig-cy Fita-cy Izhitsa-cy Ghestroke-cy Ghemiddlehook-cy Zhedescender-cy Zedescender-cy Kadescender-cy Kaverticalstroke-cy Kabashkir-cy Endescender-cy Pedescender-cy Esdescender-cy Ustrait-cy Ustraitstroke-cy Chedescender-cy Cheverticalstroke-cy Shha-cy Palochka-cy Zhebreve-cy Chekhakassian-cy Abreve-cy Adieresis-cy Iebreve-cy Schwa-cy Zhedieresis-cy Zedieresis-cy Imacron-cy Idieresis-cy Odieresis-cy Obarred-cy Umacron-cy Udieresis-cy Uhungarumlaut-cy Chedieresis-cy Gedescender-cy Yerudieresis-cy Qa-cy We-cy";
name = Uppercase;
}
);

glyphs = (
{
color = 4;
glyphname = A;
layers = (
{
anchors = (
{
name = bottom;
position = "{273, 0}";
},
{
name = ogonek;
position = "{539, 10}";
},
{
name = top;
position = "{434, 700}";
}
);
layerId = UUID0;
paths = (
{
closed = 1;
nodes = (
"51 0 LINE SMOOTH",
"69 0 OFFCURVE",
"82 8 OFFCURVE",
"91 24 CURVE SMOOTH",
"187 186 LINE",
"487 186 LINE",
"515 24 LINE SMOOTH",
"518 8 OFFCURVE",
"526 0 OFFCURVE",
"544 0 CURVE SMOOTH",
"589 0 LINE SMOOTH",
"603 0 OFFCURVE",
"610 7 OFFCURVE",
"610 21 CURVE SMOOTH",
"610 26 OFFCURVE",
"610 29 OFFCURVE",
"609 32 CURVE SMOOTH",
"499 670 LINE SMOOTH",
"495 690 OFFCURVE",
"488 700 OFFCURVE",
"474 700 CURVE SMOOTH",
"405 700 LINE SMOOTH",
"391 700 OFFCURVE",
"378 690 OFFCURVE",
"366 670 CURVE SMOOTH",
"-10 32 LINE SMOOTH",
"-15 23 OFFCURVE",
"-18 15 OFFCURVE",
"-18 10 CURVE SMOOTH",
"-18 3 OFFCURVE",
"-13 0 OFFCURVE",
"-4 0 CURVE SMOOTH"
);
},
{
closed = 1;
nodes = (
"349 461 LINE",
"395 543 OFFCURVE",
"411 571 OFFCURVE",
"422 616 CURVE",
"424 616 LINE",
"424 590 OFFCURVE",
"433 491 OFFCURVE",
"438 461 CURVE SMOOTH",
"473 266 LINE",
"234 266 LINE"
);
}
);
width = 664;
},
{
anchors = (
{
name = bottom;
position = "{282, 0}";
},
{
name = ogonek;
position = "{594, 10}";
},
{
name = top;
position = "{433, 700}";
}
);
layerId = "E33CDA44-370B-4890-B9EA-9A4809AB9281";
paths = (
{
closed = 1;
nodes = (
"73 0 LINE SMOOTH",
"95 0 OFFCURVE",
"111 11 OFFCURVE",
"125 34 CURVE SMOOTH",
"203 165 LINE",
"451 165 LINE",
"473 34 LINE SMOOTH",
"477 11 OFFCURVE",
"487 0 OFFCURVE",
"510 0 CURVE SMOOTH",
"578 0 LINE SMOOTH",
"598 0 OFFCURVE",
"608 9 OFFCURVE",
"608 25 CURVE SMOOTH",
"608 27 OFFCURVE",
"608 29 OFFCURVE",
"608 32 CURVE SMOOTH",
"502 661 LINE SMOOTH",
"498 687 OFFCURVE",
"486 700 OFFCURVE",
"465 700 CURVE SMOOTH",
"396 700 LINE SMOOTH",
"376 700 OFFCURVE",
"357 687 OFFCURVE",
"342 661 CURVE SMOOTH",
"-31 32 LINE SMOOTH",
"-35 25 OFFCURVE",
"-37 19 OFFCURVE",
"-37 14 CURVE SMOOTH",
"-37 5 OFFCURVE",
"-30 0 OFFCURVE",
"-15 0 CURVE SMOOTH"
);
},
{
closed = 1;
nodes = (
"367 441 LINE SMOOTH",
"389 477 OFFCURVE",
"389 476 OFFCURVE",
"401 518 CURVE",
"403 518 LINE",
"401 502 OFFCURVE",
"400 489 OFFCURVE",
"400 479 CURVE SMOOTH",
"399 468 OFFCURVE",
"401 455 OFFCURVE",
"404 441 CURVE SMOOTH",
"431 286 LINE",
"274 286 LINE"
);
}
);
width = 681;
}
);
unicode = 0041;
},
{
color = 4;
glyphname = Aogonek;
layers = (
{
layerId = UUID0;
paths = (
{
closed = 1;
nodes = (
"523 -204 OFFCURVE",
"561 -203 OFFCURVE",
"560 -189 CURVE SMOOTH",
"557 -148 LINE SMOOTH",
"557 -141 OFFCURVE",
"554 -137 OFFCURVE",
"547 -137 CURVE SMOOTH",
"544 -137 LINE SMOOTH",
"534 -139 OFFCURVE",
"522 -140 OFFCURVE",
"508 -140 CURVE SMOOTH",
"487 -140 OFFCURVE",
"476 -131 OFFCURVE",
"476 -114 CURVE SMOOTH",
"476 -81 OFFCURVE",
"577 -12 OFFCURVE",
"598 0 CURVE SMOOTH",
"606 5 OFFCURVE",
"610 13 OFFCURVE",
"610 23 CURVE SMOOTH",
"610 27 OFFCURVE",
"610 30 OFFCURVE",
"609 32 CURVE",
"499 670 LINE SMOOTH",
"495 690 OFFCURVE",
"488 700 OFFCURVE",
"474 700 CURVE SMOOTH",
"405 700 LINE SMOOTH",
"391 700 OFFCURVE",
"378 690 OFFCURVE",
"366 670 CURVE SMOOTH",
"-10 32 LINE SMOOTH",
"-15 23 OFFCURVE",
"-18 15 OFFCURVE",
"-18 10 CURVE SMOOTH",
"-18 3 OFFCURVE",
"-13 0 OFFCURVE",
"-4 0 CURVE SMOOTH",
"51 0 LINE SMOOTH",
"69 0 OFFCURVE",
"82 8 OFFCURVE",
"91 24 CURVE SMOOTH",
"187 186 LINE",
"487 186 LINE",
"515 24 LINE SMOOTH",
"515 22 OFFCURVE",
"515 21 OFFCURVE",
"515 19 CURVE SMOOTH",
"515 8 OFFCURVE",
"509 -2 OFFCURVE",
"498 -10 CURVE SMOOTH",
"451 -44 LINE SMOOTH",
"406 -77 OFFCURVE",
"398 -103 OFFCURVE",
"398 -139 CURVE SMOOTH",
"398 -178 OFFCURVE",
"431 -204 OFFCURVE",
"494 -204 CURVE SMOOTH"
);
},
{
closed = 1;
nodes = (
"349 461 LINE",
"395 543 OFFCURVE",
"411 571 OFFCURVE",
"422 616 CURVE",
"424 616 LINE",
"424 590 OFFCURVE",
"433 491 OFFCURVE",
"438 461 CURVE SMOOTH",
"473 266 LINE",
"234 266 LINE"
);
}
);
width = 664;
},
{
layerId = "E33CDA44-370B-4890-B9EA-9A4809AB9281";
paths = (
{
closed = 1;
nodes = (
"516 -205 OFFCURVE",
"563 -209 OFFCURVE",
"563 -180 CURVE SMOOTH",
"562 -124 LINE",
"561 -113 OFFCURVE",
"556 -107 OFFCURVE",
"547 -107 CURVE SMOOTH",
"542 -107 LINE SMOOTH",
"525 -108 OFFCURVE",
"511 -109 OFFCURVE",
"500 -109 CURVE SMOOTH",
"481 -109 OFFCURVE",
"471 -105 OFFCURVE",
"471 -92 CURVE SMOOTH",
"471 -73 OFFCURVE",
"530 -35 OFFCURVE",
"583 -8 CURVE",
"600 -2 OFFCURVE",
"608 9 OFFCURVE",
"608 24 CURVE SMOOTH",
"608 27 OFFCURVE",
"608 29 OFFCURVE",
"608 32 CURVE SMOOTH",
"502 661 LINE SMOOTH",
"498 687 OFFCURVE",
"486 700 OFFCURVE",
"465 700 CURVE SMOOTH",
"396 700 LINE SMOOTH",
"376 700 OFFCURVE",
"357 687 OFFCURVE",
"342 661 CURVE SMOOTH",
"-31 32 LINE SMOOTH",
"-35 25 OFFCURVE",
"-37 19 OFFCURVE",
"-37 14 CURVE SMOOTH",
"-37 5 OFFCURVE",
"-30 0 OFFCURVE",
"-15 0 CURVE SMOOTH",
"73 0 LINE SMOOTH",
"95 0 OFFCURVE",
"111 11 OFFCURVE",
"125 34 CURVE SMOOTH",
"203 165 LINE",
"451 165 LINE",
"473 34 LINE SMOOTH",
"473 32 OFFCURVE",
"473 30 OFFCURVE",
"473 29 CURVE SMOOTH",
"473 15 OFFCURVE",
"466 6 OFFCURVE",
"453 -3 CURVE SMOOTH",
"370 -58 OFFCURVE",
"355 -93 OFFCURVE",
"355 -130 CURVE SMOOTH",
"355 -175 OFFCURVE",
"396 -205 OFFCURVE",
"475 -205 CURVE SMOOTH"
);
},
{
closed = 1;
nodes = (
"367 441 LINE SMOOTH",
"389 477 OFFCURVE",
"389 476 OFFCURVE",
"401 518 CURVE",
"403 518 LINE",
"401 502 OFFCURVE",
"400 489 OFFCURVE",
"400 479 CURVE SMOOTH",
"399 468 OFFCURVE",
"401 455 OFFCURVE",
"404 441 CURVE SMOOTH",
"431 286 LINE",
"274 286 LINE"
);
}
);
width = 681;
}
);
unicode = 0104;
},
{
color = 4;
glyphname = AE;
layers = (
{
layerId = UUID0;
paths = (
{
closed = 1;
nodes = (
"62 0 LINE SMOOTH",
"77 0 OFFCURVE",
"89 8 OFFCURVE",
"100 24 CURVE SMOOTH",
"213 186 LINE",
"445 186 LINE",
"408 27 LINE SMOOTH",
"407 24 OFFCURVE",
"407 21 OFFCURVE",
"407 17 CURVE SMOOTH",
"407 6 OFFCURVE",
"413 0 OFFCURVE",
"426 0 CURVE SMOOTH",
"849 0 LINE SMOOTH",
"867 0 OFFCURVE",
"876 7 OFFCURVE",
"880 22 CURVE SMOOTH",
"889 58 LINE SMOOTH",
"889 60 OFFCURVE",
"889 62 OFFCURVE",
"889 64 CURVE SMOOTH",
"889 75 OFFCURVE",
"882 80 OFFCURVE",
"867 80 CURVE SMOOTH",
"514 80 LINE",
"570 323 LINE",
"879 323 LINE SMOOTH",
"897 323 OFFCURVE",
"908 330 OFFCURVE",
"911 345 CURVE SMOOTH",
"919 381 LINE SMOOTH",
"920 384 OFFCURVE",
"920 386 OFFCURVE",
"920 388 CURVE SMOOTH",
"920 398 OFFCURVE",
"913 403 OFFCURVE",
"898 403 CURVE SMOOTH",
"589 403 LINE",
"639 620 LINE",
"977 620 LINE SMOOTH",
"996 620 OFFCURVE",
"1005 627 OFFCURVE",
"1009 642 CURVE SMOOTH",
"1018 678 LINE SMOOTH",
"1018 680 OFFCURVE",
"1018 682 OFFCURVE",
"1018 684 CURVE SMOOTH",
"1018 695 OFFCURVE",
"1011 700 OFFCURVE",
"996 700 CURVE SMOOTH",
"483 700 LINE SMOOTH",
"470 700 OFFCURVE",
"457 692 OFFCURVE",
"445 675 CURVE SMOOTH",
"-6 32 LINE SMOOTH",
"-13 23 OFFCURVE",
"-16 16 OFFCURVE",
"-16 10 CURVE SMOOTH",
"-16 3 OFFCURVE",
"-11 0 OFFCURVE",
"0 0 CURVE SMOOTH"
);
},
{
closed = 1;
nodes = (
"444 514 LINE SMOOTH",
"471 553 OFFCURVE",
"493 589 OFFCURVE",
"510 620 CURVE",
"545 620 LINE",
"463 266 LINE",
"270 266 LINE"
);
}
);
width = 956;
},
{
layerId = "E33CDA44-370B-4890-B9EA-9A4809AB9281";
paths = (
{
closed = 1;
nodes = (
"76 0 LINE SMOOTH",
"97 0 OFFCURVE",
"113 11 OFFCURVE",
"128 34 CURVE SMOOTH",
"211 165 LINE",
"382 165 LINE",
"352 37 LINE SMOOTH",
"351 34 OFFCURVE",
"351 29 OFFCURVE",
"351 24 CURVE SMOOTH",
"351 8 OFFCURVE",
"360 0 OFFCURVE",
"378 0 CURVE SMOOTH",
"796 0 LINE SMOOTH",
"820 0 OFFCURVE",
"835 11 OFFCURVE",
"840 32 CURVE SMOOTH",
"854 89 LINE SMOOTH",
"855 91 OFFCURVE",
"855 94 OFFCURVE",
"855 98 CURVE SMOOTH",
"855 113 OFFCURVE",
"845 121 OFFCURVE",
"824 121 CURVE SMOOTH",
"514 121 LINE",
"556 303 LINE",
"825 303 LINE SMOOTH",
"850 303 OFFCURVE",
"864 313 OFFCURVE",
"869 334 CURVE SMOOTH",
"882 392 LINE SMOOTH",
"883 395 OFFCURVE",
"883 398 OFFCURVE",
"883 402 CURVE SMOOTH",
"883 417 OFFCURVE",
"873 424 OFFCURVE",
"853 424 CURVE SMOOTH",
"584 424 LINE",
"620 579 LINE",
"915 579 LINE SMOOTH",
"941 579 OFFCURVE",
"953 590 OFFCURVE",
"958 611 CURVE SMOOTH",
"972 668 LINE SMOOTH",
"973 671 OFFCURVE",
"973 674 OFFCURVE",
"973 678 CURVE SMOOTH",
"973 693 OFFCURVE",
"963 700 OFFCURVE",
"942 700 CURVE SMOOTH",
"423 700 LINE SMOOTH",
"403 700 OFFCURVE",
"385 687 OFFCURVE",
"369 661 CURVE SMOOTH",
"-31 32 LINE SMOOTH",
"-36 25 OFFCURVE",
"-38 18 OFFCURVE",
"-38 13 CURVE SMOOTH",
"-38 4 OFFCURVE",
"-30 0 OFFCURVE",
"-15 0 CURVE SMOOTH"
);
},
{
closed = 1;
nodes = (
"406 471 LINE SMOOTH",
"436 518 OFFCURVE",
"451 553 OFFCURVE",
"460 579 CURVE",
"478 579 LINE",
"410 286 LINE",
"289 286 LINE"
);
}
);
width = 933;
}
);
unicode = 00C6;
},
{
color = 4;
glyphname = B;
layers = (
{
anchors = (
{
name = bottom;
position = "{268, 0}";
},
{
name = top;
position = "{429, 700}";
}
);
layerId = UUID0;
paths = (
{
closed = 1;
nodes = (
"285 0 LINE SMOOTH",
"514 0 OFFCURVE",
"601 105 OFFCURVE",
"601 210 CURVE SMOOTH",
"601 301 OFFCURVE",
"535 352 OFFCURVE",
"472 365 CURVE",
"472 366 LINE",
"566 386 OFFCURVE",
"634 440 OFFCURVE",
"634 529 CURVE SMOOTH",
"634 625 OFFCURVE",
"577 700 OFFCURVE",
"397 700 CURVE SMOOTH",
"217 700 LINE SMOOTH",
"200 700 OFFCURVE",
"190 691 OFFCURVE",
"186 673 CURVE SMOOTH",
"37 27 LINE SMOOTH",
"36 24 OFFCURVE",
"36 21 OFFCURVE",
"36 17 CURVE SMOOTH",
"36 6 OFFCURVE",
"42 0 OFFCURVE",
"55 0 CURVE SMOOTH"
);
},
{
closed = 1;
nodes = (
"199 324 LINE",
"314 324 LINE SMOOTH",
"428 324 OFFCURVE",
"500 294 OFFCURVE",
"500 214 CURVE SMOOTH",
"500 129 OFFCURVE",
"424 80 OFFCURVE",
"288 80 CURVE SMOOTH",
"143 80 LINE"
);
},
{
closed = 1;
nodes = (
"268 620 LINE",
"380 620 LINE SMOOTH",
"501 620 OFFCURVE",
"539 591 OFFCURVE",
"539 525 CURVE SMOOTH",
"539 452 OFFCURVE",
"441 395 OFFCURVE",
"348 395 CURVE SMOOTH",
"216 395 LINE"
);
}
);
width = 653;
},
{
anchors = (
{
name = bottom;
position = "{278, 0}";
},
{
name = top;
position = "{439, 700}";
}
);
layerId = "E33CDA44-370B-4890-B9EA-9A4809AB9281";
paths = (
{
closed = 1;
nodes = (
"259 0 LINE SMOOTH",
"487 0 OFFCURVE",
"611 90 OFFCURVE",
"611 207 CURVE SMOOTH",
"611 307 OFFCURVE",
"540 357 OFFCURVE",
"463 365 CURVE",
"463 366 LINE",
"542 374 OFFCURVE",
"644 425 OFFCURVE",
"644 525 CURVE SMOOTH",
"644 627 OFFCURVE",
"574 700 OFFCURVE",
"376 700 CURVE SMOOTH",
"220 700 LINE SMOOTH",
"193 700 OFFCURVE",
"178 688 OFFCURVE",
"173 664 CURVE SMOOTH",
"28 37 LINE",
"26 25 LINE",
"26 8 OFFCURVE",
"37 0 OFFCURVE",
"59 0 CURVE SMOOTH"
);
},
{
closed = 1;
nodes = (
"232 302 LINE",
"293 302 LINE SMOOTH",
"417 302 OFFCURVE",
"459 279 OFFCURVE",
"459 221 CURVE SMOOTH",
"459 149 OFFCURVE",
"428 119 OFFCURVE",
"271 119 CURVE SMOOTH",
"189 119 LINE"
);
},
{
closed = 1;
nodes = (
"296 581 LINE",
"351 581 LINE SMOOTH",
"460 581 OFFCURVE",
"499 567 OFFCURVE",
"499 516 CURVE SMOOTH",
"499 459 OFFCURVE",
"430 417 OFFCURVE",
"332 417 CURVE SMOOTH",
"258 417 LINE"
);
}
);
width = 673;
}
);
unicode = 0042;
},
{
color = 4;
glyphname = C;
layers = (
{
anchors = (
{
name = bottom;
position = "{341, 0}";
},
{
name = top;
position = "{442, 700}";
}
);
layerId = UUID0;
paths = (
{
closed = 1;
nodes = (
"484 -15 OFFCURVE",
"567 36 OFFCURVE",
"622 116 CURVE SMOOTH",
"629 127 OFFCURVE",
"633 136 OFFCURVE",
"633 142 CURVE SMOOTH",
"633 148 OFFCURVE",
"631 152 OFFCURVE",
"626 155 CURVE SMOOTH",
"582 184 LINE SMOOTH",
"579 186 OFFCURVE",
"576 187 OFFCURVE",
"572 187 CURVE SMOOTH",
"542 187 OFFCURVE",
"490 62 OFFCURVE",
"360 62 CURVE SMOOTH",
"208 62 OFFCURVE",
"154 155 OFFCURVE",
"154 272 CURVE SMOOTH",
"154 528 OFFCURVE",
"278 639 OFFCURVE",
"435 639 CURVE SMOOTH",
"556 639 OFFCURVE",
"595 537 OFFCURVE",
"611 537 CURVE SMOOTH",
"613 537 OFFCURVE",
"615 538 OFFCURVE",
"618 539 CURVE SMOOTH",
"656 562 LINE",
"666 567 OFFCURVE",
"671 575 OFFCURVE",
"671 584 CURVE SMOOTH",
"671 590 OFFCURVE",
"670 596 OFFCURVE",
"667 601 CURVE",
"636 672 OFFCURVE",
"559 715 OFFCURVE",
"443 715 CURVE SMOOTH",
"321 715 OFFCURVE",
"225 675 OFFCURVE",
"156 595 CURVE SMOOTH",
"88 516 OFFCURVE",
"54 412 OFFCURVE",
"54 283 CURVE SMOOTH",
"54 110 OFFCURVE",
"150 -15 OFFCURVE",
"347 -15 CURVE SMOOTH"
);
}
);
width = 680;
},
{
anchors = (
{
name = bottom;
position = "{344, 0}";
},
{
name = top;
position = "{445, 700}";
}
);
layerId = "E33CDA44-370B-4890-B9EA-9A4809AB9281";
paths = (
{
closed = 1;
nodes = (
"486 -17 OFFCURVE",
"582 34 OFFCURVE",
"632 108 CURVE SMOOTH",
"638 117 OFFCURVE",
"641 125 OFFCURVE",
"641 132 CURVE SMOOTH",
"641 142 OFFCURVE",
"635 150 OFFCURVE",
"624 156 CURVE SMOOTH",
"562 190 LINE SMOOTH",
"558 192 OFFCURVE",
"554 193 OFFCURVE",
"549 193 CURVE SMOOTH",
"538 193 OFFCURVE",
"525 184 OFFCURVE",
"513 167 CURVE SMOOTH",
"483 126 OFFCURVE",
"435 99 OFFCURVE",
"370 99 CURVE SMOOTH",
"243 99 OFFCURVE",
"201 173 OFFCURVE",
"201 269 CURVE SMOOTH",
"201 460 OFFCURVE",
"288 602 OFFCURVE",
"425 602 CURVE SMOOTH",
"470 602 OFFCURVE",
"527 578 OFFCURVE",
"558 537 CURVE SMOOTH",
"569 522 OFFCURVE",
"579 515 OFFCURVE",
"590 515 CURVE SMOOTH",
"596 515 OFFCURVE",
"601 517 OFFCURVE",
"605 520 CURVE SMOOTH",
"666 560 LINE SMOOTH",
"677 567 OFFCURVE",
"682 575 OFFCURVE",
"682 586 CURVE SMOOTH",
"682 653 OFFCURVE",
"556 717 OFFCURVE",
"436 717 CURVE SMOOTH",
"310 717 OFFCURVE",
"214 674 OFFCURVE",
"147 587 CURVE",
"82 500 OFFCURVE",
"49 400 OFFCURVE",
"49 287 CURVE SMOOTH",
"49 80 OFFCURVE",
"166 -17 OFFCURVE",
"359 -17 CURVE SMOOTH"
);
}
);
width = 686;
}
);
unicode = 0043;
},
{
color = 4;
glyphname = Ccedilla;
layers = (
{
layerId = UUID0;
paths = (
{
closed = 1;
nodes = (
"333 -203 OFFCURVE",
"387 -167 OFFCURVE",
"387 -113 CURVE SMOOTH",
"387 -75 OFFCURVE",
"377 -59 OFFCURVE",
"332 -48 CURVE",
"358 -15 LINE",
"487 -13 OFFCURVE",
"569 38 OFFCURVE",
"622 116 CURVE SMOOTH",
"629 127 OFFCURVE",
"633 136 OFFCURVE",
"633 142 CURVE SMOOTH",
"633 148 OFFCURVE",
"631 152 OFFCURVE",
"626 155 CURVE SMOOTH",
"582 184 LINE SMOOTH",
"579 186 OFFCURVE",
"576 187 OFFCURVE",
"572 187 CURVE SMOOTH",
"542 187 OFFCURVE",
"490 62 OFFCURVE",
"360 62 CURVE SMOOTH",
"208 62 OFFCURVE",
"154 155 OFFCURVE",
"154 272 CURVE SMOOTH",
"154 528 OFFCURVE",
"278 639 OFFCURVE",
"435 639 CURVE SMOOTH",
"556 639 OFFCURVE",
"595 537 OFFCURVE",
"611 537 CURVE SMOOTH",
"613 537 OFFCURVE",
"615 538 OFFCURVE",
"618 539 CURVE SMOOTH",
"656 562 LINE",
"666 567 OFFCURVE",
"671 575 OFFCURVE",
"671 584 CURVE SMOOTH",
"671 590 OFFCURVE",
"670 596 OFFCURVE",
"667 601 CURVE",
"636 672 OFFCURVE",
"559 715 OFFCURVE",
"443 715 CURVE SMOOTH",
"200 715 OFFCURVE",
"54 541 OFFCURVE",
"54 283 CURVE SMOOTH",
"54 128 OFFCURVE",
"132 6 OFFCURVE",
"298 -12 CURVE",
"264 -53 LINE",
"261 -59 OFFCURVE",
"255 -72 OFFCURVE",
"255 -85 CURVE SMOOTH",
"255 -90 OFFCURVE",
"258 -92 OFFCURVE",
"264 -92 CURVE SMOOTH",
"278 -92 LINE SMOOTH",
"309 -92 OFFCURVE",
"326 -104 OFFCURVE",
"326 -120 CURVE SMOOTH",
"326 -141 OFFCURVE",
"304 -154 OFFCURVE",
"272 -154 CURVE SMOOTH",
"242 -154 OFFCURVE",
"228 -146 OFFCURVE",
"222 -146 CURVE SMOOTH",
"216 -146 OFFCURVE",
"213 -150 OFFCURVE",
"211 -157 CURVE SMOOTH",
"204 -175 LINE SMOOTH",
"203 -178 OFFCURVE",
"203 -180 OFFCURVE",
"203 -182 CURVE SMOOTH",
"203 -199 OFFCURVE",
"245 -203 OFFCURVE",
"271 -203 CURVE SMOOTH"
);
}
);
width = 680;
},
{
layerId = "E33CDA44-370B-4890-B9EA-9A4809AB9281";
paths = (
{
closed = 1;
nodes = (
"336 -205 OFFCURVE",
"393 -161 OFFCURVE",
"393 -104 CURVE SMOOTH",
"393 -72 OFFCURVE",
"373 -52 OFFCURVE",
"333 -44 CURVE",
"352 -17 LINE",
"359 -17 LINE SMOOTH",
"486 -17 OFFCURVE",
"582 34 OFFCURVE",
"632 108 CURVE SMOOTH",
"638 117 OFFCURVE",
"641 125 OFFCURVE",
"641 132 CURVE SMOOTH",
"641 142 OFFCURVE",
"635 150 OFFCURVE",
"624 156 CURVE SMOOTH",
"562 190 LINE SMOOTH",
"558 192 OFFCURVE",
"554 193 OFFCURVE",
"549 193 CURVE SMOOTH",
"538 193 OFFCURVE",
"525 184 OFFCURVE",
"513 167 CURVE SMOOTH",
"483 126 OFFCURVE",
"435 99 OFFCURVE",
"370 99 CURVE SMOOTH",
"243 99 OFFCURVE",
"201 173 OFFCURVE",
"201 269 CURVE SMOOTH",
"201 460 OFFCURVE",
"288 602 OFFCURVE",
"425 602 CURVE SMOOTH",
"470 602 OFFCURVE",
"527 578 OFFCURVE",
"558 537 CURVE SMOOTH",
"569 522 OFFCURVE",
"579 515 OFFCURVE",
"590 515 CURVE SMOOTH",
"596 515 OFFCURVE",
"601 517 OFFCURVE",
"605 520 CURVE SMOOTH",
"666 560 LINE SMOOTH",
"677 567 OFFCURVE",
"682 575 OFFCURVE",
"682 586 CURVE SMOOTH",
"682 653 OFFCURVE",
"556 717 OFFCURVE",
"436 717 CURVE SMOOTH",
"182 717 OFFCURVE",
"49 510 OFFCURVE",
"49 287 CURVE SMOOTH",
"49 109 OFFCURVE",
"135 13 OFFCURVE",
"283 -11 CURVE",
"261 -40 LINE SMOOTH",
"252 -52 OFFCURVE",
"244 -68 OFFCURVE",
"244 -84 CURVE SMOOTH",
"244 -92 OFFCURVE",
"249 -96 OFFCURVE",
"258 -96 CURVE SMOOTH",
"268 -96 LINE SMOOTH",
"305 -96 OFFCURVE",
"317 -104 OFFCURVE",
"317 -119 CURVE SMOOTH",
"317 -135 OFFCURVE",
"295 -148 OFFCURVE",
"270 -148 CURVE SMOOTH",
"252 -148 OFFCURVE",
"236 -140 OFFCURVE",
"219 -140 CURVE SMOOTH",
"212 -140 OFFCURVE",
"207 -143 OFFCURVE",
"204 -150 CURVE SMOOTH",
"195 -174 LINE SMOOTH",
"194 -177 OFFCURVE",
"193 -180 OFFCURVE",
"193 -183 CURVE SMOOTH",
"193 -202 OFFCURVE",
"254 -205 OFFCURVE",
"262 -205 CURVE SMOOTH"
);
}
);
width = 686;
}
);
unicode = 00C7;
},
{
color = 4;
glyphname = D;
layers = (
{
anchors = (
{
name = bottom;
position = "{285, 0}";
},
{
name = center;
position = "{366, 350}";
},
{
name = top;
position = "{446, 700}";
}
);
layerId = UUID0;
paths = (
{
closed = 1;
nodes = (
"260 0 LINE SMOOTH",
"404 0 OFFCURVE",
"511 41 OFFCURVE",
"580 124 CURVE SMOOTH",
"648 206 OFFCURVE",
"682 304 OFFCURVE",
"682 414 CURVE SMOOTH",
"682 563 OFFCURVE",
"612 700 OFFCURVE",
"373 700 CURVE SMOOTH",
"217 700 LINE SMOOTH",
"200 700 OFFCURVE",
"190 691 OFFCURVE",
"186 673 CURVE SMOOTH",
"37 27 LINE SMOOTH",
"36 24 OFFCURVE",
"36 21 OFFCURVE",
"36 17 CURVE SMOOTH",
"36 6 OFFCURVE",
"42 0 OFFCURVE",
"55 0 CURVE SMOOTH"
);
},
{
closed = 1;
nodes = (
"268 621 LINE",
"350 621 LINE SMOOTH",
"452 621 OFFCURVE",
"515 602 OFFCURVE",
"542 563 CURVE SMOOTH",
"569 523 OFFCURVE",
"582 476 OFFCURVE",
"582 420 CURVE SMOOTH",
"582 243 OFFCURVE",
"489 80 OFFCURVE",
"274 80 CURVE SMOOTH",
"143 80 LINE"
);
}
);
width = 687;
},
{
anchors = (
{
name = bottom;
position = "{284, 0}";
},
{
name = center;
position = "{365, 350}";
},
{
name = top;
position = "{445, 700}";
}
);
layerId = "E33CDA44-370B-4890-B9EA-9A4809AB9281";
paths = (
{
closed = 1;
nodes = (
"239 0 LINE SMOOTH",
"545 0 OFFCURVE",
"688 174 OFFCURVE",
"688 406 CURVE SMOOTH",
"688 581 OFFCURVE",
"599 700 OFFCURVE",
"361 700 CURVE SMOOTH",
"215 700 LINE SMOOTH",
"191 700 OFFCURVE",
"178 688 OFFCURVE",
"173 664 CURVE SMOOTH",
"28 37 LINE SMOOTH",
"27 30 OFFCURVE",
"26 26 OFFCURVE",
"26 23 CURVE SMOOTH",
"26 8 OFFCURVE",
"35 0 OFFCURVE",
"54 0 CURVE SMOOTH"
);
},
{
closed = 1;
nodes = (
"296 580 LINE",
"334 580 LINE SMOOTH",
"513 580 OFFCURVE",
"536 510 OFFCURVE",
"536 416 CURVE SMOOTH",
"536 232 OFFCURVE",
"454 121 OFFCURVE",
"257 121 CURVE SMOOTH",
"190 121 LINE"
);
}
);
width = 685;
}
);
unicode = 0044;
},
{
color = 4;
glyphname = Eth;
layers = (
{
layerId = UUID0;
paths = (
{
closed = 1;
nodes = (
"278 0 LINE SMOOTH",
"422 0 OFFCURVE",
"529 41 OFFCURVE",
"598 124 CURVE SMOOTH",
"666 206 OFFCURVE",
"700 304 OFFCURVE",
"700 414 CURVE SMOOTH",
"700 563 OFFCURVE",
"630 700 OFFCURVE",
"391 700 CURVE SMOOTH",
"235 700 LINE SMOOTH",
"218 700 OFFCURVE",
"208 691 OFFCURVE",
"204 673 CURVE SMOOTH",
"141 399 LINE",
"85 399 LINE SMOOTH",
"66 399 OFFCURVE",
"56 392 OFFCURVE",
"53 377 CURVE SMOOTH",
"44 341 LINE SMOOTH",
"43 339 OFFCURVE",
"43 337 OFFCURVE",
"43 335 CURVE SMOOTH",
"43 324 OFFCURVE",
"51 319 OFFCURVE",
"66 319 CURVE SMOOTH",
"123 319 LINE",
"55 27 LINE SMOOTH",
"54 24 OFFCURVE",
"54 21 OFFCURVE",
"54 17 CURVE SMOOTH",
"54 6 OFFCURVE",
"60 0 OFFCURVE",
"73 0 CURVE SMOOTH"
);
},
{
closed = 1;
nodes = (
"216 319 LINE",
"373 319 LINE SMOOTH",
"389 319 OFFCURVE",
"402 326 OFFCURVE",
"405 341 CURVE SMOOTH",
"413 377 LINE SMOOTH",
"414 380 OFFCURVE",
"414 382 OFFCURVE",
"414 384 CURVE SMOOTH",
"414 394 OFFCURVE",
"407 399 OFFCURVE",
"392 399 CURVE SMOOTH",
"235 399 LINE",
"286 621 LINE",
"368 621 LINE SMOOTH",
"470 621 OFFCURVE",
"533 602 OFFCURVE",
"560 563 CURVE SMOOTH",
"587 523 OFFCURVE",
"600 476 OFFCURVE",
"600 420 CURVE SMOOTH",
"600 245 OFFCURVE",
"510 80 OFFCURVE",
"292 80 CURVE SMOOTH",
"161 80 LINE"
);
}
);
width = 706;
},
{
layerId = "E33CDA44-370B-4890-B9EA-9A4809AB9281";
paths = (
{
closed = 1;
nodes = (
"263 0 LINE SMOOTH",
"568 0 OFFCURVE",
"713 173 OFFCURVE",
"713 406 CURVE SMOOTH",
"713 583 OFFCURVE",
"621 700 OFFCURVE",
"386 700 CURVE SMOOTH",
"240 700 LINE SMOOTH",
"217 700 OFFCURVE",
"202 688 OFFCURVE",
"197 664 CURVE SMOOTH",
"141 420 LINE",
"90 420 LINE SMOOTH",
"66 420 OFFCURVE",
"51 409 OFFCURVE",
"46 388 CURVE SMOOTH",
"32 331 LINE SMOOTH",
"31 328 OFFCURVE",
"31 325 OFFCURVE",
"31 321 CURVE SMOOTH",
"31 306 OFFCURVE",
"41 299 OFFCURVE",
"62 299 CURVE SMOOTH",
"113 299 LINE",
"52 37 LINE SMOOTH",
"51 34 OFFCURVE",
"51 29 OFFCURVE",
"51 24 CURVE SMOOTH",
"51 8 OFFCURVE",
"60 0 OFFCURVE",
"78 0 CURVE SMOOTH"
);
},
{
closed = 1;
nodes = (
"255 299 LINE",
"372 299 LINE SMOOTH",
"396 299 OFFCURVE",
"411 310 OFFCURVE",
"416 331 CURVE SMOOTH",
"430 388 LINE SMOOTH",
"431 391 OFFCURVE",
"431 394 OFFCURVE",
"431 398 CURVE SMOOTH",
"431 413 OFFCURVE",
"421 420 OFFCURVE",
"400 420 CURVE SMOOTH",
"283 420 LINE",
"320 580 LINE",
"358 580 LINE SMOOTH",
"538 580 OFFCURVE",
"561 507 OFFCURVE",
"561 416 CURVE SMOOTH",
"561 232 OFFCURVE",
"479 121 OFFCURVE",
"282 121 CURVE SMOOTH",
"214 121 LINE"
);
}
);
width = 709;
}
);
unicode = 00D0;
},
{
color = 4;
glyphname = E;
layers = (
{
anchors = (
{
name = bottom;
position = "{251, 0}";
},
{
name = ogonek;
position = "{499, 10}";
},
{
name = top;
position = "{412, 700}";
},
{
name = topleft;
position = "{122, 700}";
}
);
layerId = UUID0;
paths = (
{
closed = 1;
nodes = (
"497 0 LINE SMOOTH",
"513 0 OFFCURVE",
"526 7 OFFCURVE",
"529 22 CURVE SMOOTH",
"537 58 LINE SMOOTH",
"538 61 OFFCURVE",
"538 63 OFFCURVE",
"538 65 CURVE SMOOTH",
"538 75 OFFCURVE",
"531 80 OFFCURVE",
"516 80 CURVE SMOOTH",
"143 80 LINE",
"199 323 LINE",
"528 323 LINE SMOOTH",
"544 323 OFFCURVE",
"557 330 OFFCURVE",
"560 345 CURVE SMOOTH",
"568 381 LINE SMOOTH",
"568 383 OFFCURVE",
"568 385 OFFCURVE",
"568 387 CURVE SMOOTH",
"568 398 OFFCURVE",
"561 403 OFFCURVE",
"546 403 CURVE SMOOTH",
"218 403 LINE",
"268 620 LINE",
"625 620 LINE SMOOTH",
"642 620 OFFCURVE",
"655 627 OFFCURVE",
"658 642 CURVE SMOOTH",
"666 678 LINE SMOOTH",
"666 680 OFFCURVE",
"666 682 OFFCURVE",
"666 684 CURVE SMOOTH",
"666 695 OFFCURVE",
"659 700 OFFCURVE",
"644 700 CURVE SMOOTH",
"217 700 LINE SMOOTH",
"200 700 OFFCURVE",
"190 691 OFFCURVE",
"186 673 CURVE SMOOTH",
"37 27 LINE SMOOTH",
"36 24 OFFCURVE",
"36 21 OFFCURVE",
"36 17 CURVE SMOOTH",
"36 6 OFFCURVE",
"42 0 OFFCURVE",
"55 0 CURVE SMOOTH"
);
}
);
width = 620;
},
{
anchors = (
{
name = bottom;
position = "{254, 0}";
},
{
name = ogonek;
position = "{503, 10}";
},
{
name = top;
position = "{415, 700}";
},
{
name = topleft;
position = "{122, 700}";
}
);
layerId = "E33CDA44-370B-4890-B9EA-9A4809AB9281";
paths = (
{
closed = 1;
nodes = (
"488 0 LINE SMOOTH",
"512 0 OFFCURVE",
"527 11 OFFCURVE",
"532 32 CURVE SMOOTH",
"545 89 LINE SMOOTH",
"546 92 OFFCURVE",
"546 95 OFFCURVE",
"546 99 CURVE SMOOTH",
"546 114 OFFCURVE",
"536 121 OFFCURVE",
"516 121 CURVE SMOOTH",
"190 121 LINE",
"232 303 LINE",
"517 303 LINE SMOOTH",
"542 303 OFFCURVE",
"556 313 OFFCURVE",
"561 334 CURVE SMOOTH",
"574 392 LINE SMOOTH",
"575 395 OFFCURVE",
"575 398 OFFCURVE",
"575 402 CURVE SMOOTH",
"575 417 OFFCURVE",
"565 424 OFFCURVE",
"544 424 CURVE SMOOTH",
"260 424 LINE",
"296 579 LINE",
"606 579 LINE SMOOTH",
"632 579 OFFCURVE",
"645 590 OFFCURVE",
"650 611 CURVE SMOOTH",
"664 668 LINE SMOOTH",
"665 670 OFFCURVE",
"665 673 OFFCURVE",
"665 677 CURVE SMOOTH",
"665 692 OFFCURVE",
"655 700 OFFCURVE",
"634 700 CURVE SMOOTH",
"215 700 LINE SMOOTH",
"191 700 OFFCURVE",
"178 688 OFFCURVE",
"173 664 CURVE SMOOTH",
"28 37 LINE SMOOTH",
"27 30 OFFCURVE",
"26 26 OFFCURVE",
"26 23 CURVE SMOOTH",
"26 8 OFFCURVE",
"35 0 OFFCURVE",
"54 0 CURVE SMOOTH"
);
}
);
width = 625;
}
);
unicode = 0045;
},
{
color = 4;
glyphname = Eogonek;
layers = (
{
layerId = UUID0;
paths = (
{
closed = 1;
nodes = (
"407 -204 OFFCURVE",
"458 -206 OFFCURVE",
"458 -186 CURVE",
"455 -148 LINE SMOOTH",
"454 -141 OFFCURVE",
"451 -137 OFFCURVE",
"444 -137 CURVE SMOOTH",
"441 -137 LINE SMOOTH",
"432 -139 OFFCURVE",
"421 -140 OFFCURVE",
"406 -140 CURVE SMOOTH",
"383 -140 OFFCURVE",
"374 -131 OFFCURVE",
"374 -114 CURVE SMOOTH",
"374 -87 OFFCURVE",
"402 -61 OFFCURVE",
"494 0 CURVE",
"497 0 LINE SMOOTH",
"513 0 OFFCURVE",
"526 7 OFFCURVE",
"529 22 CURVE SMOOTH",
"537 58 LINE SMOOTH",
"538 61 OFFCURVE",
"538 63 OFFCURVE",
"538 65 CURVE SMOOTH",
"538 75 OFFCURVE",
"531 80 OFFCURVE",
"516 80 CURVE SMOOTH",
"143 80 LINE",
"199 323 LINE",
"528 323 LINE SMOOTH",
"544 323 OFFCURVE",
"557 330 OFFCURVE",
"560 345 CURVE SMOOTH",
"568 381 LINE SMOOTH",
"568 383 OFFCURVE",
"568 385 OFFCURVE",
"568 387 CURVE SMOOTH",
"568 398 OFFCURVE",
"561 403 OFFCURVE",
"546 403 CURVE SMOOTH",
"218 403 LINE",
"268 620 LINE",
"625 620 LINE SMOOTH",
"642 620 OFFCURVE",
"655 627 OFFCURVE",
"658 642 CURVE SMOOTH",
"666 678 LINE SMOOTH",
"666 680 OFFCURVE",
"666 682 OFFCURVE",
"666 684 CURVE SMOOTH",
"666 695 OFFCURVE",
"659 700 OFFCURVE",
"644 700 CURVE SMOOTH",
"217 700 LINE SMOOTH",
"200 700 OFFCURVE",
"190 691 OFFCURVE",
"186 673 CURVE SMOOTH",
"37 27 LINE SMOOTH",
"36 24 OFFCURVE",
"36 21 OFFCURVE",
"36 17 CURVE SMOOTH",
"36 6 OFFCURVE",
"42 0 OFFCURVE",
"55 0 CURVE SMOOTH",
"367 0 LINE SMOOTH",
"384 0 OFFCURVE",
"397 0 OFFCURVE",
"406 1 CURVE",
"406 -1 LINE",
"331 -49 OFFCURVE",
"295 -79 OFFCURVE",
"295 -139 CURVE SMOOTH",
"295 -178 OFFCURVE",
"328 -204 OFFCURVE",
"391 -204 CURVE SMOOTH"
);
}
);
width = 620;
},
{
layerId = "E33CDA44-370B-4890-B9EA-9A4809AB9281";
paths = (
{
closed = 1;
nodes = (
"410 -205 OFFCURVE",
"457 -209 OFFCURVE",
"456 -180 CURVE SMOOTH",
"454 -124 LINE SMOOTH",
"454 -113 OFFCURVE",
"449 -107 OFFCURVE",
"439 -107 CURVE SMOOTH",
"435 -107 LINE SMOOTH",
"416 -108 OFFCURVE",
"402 -109 OFFCURVE",
"393 -109 CURVE SMOOTH",
"373 -109 OFFCURVE",
"363 -105 OFFCURVE",
"363 -92 CURVE SMOOTH",
"363 -75 OFFCURVE",
"394 -55 OFFCURVE",
"483 0 CURVE",
"488 0 LINE SMOOTH",
"512 0 OFFCURVE",
"527 11 OFFCURVE",
"532 32 CURVE SMOOTH",
"545 89 LINE SMOOTH",
"546 92 OFFCURVE",
"546 95 OFFCURVE",
"546 99 CURVE SMOOTH",
"546 114 OFFCURVE",
"536 121 OFFCURVE",
"516 121 CURVE SMOOTH",
"190 121 LINE",
"232 303 LINE",
"517 303 LINE SMOOTH",
"542 303 OFFCURVE",
"556 313 OFFCURVE",
"561 334 CURVE SMOOTH",
"574 392 LINE SMOOTH",
"575 395 OFFCURVE",
"575 398 OFFCURVE",
"575 402 CURVE SMOOTH",
"575 417 OFFCURVE",
"565 424 OFFCURVE",
"544 424 CURVE SMOOTH",
"260 424 LINE",
"296 579 LINE",
"606 579 LINE SMOOTH",
"632 579 OFFCURVE",
"645 590 OFFCURVE",
"650 611 CURVE SMOOTH",
"664 668 LINE SMOOTH",
"665 670 OFFCURVE",
"665 673 OFFCURVE",
"665 677 CURVE SMOOTH",
"665 692 OFFCURVE",
"655 700 OFFCURVE",
"634 700 CURVE SMOOTH",
"215 700 LINE SMOOTH",
"191 700 OFFCURVE",
"178 688 OFFCURVE",
"173 664 CURVE SMOOTH",
"28 37 LINE SMOOTH",
"27 30 OFFCURVE",
"26 26 OFFCURVE",
"26 23 CURVE SMOOTH",
"26 8 OFFCURVE",
"35 0 OFFCURVE",
"54 0 CURVE SMOOTH",
"287 0 LINE SMOOTH",
"313 0 OFFCURVE",
"333 1 OFFCURVE",
"346 2 CURVE",
"346 -3 LINE",
"260 -60 OFFCURVE",
"248 -95 OFFCURVE",
"248 -130 CURVE SMOOTH",
"248 -175 OFFCURVE",
"290 -205 OFFCURVE",
"367 -205 CURVE SMOOTH"
);
}
);
width = 625;
}
);
unicode = 0118;
},
{
color = 4;
glyphname = F;
layers = (
{
anchors = (
{
name = bottom;
position = "{226, 0}";
},
{
name = top;
position = "{417, 700}";
}
);
layerId = UUID0;
paths = (
{
closed = 1;
nodes = (
"100 0 LINE SMOOTH",
"115 0 OFFCURVE",
"127 9 OFFCURVE",
"131 27 CURVE SMOOTH",
"196 309 LINE",
"482 309 LINE SMOOTH",
"501 309 OFFCURVE",
"511 316 OFFCURVE",
"514 331 CURVE SMOOTH",
"522 367 LINE SMOOTH",
"523 370 OFFCURVE",
"523 372 OFFCURVE",
"523 374 CURVE SMOOTH",
"523 384 OFFCURVE",
"516 389 OFFCURVE",
"501 389 CURVE SMOOTH",
"214 389 LINE",
"268 620 LINE",
"596 620 LINE SMOOTH",
"615 620 OFFCURVE",
"624 627 OFFCURVE",
"628 642 CURVE SMOOTH",
"637 678 LINE SMOOTH",
"637 680 OFFCURVE",
"637 682 OFFCURVE",
"637 684 CURVE SMOOTH",
"637 695 OFFCURVE",
"630 700 OFFCURVE",
"615 700 CURVE SMOOTH",
"217 700 LINE SMOOTH",
"200 700 OFFCURVE",
"190 691 OFFCURVE",
"186 673 CURVE SMOOTH",
"37 27 LINE SMOOTH",
"36 24 OFFCURVE",
"36 21 OFFCURVE",
"36 17 CURVE SMOOTH",
"36 6 OFFCURVE",
"42 0 OFFCURVE",
"55 0 CURVE SMOOTH"
);
}
);
width = 569;
},
{
anchors = (
{
name = bottom;
position = "{228, 0}";
},
{
name = top;
position = "{419, 700}";
}
);
layerId = "E33CDA44-370B-4890-B9EA-9A4809AB9281";
paths = (
{
closed = 1;
nodes = (
"128 0 LINE SMOOTH",
"152 0 OFFCURVE",
"164 12 OFFCURVE",
"170 37 CURVE SMOOTH",
"229 288 LINE",
"466 288 LINE SMOOTH",
"490 288 OFFCURVE",
"505 299 OFFCURVE",
"510 320 CURVE SMOOTH",
"523 377 LINE SMOOTH",
"524 380 OFFCURVE",
"524 383 OFFCURVE",
"524 387 CURVE SMOOTH",
"524 402 OFFCURVE",
"514 409 OFFCURVE",
"494 409 CURVE SMOOTH",
"256 409 LINE",
"296 579 LINE",
"574 579 LINE SMOOTH",
"598 579 OFFCURVE",
"613 590 OFFCURVE",
"618 611 CURVE SMOOTH",
"631 668 LINE SMOOTH",
"632 671 OFFCURVE",
"632 674 OFFCURVE",
"632 678 CURVE SMOOTH",
"632 693 OFFCURVE",
"622 700 OFFCURVE",
"602 700 CURVE SMOOTH",
"215 700 LINE SMOOTH",
"191 700 OFFCURVE",
"178 688 OFFCURVE",
"173 664 CURVE SMOOTH",
"28 37 LINE SMOOTH",
"27 30 OFFCURVE",
"26 26 OFFCURVE",
"26 23 CURVE SMOOTH",
"26 8 OFFCURVE",
"35 0 OFFCURVE",
"54 0 CURVE SMOOTH"
);
}
);
width = 574;
}
);
unicode = 0046;
},
{
color = 4;
glyphname = G;
layers = (
{
anchors = (
{
name = bottom;
position = "{300, 0}";
},
{
name = top;
position = "{461, 700}";
}
);
layerId = UUID0;
paths = (
{
closed = 1;
nodes = (
"473 -15 OFFCURVE",
"540 4 OFFCURVE",
"638 77 CURVE",
"691 307 LINE SMOOTH",
"691 309 OFFCURVE",
"692 311 OFFCURVE",
"692 313 CURVE SMOOTH",
"692 324 OFFCURVE",
"685 329 OFFCURVE",
"669 329 CURVE SMOOTH",
"458 329 LINE SMOOTH",
"440 329 OFFCURVE",
"428 322 OFFCURVE",
"425 307 CURVE SMOOTH",
"417 271 LINE SMOOTH",
"416 269 OFFCURVE",
"416 267 OFFCURVE",
"416 265 CURVE SMOOTH",
"416 254 OFFCURVE",
"424 249 OFFCURVE",
"439 249 CURVE SMOOTH",
"584 249 LINE",
"556 128 LINE",
"523 91 OFFCURVE",
"444 62 OFFCURVE",
"360 62 CURVE SMOOTH",
"208 62 OFFCURVE",
"154 155 OFFCURVE",
"154 272 CURVE SMOOTH",
"154 529 OFFCURVE",
"277 639 OFFCURVE",
"439 639 CURVE SMOOTH",
"564 639 OFFCURVE",
"610 542 OFFCURVE",
"620 542 CURVE SMOOTH",
"623 542 OFFCURVE",
"625 543 OFFCURVE",
"628 545 CURVE SMOOTH",
"666 570 LINE SMOOTH",
"675 576 OFFCURVE",
"679 584 OFFCURVE",
"679 593 CURVE SMOOTH",
"679 648 OFFCURVE",
"580 715 OFFCURVE",
"447 715 CURVE SMOOTH",
"322 715 OFFCURVE",
"225 675 OFFCURVE",
"156 595 CURVE SMOOTH",
"88 516 OFFCURVE",
"54 412 OFFCURVE",
"54 283 CURVE SMOOTH",
"54 110 OFFCURVE",
"150 -15 OFFCURVE",
"347 -15 CURVE SMOOTH"
);
}
);
width = 718;
},
{
anchors = (
{
name = bottom;
position = "{310, 0}";
},
{
name = top;
position = "{471, 700}";
}
);
layerId = "E33CDA44-370B-4890-B9EA-9A4809AB9281";
paths = (
{
closed = 1;
nodes = (
"460 -17 OFFCURVE",
"566 20 OFFCURVE",
"649 67 CURVE",
"708 322 LINE SMOOTH",
"709 325 OFFCURVE",
"709 328 OFFCURVE",
"709 332 CURVE SMOOTH",
"709 347 OFFCURVE",
"699 354 OFFCURVE",
"679 354 CURVE SMOOTH",
"467 354 LINE SMOOTH",
"443 354 OFFCURVE",
"428 343 OFFCURVE",
"423 322 CURVE SMOOTH",
"410 264 LINE SMOOTH",
"409 261 OFFCURVE",
"409 258 OFFCURVE",
"409 254 CURVE SMOOTH",
"409 239 OFFCURVE",
"419 232 OFFCURVE",
"439 232 CURVE SMOOTH",
"545 232 LINE",
"526 152 LINE",
"479 117 OFFCURVE",
"429 99 OFFCURVE",
"374 99 CURVE SMOOTH",
"234 99 OFFCURVE",
"201 175 OFFCURVE",
"201 269 CURVE SMOOTH",
"201 479 OFFCURVE",
"284 602 OFFCURVE",
"430 602 CURVE SMOOTH",
"475 602 OFFCURVE",
"534 584 OFFCURVE",
"568 542 CURVE SMOOTH",
"579 527 OFFCURVE",
"589 519 OFFCURVE",
"601 519 CURVE SMOOTH",
"605 519 OFFCURVE",
"610 521 OFFCURVE",
"615 524 CURVE SMOOTH",
"675 565 LINE SMOOTH",
"686 572 OFFCURVE",
"692 581 OFFCURVE",
"692 592 CURVE SMOOTH",
"692 658 OFFCURVE",
"564 717 OFFCURVE",
"440 717 CURVE SMOOTH",
"310 717 OFFCURVE",
"212 675 OFFCURVE",
"146 590 CURVE SMOOTH",
"81 505 OFFCURVE",
"49 404 OFFCURVE",
"49 287 CURVE SMOOTH",
"49 78 OFFCURVE",
"172 -17 OFFCURVE",
"364 -17 CURVE SMOOTH"
);
}
);
width = 737;
}
);
unicode = 0047;
},
{
color = 4;
glyphname = H;
layers = (
{
anchors = (
{
name = bottom;
position = "{288, 0}";
},
{
name = center;
position = "{369, 350}";
},
{
name = top;
position = "{449, 700}";
},
{
name = topleft;
position = "{122, 700}";
}
);
layerId = UUID0;
paths = (
{
closed = 1;
nodes = (
"100 0 LINE SMOOTH",
"115 0 OFFCURVE",
"127 9 OFFCURVE",
"131 27 CURVE SMOOTH",
"199 324 LINE",
"540 324 LINE",
"472 27 LINE SMOOTH",
"471 22 OFFCURVE",
"470 18 OFFCURVE",
"470 17 CURVE SMOOTH",
"470 6 OFFCURVE",
"477 0 OFFCURVE",
"490 0 CURVE SMOOTH",
"535 0 LINE SMOOTH",
"551 0 OFFCURVE",
"561 9 OFFCURVE",
"565 27 CURVE SMOOTH",
"714 673 LINE SMOOTH",
"715 678 OFFCURVE",
"716 682 OFFCURVE",
"716 683 CURVE SMOOTH",
"716 694 OFFCURVE",
"709 700 OFFCURVE",
"696 700 CURVE SMOOTH",
"651 700 LINE SMOOTH",
"635 700 OFFCURVE",
"625 691 OFFCURVE",
"621 673 CURVE SMOOTH",
"559 404 LINE",
"218 404 LINE",
"280 673 LINE SMOOTH",
"281 676 OFFCURVE",
"281 679 OFFCURVE",
"281 683 CURVE SMOOTH",
"281 694 OFFCURVE",
"275 700 OFFCURVE",
"262 700 CURVE SMOOTH",
"217 700 LINE SMOOTH",
"200 700 OFFCURVE",
"190 691 OFFCURVE",
"186 673 CURVE SMOOTH",
"37 27 LINE SMOOTH",
"36 24 OFFCURVE",
"36 21 OFFCURVE",
"36 17 CURVE SMOOTH",
"36 6 OFFCURVE",
"42 0 OFFCURVE",
"55 0 CURVE SMOOTH"
);
}
);
width = 694;
},
{
anchors = (
{
name = bottom;
position = "{293, 0}";
},
{
name = center;
position = "{374, 350}";
},
{
name = top;
position = "{454, 700}";
},
{
name = topleft;
position = "{122, 700}";
}
);
layerId = "E33CDA44-370B-4890-B9EA-9A4809AB9281";
paths = (
{
closed = 1;
nodes = (
"128 0 LINE SMOOTH",
"151 0 OFFCURVE",
"164 12 OFFCURVE",
"170 37 CURVE SMOOTH",
"232 304 LINE",
"495 304 LINE",
"433 37 LINE SMOOTH",
"432 34 OFFCURVE",
"432 29 OFFCURVE",
"432 24 CURVE SMOOTH",
"432 8 OFFCURVE",
"441 0 OFFCURVE",
"459 0 CURVE SMOOTH",
"533 0 LINE SMOOTH",
"556 0 OFFCURVE",
"570 12 OFFCURVE",
"576 37 CURVE SMOOTH",
"721 664 LINE SMOOTH",
"722 667 OFFCURVE",
"722 671 OFFCURVE",
"722 676 CURVE SMOOTH",
"722 692 OFFCURVE",
"713 700 OFFCURVE",
"695 700 CURVE SMOOTH",
"621 700 LINE SMOOTH",
"597 700 OFFCURVE",
"583 688 OFFCURVE",
"578 664 CURVE SMOOTH",
"523 425 LINE",
"260 425 LINE",
"315 664 LINE SMOOTH",
"316 671 OFFCURVE",
"317 675 OFFCURVE",
"317 678 CURVE SMOOTH",
"317 693 OFFCURVE",
"308 700 OFFCURVE",
"290 700 CURVE SMOOTH",
"215 700 LINE SMOOTH",
"191 700 OFFCURVE",
"178 688 OFFCURVE",
"173 664 CURVE SMOOTH",
"28 37 LINE SMOOTH",
"27 30 OFFCURVE",
"26 26 OFFCURVE",
"26 23 CURVE SMOOTH",
"26 8 OFFCURVE",
"35 0 OFFCURVE",
"54 0 CURVE SMOOTH"
);
}
);
width = 704;
}
);
unicode = 0048;
},
{
color = 4;
glyphname = I;
layers = (
{
anchors = (
{
name = bottom;
position = "{71, 0}";
},
{
name = ogonek;
position = "{175, 10}";
},
{
name = top;
position = "{232, 700}";
},
{
name = topleft;
position = "{122, 700}";
}
);
layerId = UUID0;
paths = (
{
closed = 1;
nodes = (
"100 0 LINE SMOOTH",
"115 0 OFFCURVE",
"127 9 OFFCURVE",
"131 27 CURVE SMOOTH",
"280 673 LINE SMOOTH",
"281 676 OFFCURVE",
"281 679 OFFCURVE",
"281 683 CURVE SMOOTH",
"281 694 OFFCURVE",
"275 700 OFFCURVE",
"262 700 CURVE SMOOTH",
"217 700 LINE SMOOTH",
"200 700 OFFCURVE",
"190 691 OFFCURVE",
"186 673 CURVE SMOOTH",
"37 27 LINE SMOOTH",
"36 24 OFFCURVE",
"36 21 OFFCURVE",
"36 17 CURVE SMOOTH",
"36 6 OFFCURVE",
"42 0 OFFCURVE",
"55 0 CURVE SMOOTH"
);
}
);
width = 260;
},
{
anchors = (
{
name = bottom;
position = "{91, 0}";
},
{
name = ogonek;
position = "{210, 10}";
},
{
name = top;
position = "{252, 700}";
},
{
name = topleft;
position = "{122, 700}";
}
);
layerId = "E33CDA44-370B-4890-B9EA-9A4809AB9281";
paths = (
{
closed = 1;
nodes = (
"128 0 LINE SMOOTH",
"151 0 OFFCURVE",
"164 12 OFFCURVE",
"170 37 CURVE SMOOTH",
"315 664 LINE SMOOTH",
"316 671 OFFCURVE",
"317 675 OFFCURVE",
"317 678 CURVE SMOOTH",
"317 693 OFFCURVE",
"308 700 OFFCURVE",
"290 700 CURVE SMOOTH",
"215 700 LINE SMOOTH",
"191 700 OFFCURVE",
"178 688 OFFCURVE",
"173 664 CURVE SMOOTH",
"28 37 LINE SMOOTH",
"27 30 OFFCURVE",
"26 26 OFFCURVE",
"26 23 CURVE SMOOTH",
"26 8 OFFCURVE",
"35 0 OFFCURVE",
"54 0 CURVE SMOOTH"
);
}
);
width = 299;
}
);
unicode = 0049;
},
{
color = 4;
glyphname = J;
layers = (
{
anchors = (
{
name = bottom;
position = "{142, 0}";
},
{
name = top;
position = "{383, 700}";
}
);
layerId = UUID0;
paths = (
{
closed = 1;
nodes = (
"251 -15 OFFCURVE",
"292 90 OFFCURVE",
"317 196 CURVE SMOOTH",
"427 673 LINE SMOOTH",
"428 676 OFFCURVE",
"428 679 OFFCURVE",
"428 683 CURVE SMOOTH",
"428 694 OFFCURVE",
"422 700 OFFCURVE",
"409 700 CURVE SMOOTH",
"364 700 LINE SMOOTH",
"347 700 OFFCURVE",
"337 691 OFFCURVE",
"333 673 CURVE SMOOTH",
"220 185 LINE SMOOTH",
"201 102 OFFCURVE",
"166 62 OFFCURVE",
"105 62 CURVE SMOOTH",
"85 62 OFFCURVE",
"64 70 OFFCURVE",
"41 87 CURVE SMOOTH",
"35 92 OFFCURVE",
"29 95 OFFCURVE",
"22 95 CURVE SMOOTH",
"15 95 OFFCURVE",
"9 90 OFFCURVE",
"4 81 CURVE SMOOTH",
"-14 46 LINE SMOOTH",
"-17 41 OFFCURVE",
"-18 36 OFFCURVE",
"-18 31 CURVE SMOOTH",
"-18 2 OFFCURVE",
"61 -15 OFFCURVE",
"96 -15 CURVE SMOOTH"
);
}
);
width = 402;
},
{
anchors = (
{
name = bottom;
position = "{172, 0}";
},
{
name = top;
position = "{413, 700}";
}
);
layerId = "E33CDA44-370B-4890-B9EA-9A4809AB9281";
paths = (
{
closed = 1;
nodes = (
"242 -17 OFFCURVE",
"332 25 OFFCURVE",
"388 269 CURVE SMOOTH",
"479 664 LINE SMOOTH",
"480 667 OFFCURVE",
"480 671 OFFCURVE",
"480 676 CURVE SMOOTH",
"480 692 OFFCURVE",
"471 700 OFFCURVE",
"453 700 CURVE SMOOTH",
"379 700 LINE SMOOTH",
"356 700 OFFCURVE",
"341 688 OFFCURVE",
"336 664 CURVE SMOOTH",
"243 259 LINE SMOOTH",
"216 142 OFFCURVE",
"184 99 OFFCURVE",
"111 99 CURVE SMOOTH",
"75 99 OFFCURVE",
"38 128 OFFCURVE",
"20 128 CURVE SMOOTH",
"11 128 OFFCURVE",
"5 123 OFFCURVE",
"1 113 CURVE SMOOTH",
"-23 47 LINE SMOOTH",
"-25 42 OFFCURVE",
"-26 38 OFFCURVE",
"-26 33 CURVE SMOOTH",
"-26 -1 OFFCURVE",
"52 -17 OFFCURVE",
"101 -17 CURVE SMOOTH"
);
}
);
width = 462;
}
);
unicode = 004A;
},
{
color = 4;
glyphname = K;
layers = (
{
anchors = (
{
name = bottom;
position = "{265, 0}";
},
{
name = top;
position = "{426, 700}";
}
);
layerId = UUID0;
paths = (
{
closed = 1;
nodes = (
"100 0 LINE SMOOTH",
"115 0 OFFCURVE",
"127 9 OFFCURVE",
"131 27 CURVE SMOOTH",
"178 230 LINE",
"326 353 LINE",
"476 19 LINE SMOOTH",
"482 6 OFFCURVE",
"492 0 OFFCURVE",
"506 0 CURVE SMOOTH",
"558 0 LINE SMOOTH",
"572 0 OFFCURVE",
"579 5 OFFCURVE",
"579 15 CURVE SMOOTH",
"579 18 OFFCURVE",
"577 24 OFFCURVE",
"574 32 CURVE SMOOTH",
"401 415 LINE",
"708 668 LINE SMOOTH",
"721 678 OFFCURVE",
"727 686 OFFCURVE",
"727 692 CURVE SMOOTH",
"727 697 OFFCURVE",
"720 700 OFFCURVE",
"707 700 CURVE SMOOTH",
"637 700 LINE SMOOTH",
"626 700 OFFCURVE",
"613 694 OFFCURVE",
"598 681 CURVE SMOOTH",
"208 358 LINE",
"206 358 LINE",
"213 383 OFFCURVE",
"216 396 OFFCURVE",
"216 397 CURVE",
"280 673 LINE SMOOTH",
"281 676 OFFCURVE",
"281 679 OFFCURVE",
"281 683 CURVE SMOOTH",
"281 694 OFFCURVE",
"275 700 OFFCURVE",
"262 700 CURVE SMOOTH",
"217 700 LINE SMOOTH",
"200 700 OFFCURVE",
"190 691 OFFCURVE",
"186 673 CURVE SMOOTH",
"37 27 LINE SMOOTH",
"36 24 OFFCURVE",
"36 21 OFFCURVE",
"36 17 CURVE SMOOTH",
"36 6 OFFCURVE",
"42 0 OFFCURVE",
"55 0 CURVE SMOOTH"
);
}
);
width = 648;
},
{
anchors = (
{
name = bottom;
position = "{274, 0}";
},
{
name = top;
position = "{435, 700}";
}
);
layerId = "E33CDA44-370B-4890-B9EA-9A4809AB9281";
paths = (
{
closed = 1;
nodes = (
"128 0 LINE SMOOTH",
"152 0 OFFCURVE",
"164 12 OFFCURVE",
"170 37 CURVE SMOOTH",
"212 216 LINE",
"329 318 LINE",
"446 29 LINE SMOOTH",
"454 10 OFFCURVE",
"466 0 OFFCURVE",
"483 0 CURVE SMOOTH",
"559 0 LINE SMOOTH",
"581 0 OFFCURVE",
"592 7 OFFCURVE",
"592 22 CURVE SMOOTH",
"592 27 OFFCURVE",
"590 33 OFFCURVE",
"587 42 CURVE SMOOTH",
"437 413 LINE",
"716 658 LINE SMOOTH",
"731 671 OFFCURVE",
"738 681 OFFCURVE",
"738 688 CURVE SMOOTH",
"738 696 OFFCURVE",
"728 700 OFFCURVE",
"708 700 CURVE SMOOTH",
"590 700 LINE",
"579 699 OFFCURVE",
"561 691 OFFCURVE",
"539 671 CURVE SMOOTH",
"259 426 LINE",
"255 426 LINE",
"264 449 OFFCURVE",
"270 469 OFFCURVE",
"274 485 CURVE SMOOTH",
"315 664 LINE SMOOTH",
"316 671 OFFCURVE",
"317 675 OFFCURVE",
"317 678 CURVE SMOOTH",
"317 693 OFFCURVE",
"308 700 OFFCURVE",
"290 700 CURVE SMOOTH",
"215 700 LINE SMOOTH",
"191 700 OFFCURVE",
"178 688 OFFCURVE",
"173 664 CURVE SMOOTH",
"28 37 LINE SMOOTH",
"27 30 OFFCURVE",
"26 26 OFFCURVE",
"26 23 CURVE SMOOTH",
"26 8 OFFCURVE",
"35 0 OFFCURVE",
"54 0 CURVE SMOOTH"
);
}
);
width = 665;
}
);
unicode = 004B;
},
{
color = 4;
glyphname = L;
layers = (
{
anchors = (
{
name = bottom;
position = "{219, 0}";
},
{
name = center;
position = "{300, 350}";
},
{
name = top;
position = "{380, 700}";
},
{
name = topright;
position = "{637, 700}";
}
);
layerId = UUID0;
paths = (
{
closed = 1;
nodes = (
"448 0 LINE SMOOTH",
"467 0 OFFCURVE",
"477 7 OFFCURVE",
"480 22 CURVE SMOOTH",
"488 58 LINE SMOOTH",
"489 61 OFFCURVE",
"489 63 OFFCURVE",
"489 65 CURVE SMOOTH",
"489 75 OFFCURVE",
"482 80 OFFCURVE",
"467 80 CURVE SMOOTH",
"143 80 LINE",
"280 673 LINE SMOOTH",
"281 676 OFFCURVE",
"281 679 OFFCURVE",
"281 683 CURVE SMOOTH",
"281 694 OFFCURVE",
"275 700 OFFCURVE",
"262 700 CURVE SMOOTH",
"217 700 LINE SMOOTH",
"200 700 OFFCURVE",
"190 691 OFFCURVE",
"186 673 CURVE SMOOTH",
"37 27 LINE SMOOTH",
"36 24 OFFCURVE",
"36 21 OFFCURVE",
"36 17 CURVE SMOOTH",
"36 6 OFFCURVE",
"42 0 OFFCURVE",
"55 0 CURVE SMOOTH"
);
}
);
width = 555;
},
{
anchors = (
{
name = bottom;
position = "{225, 0}";
},
{
name = center;
position = "{306, 350}";
},
{
name = top;
position = "{386, 700}";
},
{
name = topright;
position = "{649, 700}";
}
);
layerId = "E33CDA44-370B-4890-B9EA-9A4809AB9281";
paths = (
{
closed = 1;
nodes = (
"447 0 LINE SMOOTH",
"471 0 OFFCURVE",
"486 11 OFFCURVE",
"491 32 CURVE SMOOTH",
"504 89 LINE SMOOTH",
"505 92 OFFCURVE",
"505 95 OFFCURVE",
"505 99 CURVE SMOOTH",
"505 114 OFFCURVE",
"495 121 OFFCURVE",
"475 121 CURVE SMOOTH",
"190 121 LINE",
"315 664 LINE",
"316 672 OFFCURVE",
"317 677 OFFCURVE",
"317 679 CURVE SMOOTH",
"317 693 OFFCURVE",
"309 700 OFFCURVE",
"294 700 CURVE SMOOTH",
"215 700 LINE SMOOTH",
"191 700 OFFCURVE",
"178 688 OFFCURVE",
"173 664 CURVE SMOOTH",
"28 37 LINE SMOOTH",
"27 30 OFFCURVE",
"26 26 OFFCURVE",
"26 23 CURVE SMOOTH",
"26 8 OFFCURVE",
"35 0 OFFCURVE",
"54 0 CURVE SMOOTH"
);
}
);
width = 567;
}
);
unicode = 004C;
},
{
color = 4;
glyphname = Lslash;
layers = (
{
layerId = UUID0;
paths = (
{
closed = 1;
nodes = (
"499 0 LINE SMOOTH",
"515 0 OFFCURVE",
"528 7 OFFCURVE",
"531 22 CURVE SMOOTH",
"539 58 LINE SMOOTH",
"539 60 OFFCURVE",
"540 62 OFFCURVE",
"540 64 CURVE SMOOTH",
"540 75 OFFCURVE",
"532 80 OFFCURVE",
"518 80 CURVE SMOOTH",
"194 80 LINE",
"252 333 LINE",
"416 429 LINE SMOOTH",
"429 436 OFFCURVE",
"437 446 OFFCURVE",
"440 459 CURVE SMOOTH",
"454 519 LINE SMOOTH",
"454 521 OFFCURVE",
"455 523 OFFCURVE",
"455 525 CURVE SMOOTH",
"455 531 OFFCURVE",
"452 534 OFFCURVE",
"448 534 CURVE SMOOTH",
"444 534 OFFCURVE",
"438 531 OFFCURVE",
"429 526 CURVE SMOOTH",
"275 438 LINE",
"286 477 LINE",
"331 673 LINE SMOOTH",
"332 676 OFFCURVE",
"332 679 OFFCURVE",
"332 683 CURVE SMOOTH",
"332 694 OFFCURVE",
"326 700 OFFCURVE",
"313 700 CURVE SMOOTH",
"268 700 LINE SMOOTH",
"251 700 OFFCURVE",
"241 691 OFFCURVE",
"237 673 CURVE SMOOTH",
"168 374 LINE",
"66 314 LINE SMOOTH",
"53 306 OFFCURVE",
"45 297 OFFCURVE",
"42 284 CURVE SMOOTH",
"28 224 LINE SMOOTH",
"27 221 OFFCURVE",
"27 219 OFFCURVE",
"27 217 CURVE SMOOTH",
"27 212 OFFCURVE",
"29 209 OFFCURVE",
"34 209 CURVE SMOOTH",
"38 209 OFFCURVE",
"44 212 OFFCURVE",
"53 217 CURVE SMOOTH",
"145 269 LINE",
"141 260 OFFCURVE",
"139 247 OFFCURVE",
"135 230 CURVE SMOOTH",
"88 27 LINE SMOOTH",
"87 22 OFFCURVE",
"86 18 OFFCURVE",
"86 17 CURVE SMOOTH",
"86 6 OFFCURVE",
"93 0 OFFCURVE",
"106 0 CURVE SMOOTH"
);
}
);
width = 606;
},
{
layerId = "E33CDA44-370B-4890-B9EA-9A4809AB9281";
paths = (
{
closed = 1;
nodes = (
"487 0 LINE SMOOTH",
"511 0 OFFCURVE",
"526 11 OFFCURVE",
"531 32 CURVE SMOOTH",
"544 89 LINE SMOOTH",
"545 92 OFFCURVE",
"545 95 OFFCURVE",
"545 99 CURVE SMOOTH",
"545 114 OFFCURVE",
"535 121 OFFCURVE",
"515 121 CURVE SMOOTH",
"230 121 LINE",
"278 326 LINE",
"420 409 LINE",
"439 419 OFFCURVE",
"451 432 OFFCURVE",
"455 452 CURVE SMOOTH",
"472 530 LINE SMOOTH",
"473 532 OFFCURVE",
"473 535 OFFCURVE",
"473 539 CURVE SMOOTH",
"473 546 OFFCURVE",
"470 549 OFFCURVE",
"464 549 CURVE SMOOTH",
"459 549 OFFCURVE",
"451 546 OFFCURVE",
"440 540 CURVE SMOOTH",
"310 464 LINE",
"306 464 LINE",
"314 481 OFFCURVE",
"317 501 OFFCURVE",
"322 522 CURVE SMOOTH",
"355 664 LINE",
"356 672 OFFCURVE",
"357 677 OFFCURVE",
"357 679 CURVE SMOOTH",
"357 693 OFFCURVE",
"349 700 OFFCURVE",
"334 700 CURVE SMOOTH",
"255 700 LINE SMOOTH",
"231 700 OFFCURVE",
"218 688 OFFCURVE",
"213 664 CURVE SMOOTH",
"144 366 LINE",
"66 321 LINE SMOOTH",
"47 310 OFFCURVE",
"36 296 OFFCURVE",
"32 278 CURVE SMOOTH",
"15 200 LINE SMOOTH",
"14 198 OFFCURVE",
"14 195 OFFCURVE",
"14 191 CURVE SMOOTH",
"14 184 OFFCURVE",
"17 181 OFFCURVE",
"23 181 CURVE SMOOTH",
"28 181 OFFCURVE",
"36 183 OFFCURVE",
"47 190 CURVE SMOOTH",
"112 229 LINE",
"115 229 LINE",
"110 212 OFFCURVE",
"104 193 OFFCURVE",
"99 170 CURVE SMOOTH",
"68 37 LINE SMOOTH",
"67 30 OFFCURVE",
"66 26 OFFCURVE",
"66 23 CURVE SMOOTH",
"66 8 OFFCURVE",
"75 0 OFFCURVE",
"94 0 CURVE SMOOTH"
);
}
);
width = 607;
}
);
unicode = 0141;
},
{
color = 4;
glyphname = M;
layers = (
{
anchors = (
{
name = bottom;
position = "{358, 0}";
},
{
name = top;
position = "{519, 700}";
}
);
layerId = UUID0;
paths = (
{
closed = 1;
nodes = (
"100 0 LINE SMOOTH",
"115 0 OFFCURVE",
"127 9 OFFCURVE",
"131 27 CURVE SMOOTH",
"257 578 LINE",
"259 578 LINE",
"313 30 LINE",
"314 10 OFFCURVE",
"323 0 OFFCURVE",
"338 0 CURVE SMOOTH",
"392 0 LINE SMOOTH",
"405 0 OFFCURVE",
"420 10 OFFCURVE",
"431 30 CURVE SMOOTH",
"737 578 LINE",
"739 578 LINE",
"611 27 LINE SMOOTH",
"610 24 OFFCURVE",
"610 21 OFFCURVE",
"610 17 CURVE SMOOTH",
"610 6 OFFCURVE",
"616 0 OFFCURVE",
"629 0 CURVE SMOOTH",
"674 0 LINE SMOOTH",
"691 0 OFFCURVE",
"701 9 OFFCURVE",
"705 27 CURVE SMOOTH",
"854 673 LINE SMOOTH",
"855 676 OFFCURVE",
"855 679 OFFCURVE",
"855 683 CURVE SMOOTH",
"855 694 OFFCURVE",
"849 700 OFFCURVE",
"836 700 CURVE SMOOTH",
"726 700 LINE SMOOTH",
"714 700 OFFCURVE",
"701 690 OFFCURVE",
"691 671 CURVE SMOOTH",
"451 233 LINE SMOOTH",
"423 182 OFFCURVE",
"399 137 OFFCURVE",
"384 101 CURVE",
"381 101 LINE",
"380 136 OFFCURVE",
"380 180 OFFCURVE",
"375 233 CURVE SMOOTH",
"336 671 LINE SMOOTH",
"334 690 OFFCURVE",
"327 700 OFFCURVE",
"315 700 CURVE SMOOTH",
"217 700 LINE SMOOTH",
"200 700 OFFCURVE",
"190 691 OFFCURVE",
"186 673 CURVE SMOOTH",
"37 27 LINE SMOOTH",
"36 24 OFFCURVE",
"36 21 OFFCURVE",
"36 17 CURVE SMOOTH",
"36 6 OFFCURVE",
"42 0 OFFCURVE",
"55 0 CURVE SMOOTH"
);
}
);
width = 834;
},
{
anchors = (
{
name = bottom;
position = "{388, 0}";
},
{
name = top;
position = "{549, 700}";
}
);
layerId = "E33CDA44-370B-4890-B9EA-9A4809AB9281";
paths = (
{
closed = 1;
nodes = (
"128 0 LINE SMOOTH",
"152 0 OFFCURVE",
"164 12 OFFCURVE",
"170 37 CURVE SMOOTH",
"264 440 LINE SMOOTH",
"271 469 OFFCURVE",
"273 488 OFFCURVE",
"275 499 CURVE",
"278 499 LINE",
"313 40 LINE SMOOTH",
"315 13 OFFCURVE",
"326 0 OFFCURVE",
"346 0 CURVE SMOOTH",
"429 0 LINE SMOOTH",
"449 0 OFFCURVE",
"465 13 OFFCURVE",
"480 40 CURVE SMOOTH",
"728 499 LINE",
"731 499 LINE",
"723 472 OFFCURVE",
"718 453 OFFCURVE",
"715 440 CURVE SMOOTH",
"622 37 LINE SMOOTH",
"621 30 OFFCURVE",
"620 26 OFFCURVE",
"620 23 CURVE SMOOTH",
"620 8 OFFCURVE",
"629 0 OFFCURVE",
"647 0 CURVE SMOOTH",
"722 0 LINE SMOOTH",
"745 0 OFFCURVE",
"758 12 OFFCURVE",
"764 37 CURVE SMOOTH",
"909 664 LINE SMOOTH",
"910 671 OFFCURVE",
"911 675 OFFCURVE",
"911 677 CURVE SMOOTH",
"911 692 OFFCURVE",
"902 700 OFFCURVE",
"883 700 CURVE SMOOTH",
"735 700 LINE SMOOTH",
"716 700 OFFCURVE",
"700 687 OFFCURVE",
"686 661 CURVE SMOOTH",
"454 233 LINE",
"431 187 LINE",
"427 176 OFFCURVE",
"421 164 OFFCURVE",
"416 145 CURVE",
"413 145 LINE",
"417 186 LINE",
"417 204 OFFCURVE",
"416 220 OFFCURVE",
"415 233 CURVE SMOOTH",
"382 661 LINE SMOOTH",
"380 687 OFFCURVE",
"369 700 OFFCURVE",
"350 700 CURVE SMOOTH",
"215 700 LINE SMOOTH",
"191 700 OFFCURVE",
"178 688 OFFCURVE",
"173 664 CURVE SMOOTH",
"28 37 LINE SMOOTH",
"27 30 OFFCURVE",
"26 26 OFFCURVE",
"26 23 CURVE SMOOTH",
"26 8 OFFCURVE",
"35 0 OFFCURVE",
"54 0 CURVE SMOOTH"
);
}
);
width = 893;
}
);
unicode = 004D;
},
{
color = 4;
glyphname = N;
layers = (
{
anchors = (
{
name = bottom;
position = "{292, 0}";
},
{
name = top;
position = "{453, 700}";
}
);
layerId = UUID0;
paths = (
{
closed = 1;
nodes = (
"100 0 LINE SMOOTH",
"115 0 OFFCURVE",
"127 9 OFFCURVE",
"131 27 CURVE SMOOTH",
"256 574 LINE",
"258 574 LINE",
"459 24 LINE SMOOTH",
"465 8 OFFCURVE",
"479 0 OFFCURVE",
"502 0 CURVE SMOOTH",
"542 0 LINE SMOOTH",
"559 0 OFFCURVE",
"569 9 OFFCURVE",
"573 27 CURVE SMOOTH",
"722 673 LINE SMOOTH",
"723 678 OFFCURVE",
"724 682 OFFCURVE",
"724 683 CURVE SMOOTH",
"724 694 OFFCURVE",
"717 700 OFFCURVE",
"704 700 CURVE SMOOTH",
"659 700 LINE SMOOTH",
"645 700 OFFCURVE",
"632 691 OFFCURVE",
"628 673 CURVE SMOOTH",
"511 158 LINE",
"509 158 LINE",
"319 676 LINE SMOOTH",
"313 692 OFFCURVE",
"299 700 OFFCURVE",
"276 700 CURVE SMOOTH",
"217 700 LINE SMOOTH",
"200 700 OFFCURVE",
"190 691 OFFCURVE",
"186 673 CURVE SMOOTH",
"37 27 LINE SMOOTH",
"36 24 OFFCURVE",
"36 21 OFFCURVE",
"36 17 CURVE SMOOTH",
"36 6 OFFCURVE",
"42 0 OFFCURVE",
"55 0 CURVE SMOOTH"
);
}
);
width = 702;
},
{
anchors = (
{
name = bottom;
position = "{301, 0}";
},
{
name = top;
position = "{462, 700}";
}
);
layerId = "E33CDA44-370B-4890-B9EA-9A4809AB9281";
paths = (
{
closed = 1;
nodes = (
"128 0 LINE SMOOTH",
"151 0 OFFCURVE",
"164 12 OFFCURVE",
"170 37 CURVE SMOOTH",
"253 394 LINE SMOOTH",
"258 417 OFFCURVE",
"261 437 OFFCURVE",
"264 452 CURVE",
"268 452 LINE",
"431 34 LINE SMOOTH",
"440 11 OFFCURVE",
"458 0 OFFCURVE",
"487 0 CURVE SMOOTH",
"548 0 LINE SMOOTH",
"571 0 OFFCURVE",
"584 12 OFFCURVE",
"590 37 CURVE SMOOTH",
"735 664 LINE SMOOTH",
"736 671 OFFCURVE",
"737 675 OFFCURVE",
"737 677 CURVE SMOOTH",
"737 692 OFFCURVE",
"728 700 OFFCURVE",
"709 700 CURVE SMOOTH",
"635 700 LINE SMOOTH",
"611 700 OFFCURVE",
"598 688 OFFCURVE",
"593 664 CURVE SMOOTH",
"512 314 LINE SMOOTH",
"507 291 OFFCURVE",
"504 271 OFFCURVE",
"501 256 CURVE",
"498 256 LINE",
"337 666 LINE SMOOTH",
"328 689 OFFCURVE",
"310 700 OFFCURVE",
"281 700 CURVE SMOOTH",
"215 700 LINE SMOOTH",
"191 700 OFFCURVE",
"178 688 OFFCURVE",
"173 664 CURVE SMOOTH",
"28 37 LINE SMOOTH",
"27 30 OFFCURVE",
"26 26 OFFCURVE",
"26 23 CURVE SMOOTH",
"26 8 OFFCURVE",
"35 0 OFFCURVE",
"54 0 CURVE SMOOTH"
);
}
);
width = 719;
}
);
unicode = 004E;
},
{
color = 4;
glyphname = Eng;
layers = (
{
layerId = UUID0;
paths = (
{
closed = 1;
nodes = (
"454 -204 OFFCURVE",
"523 -154 OFFCURVE",
"558 -4 CURVE SMOOTH",
"675 504 LINE SMOOTH",
"679 523 OFFCURVE",
"682 543 OFFCURVE",
"682 562 CURVE SMOOTH",
"682 658 OFFCURVE",
"613 715 OFFCURVE",
"510 715 CURVE SMOOTH",
"409 715 OFFCURVE",
"314 665 OFFCURVE",
"263 585 CURVE",
"261 585 LINE",
"275 673 LINE",
"276 675 OFFCURVE",
"276 678 OFFCURVE",
"276 681 CURVE SMOOTH",
"276 694 OFFCURVE",
"270 700 OFFCURVE",
"257 700 CURVE SMOOTH",
"217 700 LINE SMOOTH",
"200 700 OFFCURVE",
"190 691 OFFCURVE",
"186 673 CURVE SMOOTH",
"37 27 LINE SMOOTH",
"36 24 OFFCURVE",
"36 21 OFFCURVE",
"36 17 CURVE SMOOTH",
"36 6 OFFCURVE",
"42 0 OFFCURVE",
"55 0 CURVE SMOOTH",
"100 0 LINE SMOOTH",
"115 0 OFFCURVE",
"127 9 OFFCURVE",
"131 27 CURVE SMOOTH",
"216 395 LINE",
"243 519 OFFCURVE",
"350 639 OFFCURVE",
"451 639 CURVE SMOOTH",
"552 639 OFFCURVE",
"582 607 OFFCURVE",
"582 538 CURVE SMOOTH",
"582 515 OFFCURVE",
"579 490 OFFCURVE",
"572 461 CURVE SMOOTH",
"470 19 LINE SMOOTH",
"442 -104 OFFCURVE",
"400 -127 OFFCURVE",
"355 -127 CURVE SMOOTH",
"335 -127 OFFCURVE",
"309 -109 OFFCURVE",
"287 -109 CURVE SMOOTH",
"278 -109 OFFCURVE",
"273 -113 OFFCURVE",
"270 -122 CURVE SMOOTH",
"256 -156 LINE SMOOTH",
"254 -161 OFFCURVE",
"253 -166 OFFCURVE",
"253 -169 CURVE SMOOTH",
"253 -195 OFFCURVE",
"321 -204 OFFCURVE",
"346 -204 CURVE SMOOTH"
);
}
);
width = 694;
},
{
layerId = "E33CDA44-370B-4890-B9EA-9A4809AB9281";
paths = (
{
closed = 1;
nodes = (
"459 -205 OFFCURVE",
"536 -135 OFFCURVE",
"571 17 CURVE SMOOTH",
"675 465 LINE SMOOTH",
"681 490 OFFCURVE",
"684 514 OFFCURVE",
"684 535 CURVE SMOOTH",
"684 639 OFFCURVE",
"612 717 OFFCURVE",
"524 717 CURVE SMOOTH",
"415 717 OFFCURVE",
"353 660 OFFCURVE",
"296 580 CURVE",
"292 580 LINE",
"307 664 LINE SMOOTH",
"308 667 OFFCURVE",
"308 670 OFFCURVE",
"308 674 CURVE SMOOTH",
"308 691 OFFCURVE",
"299 700 OFFCURVE",
"281 700 CURVE SMOOTH",
"215 700 LINE SMOOTH",
"191 700 OFFCURVE",
"178 688 OFFCURVE",
"173 664 CURVE SMOOTH",
"28 37 LINE SMOOTH",
"27 30 OFFCURVE",
"26 26 OFFCURVE",
"26 23 CURVE SMOOTH",
"26 8 OFFCURVE",
"35 0 OFFCURVE",
"54 0 CURVE SMOOTH",
"128 0 LINE SMOOTH",
"152 0 OFFCURVE",
"164 12 OFFCURVE",
"170 37 CURVE SMOOTH",
"226 277 LINE SMOOTH",
"274 482 OFFCURVE",
"379 602 OFFCURVE",
"447 602 CURVE SMOOTH",
"510 602 OFFCURVE",
"533 568 OFFCURVE",
"533 504 CURVE SMOOTH",
"533 481 OFFCURVE",
"529 453 OFFCURVE",
"522 422 CURVE SMOOTH",
"435 44 LINE SMOOTH",
"411 -59 OFFCURVE",
"383 -90 OFFCURVE",
"333 -90 CURVE SMOOTH",
"314 -90 OFFCURVE",
"290 -79 OFFCURVE",
"275 -79 CURVE SMOOTH",
"263 -79 OFFCURVE",
"258 -86 OFFCURVE",
"253 -101 CURVE SMOOTH",
"234 -156 LINE SMOOTH",
"232 -162 OFFCURVE",
"231 -167 OFFCURVE",
"231 -171 CURVE SMOOTH",
"231 -198 OFFCURVE",
"295 -205 OFFCURVE",
"334 -205 CURVE SMOOTH"
);
}
);
width = 704;
}
);
unicode = 014A;
},
{
color = 4;
glyphname = O;
layers = (
{
anchors = (
{
name = bottom;
position = "{311, 0}";
},
{
name = center;
position = "{392, 350}";
},
{
name = ogonek;
position = "{606, 10}";
},
{
name = top;
position = "{452, 700}";
},
{
name = topleft;
position = "{122, 700}";
},
{
name = topright;
position = "{821, 700}";
}
);
layerId = UUID0;
paths = (
{
closed = 1;
nodes = (
"574 -15 OFFCURVE",
"730 157 OFFCURVE",
"730 417 CURVE SMOOTH",
"730 606 OFFCURVE",
"624 715 OFFCURVE",
"429 715 CURVE SMOOTH",
"319 715 OFFCURVE",
"229 676 OFFCURVE",
"158 597 CURVE SMOOTH",
"89 519 OFFCURVE",
"54 414 OFFCURVE",
"54 283 CURVE SMOOTH",
"54 97 OFFCURVE",
"156 -15 OFFCURVE",
"355 -15 CURVE SMOOTH"
);
},
{
closed = 1;
nodes = (
"225 62 OFFCURVE",
"154 136 OFFCURVE",
"154 271 CURVE SMOOTH",
"154 524 OFFCURVE",
"283 639 OFFCURVE",
"423 639 CURVE SMOOTH",
"559 639 OFFCURVE",
"630 564 OFFCURVE",
"630 429 CURVE SMOOTH",
"630 179 OFFCURVE",
"504 62 OFFCURVE",
"360 62 CURVE SMOOTH"
);
}
);
width = 739;
},
{
anchors = (
{
name = bottom;
position = "{315, 0}";
},
{
name = center;
position = "{396, 350}";
},
{
name = ogonek;
position = "{614, 10}";
},
{
name = top;
position = "{456, 700}";
},
{
name = topleft;
position = "{122, 700}";
},
{
name = topright;
position = "{830, 700}";
}
);
layerId = "E33CDA44-370B-4890-B9EA-9A4809AB9281";
paths = (
{
closed = 1;
nodes = (
"589 -17 OFFCURVE",
"741 173 OFFCURVE",
"741 414 CURVE SMOOTH",
"741 618 OFFCURVE",
"622 717 OFFCURVE",
"430 717 CURVE SMOOTH",
"316 717 OFFCURVE",
"224 675 OFFCURVE",
"155 592 CURVE SMOOTH",
"86 510 OFFCURVE",
"51 408 OFFCURVE",
"51 287 CURVE SMOOTH",
"51 82 OFFCURVE",
"170 -17 OFFCURVE",
"362 -17 CURVE SMOOTH"
);
},
{
closed = 1;
nodes = (
"260 99 OFFCURVE",
"203 161 OFFCURVE",
"203 266 CURVE SMOOTH",
"203 464 OFFCURVE",
"292 602 OFFCURVE",
"423 602 CURVE SMOOTH",
"532 602 OFFCURVE",
"589 541 OFFCURVE",
"589 434 CURVE SMOOTH",
"589 240 OFFCURVE",
"503 99 OFFCURVE",
"369 99 CURVE SMOOTH"
);
}
);
width = 748;
}
);
unicode = 004F;
},
{
color = 4;
glyphname = Oslash;
layers = (
{
layerId = UUID0;
paths = (
{
closed = 1;
nodes = (
"587 -15 OFFCURVE",
"745 156 OFFCURVE",
"745 417 CURVE SMOOTH",
"745 477 OFFCURVE",
"734 529 OFFCURVE",
"712 573 CURVE",
"784 636 LINE SMOOTH",
"791 643 OFFCURVE",
"795 650 OFFCURVE",
"795 657 CURVE SMOOTH",
"795 662 OFFCURVE",
"793 666 OFFCURVE",
"789 671 CURVE SMOOTH",
"770 693 LINE SMOOTH",
"765 698 OFFCURVE",
"759 701 OFFCURVE",
"754 701 CURVE SMOOTH",
"749 701 OFFCURVE",
"742 698 OFFCURVE",
"735 692 CURVE SMOOTH",
"670 634 LINE",
"619 688 OFFCURVE",
"544 715 OFFCURVE",
"443 715 CURVE SMOOTH",
"334 715 OFFCURVE",
"244 676 OFFCURVE",
"173 597 CURVE SMOOTH",
"103 518 OFFCURVE",
"68 414 OFFCURVE",
"68 283 CURVE SMOOTH",
"68 222 OFFCURVE",
"79 171 OFFCURVE",
"101 128 CURVE",
"29 64 LINE SMOOTH",
"21 57 OFFCURVE",
"17 50 OFFCURVE",
"17 43 CURVE SMOOTH",
"17 39 OFFCURVE",
"19 34 OFFCURVE",
"23 29 CURVE SMOOTH",
"43 7 LINE SMOOTH",
"48 2 OFFCURVE",
"53 -1 OFFCURVE",
"58 -1 CURVE SMOOTH",
"65 -1 OFFCURVE",
"71 2 OFFCURVE",
"78 8 CURVE SMOOTH",
"143 66 LINE",
"194 12 OFFCURVE",
"270 -15 OFFCURVE",
"370 -15 CURVE SMOOTH"
);
},
{
closed = 1;
nodes = (
"300 62 OFFCURVE",
"246 84 OFFCURVE",
"211 127 CURVE",
"635 504 LINE",
"642 483 OFFCURVE",
"645 458 OFFCURVE",
"645 429 CURVE SMOOTH",
"645 177 OFFCURVE",
"516 62 OFFCURVE",
"375 62 CURVE SMOOTH"
);
},
{
closed = 1;
nodes = (
"171 219 OFFCURVE",
"168 244 OFFCURVE",
"168 271 CURVE SMOOTH",
"168 526 OFFCURVE",
"300 639 OFFCURVE",
"438 639 CURVE SMOOTH",
"513 639 OFFCURVE",
"567 617 OFFCURVE",
"602 573 CURVE",
"177 196 LINE"
);
}
);
width = 739;
},
{
layerId = "E33CDA44-370B-4890-B9EA-9A4809AB9281";
paths = (
{
closed = 1;
nodes = (
"589 -17 OFFCURVE",
"741 173 OFFCURVE",
"741 414 CURVE SMOOTH",
"741 469 OFFCURVE",
"733 516 OFFCURVE",
"717 556 CURVE",
"789 619 LINE SMOOTH",
"797 626 OFFCURVE",
"801 633 OFFCURVE",
"801 640 CURVE SMOOTH",
"801 646 OFFCURVE",
"798 652 OFFCURVE",
"793 659 CURVE SMOOTH",
"755 703 LINE SMOOTH",
"749 710 OFFCURVE",
"743 714 OFFCURVE",
"736 714 CURVE SMOOTH",
"730 714 OFFCURVE",
"723 711 OFFCURVE",
"715 704 CURVE SMOOTH",
"651 648 LINE",
"597 694 OFFCURVE",
"523 717 OFFCURVE",
"430 717 CURVE SMOOTH",
"316 717 OFFCURVE",
"224 675 OFFCURVE",
"155 592 CURVE SMOOTH",
"86 510 OFFCURVE",
"51 408 OFFCURVE",
"51 287 CURVE SMOOTH",
"51 232 OFFCURVE",
"59 184 OFFCURVE",
"75 144 CURVE",
"3 81 LINE SMOOTH",
"-5 74 OFFCURVE",
"-9 67 OFFCURVE",
"-9 60 CURVE SMOOTH",
"-9 55 OFFCURVE",
"-6 49 OFFCURVE",
"-1 42 CURVE SMOOTH",
"37 -3 LINE SMOOTH",
"43 -10 OFFCURVE",
"49 -14 OFFCURVE",
"56 -14 CURVE SMOOTH",
"62 -14 OFFCURVE",
"69 -11 OFFCURVE",
"77 -4 CURVE SMOOTH",
"141 52 LINE",
"195 6 OFFCURVE",
"269 -17 OFFCURVE",
"362 -17 CURVE SMOOTH"
);
},
{
closed = 1;
nodes = (
"313 99 OFFCURVE",
"272 114 OFFCURVE",
"245 143 CURVE",
"589 444 LINE",
"589 434 LINE SMOOTH",
"589 240 OFFCURVE",
"503 99 OFFCURVE",
"369 99 CURVE SMOOTH"
);
},
{
closed = 1;
nodes = (
"203 266 LINE SMOOTH",
"203 464 OFFCURVE",
"292 602 OFFCURVE",
"423 602 CURVE SMOOTH",
"479 602 OFFCURVE",
"520 587 OFFCURVE",
"547 557 CURVE",
"203 256 LINE"
);
}
);
width = 748;
}
);
unicode = 00D8;
},
{
color = 4;
glyphname = OE;
layers = (
{
anchors = (
{
name = mark4;
position = "{602, 715}";
}
);
background = {
anchors = (
{
name = bottom;
position = "{320, 0}";
},
{
name = center;
position = "{401, 350}";
},
{
name = ogonek;
position = "{615, 10}";
},
{
name = top;
position = "{461, 700}";
},
{
name = topleft;
position = "{131, 700}";
},
{
name = topright;
position = "{830, 700}";
}
);
paths = (
{
closed = 1;
nodes = (
"593 680 LINE",
"548 703 OFFCURVE",
"493 715 OFFCURVE",
"428 715 CURVE SMOOTH",
"195 715 OFFCURVE",
"53 535 OFFCURVE",
"53 283 CURVE SMOOTH",
"53 97 OFFCURVE",
"155 -15 OFFCURVE",
"354 -15 CURVE SMOOTH",
"382 -15 OFFCURVE",
"409 -12 OFFCURVE",
"435 -7 CURVE",
"455 81 LINE",
"425 68 OFFCURVE",
"392 62 OFFCURVE",
"359 62 CURVE SMOOTH",
"224 62 OFFCURVE",
"153 136 OFFCURVE",
"153 271 CURVE SMOOTH",
"153 524 OFFCURVE",
"282 639 OFFCURVE",
"422 639 CURVE SMOOTH",
"487 639 OFFCURVE",
"537 622 OFFCURVE",
"572 589 CURVE"
);
}
);
};
layerId = UUID0;
paths = (
{
closed = 1;
nodes = (
"840 0 LINE SMOOTH",
"858 0 OFFCURVE",
"869 7 OFFCURVE",
"872 22 CURVE SMOOTH",
"881 58 LINE SMOOTH",
"884 73 OFFCURVE",
"877 80 OFFCURVE",
"859 80 CURVE SMOOTH",
"506 80 LINE",
"562 323 LINE",
"871 323 LINE SMOOTH",
"889 323 OFFCURVE",
"899 330 OFFCURVE",
"903 345 CURVE SMOOTH",
"911 381 LINE SMOOTH",
"915 396 OFFCURVE",
"907 403 OFFCURVE",
"889 403 CURVE SMOOTH",
"580 403 LINE",
"630 620 LINE",
"968 620 LINE SMOOTH",
"986 620 OFFCURVE",
"997 627 OFFCURVE",
"1000 642 CURVE SMOOTH",
"1009 678 LINE SMOOTH",
"1012 693 OFFCURVE",
"1005 700 OFFCURVE",
"987 700 CURVE SMOOTH",
"554 700 LINE",
"394 0 LINE"
);
},
{
closed = 1;
nodes = (
"616 700 LINE",
"529 700 OFFCURVE",
"502 715 OFFCURVE",
"428 715 CURVE SMOOTH",
"195 715 OFFCURVE",
"53 535 OFFCURVE",
"53 283 CURVE SMOOTH",
"53 97 OFFCURVE",
"155 -15 OFFCURVE",
"344 -15 CURVE SMOOTH",
"395 -15 OFFCURVE",
"415 0 OFFCURVE",
"464 0 CURVE",
"455 71 LINE",
"425 65 OFFCURVE",
"392 62 OFFCURVE",
"359 62 CURVE SMOOTH",
"224 62 OFFCURVE",
"153 136 OFFCURVE",
"153 271 CURVE SMOOTH",
"153 524 OFFCURVE",
"282 639 OFFCURVE",
"422 639 CURVE SMOOTH",
"487 639 OFFCURVE",
"537 625 OFFCURVE",
"572 599 CURVE"
);
}
);
width = 964;
},
{
anchors = (
{
name = mark2;
position = "{537, 717}";
}
);
background = {
anchors = (
{
name = bottom;
position = "{315, 0}";
},
{
name = center;
position = "{396, 350}";
},
{
name = ogonek;
position = "{614, 10}";
},
{
name = top;
position = "{456, 700}";
},
{
name = topleft;
position = "{122, 700}";
},
{
name = topright;
position = "{830, 700}";
}
);
paths = (
{
closed = 1;
nodes = (
"612 676 LINE",
"563 703 OFFCURVE",
"501 717 OFFCURVE",
"430 717 CURVE SMOOTH",
"316 717 OFFCURVE",
"224 675 OFFCURVE",
"155 592 CURVE SMOOTH",
"86 510 OFFCURVE",
"51 408 OFFCURVE",
"51 287 CURVE SMOOTH",
"51 82 OFFCURVE",
"170 -17 OFFCURVE",
"362 -17 CURVE SMOOTH",
"395 -17 OFFCURVE",
"426 -13 OFFCURVE",
"456 -5 CURVE",
"491 148 LINE",
"457 116 OFFCURVE",
"416 99 OFFCURVE",
"369 99 CURVE SMOOTH",
"260 99 OFFCURVE",
"203 161 OFFCURVE",
"203 266 CURVE SMOOTH",
"203 464 OFFCURVE",
"292 602 OFFCURVE",
"423 602 CURVE SMOOTH",
"501 602 OFFCURVE",
"552 571 OFFCURVE",
"575 515 CURVE"
);
}
);
};
layerId = "E33CDA44-370B-4890-B9EA-9A4809AB9281";
paths = (
{
closed = 1;
nodes = (
"446 37 LINE SMOOTH",
"440 12 OFFCURVE",
"448 0 OFFCURVE",
"471 0 CURVE SMOOTH",
"906 0 LINE SMOOTH",
"930 0 OFFCURVE",
"945 11 OFFCURVE",
"950 32 CURVE SMOOTH",
"963 89 LINE SMOOTH",
"968 110 OFFCURVE",
"958 121 OFFCURVE",
"934 121 CURVE SMOOTH",
"608 121 LINE",
"650 303 LINE",
"934 303 LINE SMOOTH",
"959 303 OFFCURVE",
"973 313 OFFCURVE",
"978 334 CURVE SMOOTH",
"992 392 LINE SMOOTH",
"997 413 OFFCURVE",
"987 424 OFFCURVE",
"962 424 CURVE SMOOTH",
"678 424 LINE",
"714 579 LINE",
"1024 579 LINE SMOOTH",
"1049 579 OFFCURVE",
"1063 590 OFFCURVE",
"1068 611 CURVE SMOOTH",
"1081 668 LINE SMOOTH",
"1086 689 OFFCURVE",
"1077 700 OFFCURVE",
"1052 700 CURVE SMOOTH",
"633 700 LINE SMOOTH",
"610 700 OFFCURVE",
"596 688 OFFCURVE",
"590 664 CURVE SMOOTH"
);
},
{
closed = 1;
nodes = (
"653 700 LINE",
"583 700 OFFCURVE",
"517 717 OFFCURVE",
"430 717 CURVE SMOOTH",
"316 717 OFFCURVE",
"224 675 OFFCURVE",
"155 592 CURVE SMOOTH",
"86 510 OFFCURVE",
"51 408 OFFCURVE",
"51 287 CURVE SMOOTH",
"51 82 OFFCURVE",
"170 -17 OFFCURVE",
"362 -17 CURVE SMOOTH",
"411 -17 OFFCURVE",
"452 0 OFFCURVE",
"502 0 CURVE",
"491 128 LINE",
"457 109 OFFCURVE",
"416 99 OFFCURVE",
"369 99 CURVE SMOOTH",
"260 99 OFFCURVE",
"203 161 OFFCURVE",
"203 266 CURVE SMOOTH",
"203 464 OFFCURVE",
"292 602 OFFCURVE",
"423 602 CURVE SMOOTH",
"501 602 OFFCURVE",
"552 582 OFFCURVE",
"575 545 CURVE"
);
}
);
width = 1043;
}
);
leftMetricsKey = O;
rightMetricsKey = E;
unicode = 0152;
},
{
color = 4;
glyphname = P;
layers = (
{
anchors = (
{
name = bottom;
position = "{258, 0}";
},
{
name = top;
position = "{419, 700}";
}
);
layerId = UUID0;
paths = (
{
closed = 1;
nodes = (
"100 0 LINE SMOOTH",
"115 0 OFFCURVE",
"127 9 OFFCURVE",
"131 27 CURVE SMOOTH",
"189 281 LINE",
"335 281 LINE SMOOTH",
"563 281 OFFCURVE",
"650 393 OFFCURVE",
"650 510 CURVE SMOOTH",
"650 625 OFFCURVE",
"571 700 OFFCURVE",
"417 700 CURVE SMOOTH",
"217 700 LINE SMOOTH",
"200 700 OFFCURVE",
"190 691 OFFCURVE",
"186 673 CURVE SMOOTH",
"37 27 LINE SMOOTH",
"36 24 OFFCURVE",
"36 21 OFFCURVE",
"36 17 CURVE SMOOTH",
"36 6 OFFCURVE",
"42 0 OFFCURVE",
"55 0 CURVE SMOOTH"
);
},
{
closed = 1;
nodes = (
"268 620 LINE",
"400 620 LINE SMOOTH",
"509 620 OFFCURVE",
"555 589 OFFCURVE",
"555 500 CURVE SMOOTH",
"555 419 OFFCURVE",
"497 361 OFFCURVE",
"360 361 CURVE SMOOTH",
"208 361 LINE"
);
}
);
width = 634;
},
{
anchors = (
{
name = bottom;
position = "{265, 0}";
},
{
name = top;
position = "{426, 700}";
}
);
layerId = "E33CDA44-370B-4890-B9EA-9A4809AB9281";
paths = (
{
closed = 1;
nodes = (
"128 0 LINE SMOOTH",
"152 0 OFFCURVE",
"164 12 OFFCURVE",
"170 37 CURVE SMOOTH",
"223 262 LINE",
"307 262 LINE SMOOTH",
"543 262 OFFCURVE",
"658 365 OFFCURVE",
"658 511 CURVE SMOOTH",
"658 642 OFFCURVE",
"572 700 OFFCURVE",
"388 700 CURVE SMOOTH",
"215 700 LINE SMOOTH",
"191 700 OFFCURVE",
"178 688 OFFCURVE",
"173 664 CURVE SMOOTH",
"28 37 LINE SMOOTH",
"27 30 OFFCURVE",
"26 26 OFFCURVE",
"26 23 CURVE SMOOTH",
"26 8 OFFCURVE",
"35 0 OFFCURVE",
"54 0 CURVE SMOOTH"
);
},
{
closed = 1;
nodes = (
"296 581 LINE",
"360 581 LINE SMOOTH",
"483 581 OFFCURVE",
"514 556 OFFCURVE",
"514 494 CURVE SMOOTH",
"514 433 OFFCURVE",
"473 381 OFFCURVE",
"333 381 CURVE SMOOTH",
"250 381 LINE"
);
}
);
width = 648;
}
);
unicode = 0050;
},
{
color = 4;
glyphname = Thorn;
layers = (
{
layerId = UUID0;
paths = (
{
closed = 1;
nodes = (
"99 -4 LINE SMOOTH",
"114 -4 OFFCURVE",
"126 5 OFFCURVE",
"130 23 CURVE SMOOTH",
"163 164 LINE",
"269 164 LINE SMOOTH",
"478 164 OFFCURVE",
"589 252 OFFCURVE",
"589 395 CURVE SMOOTH",
"589 485 OFFCURVE",
"547 574 OFFCURVE",
"354 574 CURVE SMOOTH",
"257 574 LINE",
"280 674 LINE SMOOTH",
"281 679 OFFCURVE",
"282 683 OFFCURVE",
"282 684 CURVE SMOOTH",
"282 695 OFFCURVE",
"275 701 OFFCURVE",
"262 701 CURVE SMOOTH",
"217 701 LINE SMOOTH",
"201 701 OFFCURVE",
"191 692 OFFCURVE",
"187 674 CURVE SMOOTH",
"36 23 LINE SMOOTH",
"35 20 OFFCURVE",
"35 17 OFFCURVE",
"35 13 CURVE SMOOTH",
"35 2 OFFCURVE",
"41 -4 OFFCURVE",
"54 -4 CURVE SMOOTH"
);
},
{
closed = 1;
nodes = (
"239 494 LINE",
"334 494 LINE SMOOTH",
"447 494 OFFCURVE",
"489 464 OFFCURVE",
"489 385 CURVE SMOOTH",
"489 298 OFFCURVE",
"415 244 OFFCURVE",
"296 244 CURVE SMOOTH",
"181 244 LINE"
);
}
);
width = 602;
},
{
layerId = "E33CDA44-370B-4890-B9EA-9A4809AB9281";
paths = (
{
closed = 1;
nodes = (
"126 -5 LINE SMOOTH",
"150 -5 OFFCURVE",
"163 7 OFFCURVE",
"169 31 CURVE SMOOTH",
"196 147 LINE",
"287 147 LINE SMOOTH",
"511 147 OFFCURVE",
"620 245 OFFCURVE",
"620 396 CURVE SMOOTH",
"620 510 OFFCURVE",
"538 585 OFFCURVE",
"359 585 CURVE SMOOTH",
"297 585 LINE",
"316 666 LINE SMOOTH",
"317 669 OFFCURVE",
"317 673 OFFCURVE",
"317 678 CURVE SMOOTH",
"317 694 OFFCURVE",
"308 702 OFFCURVE",
"290 702 CURVE SMOOTH",
"216 702 LINE SMOOTH",
"193 702 OFFCURVE",
"178 690 OFFCURVE",
"173 666 CURVE SMOOTH",
"27 31 LINE SMOOTH",
"26 24 OFFCURVE",
"25 20 OFFCURVE",
"25 18 CURVE SMOOTH",
"25 3 OFFCURVE",
"34 -5 OFFCURVE",
"52 -5 CURVE SMOOTH"
);
},
{
closed = 1;
nodes = (
"270 466 LINE",
"334 466 LINE SMOOTH",
"418 466 OFFCURVE",
"473 444 OFFCURVE",
"473 377 CURVE SMOOTH",
"473 305 OFFCURVE",
"417 267 OFFCURVE",
"318 267 CURVE SMOOTH",
"224 267 LINE"
);
}
);
width = 638;
}
);
unicode = 00DE;
},
{
color = 4;
glyphname = Q;
layers = (
{
anchors = (
{
name = bottom;
position = "{311, 0}";
},
{
name = top;
position = "{442, 700}";
}
);
layerId = UUID0;
paths = (
{
closed = 1;
nodes = (
"497 -184 OFFCURVE",
"589 -181 OFFCURVE",
"589 -163 CURVE",
"583 -117 LINE",
"583 -111 OFFCURVE",
"579 -108 OFFCURVE",
"571 -108 CURVE SMOOTH",
"563 -109 LINE",
"544 -114 OFFCURVE",
"525 -116 OFFCURVE",
"506 -116 CURVE SMOOTH",
"433 -116 OFFCURVE",
"399 -94 OFFCURVE",
"399 -13 CURVE",
"595 8 OFFCURVE",
"730 176 OFFCURVE",
"730 417 CURVE SMOOTH",
"730 606 OFFCURVE",
"624 715 OFFCURVE",
"429 715 CURVE SMOOTH",
"319 715 OFFCURVE",
"229 676 OFFCURVE",
"158 597 CURVE SMOOTH",
"89 519 OFFCURVE",
"54 414 OFFCURVE",
"54 283 CURVE SMOOTH",
"54 114 OFFCURVE",
"141 3 OFFCURVE",
"305 -12 CURVE",
"305 -130 OFFCURVE",
"356 -184 OFFCURVE",
"490 -184 CURVE SMOOTH"
);
},
{
closed = 1;
nodes = (
"225 62 OFFCURVE",
"154 136 OFFCURVE",
"154 271 CURVE SMOOTH",
"154 524 OFFCURVE",
"283 639 OFFCURVE",
"423 639 CURVE SMOOTH",
"559 639 OFFCURVE",
"630 564 OFFCURVE",
"630 429 CURVE SMOOTH",
"630 179 OFFCURVE",
"504 62 OFFCURVE",
"360 62 CURVE SMOOTH"
);
}
);
width = 739;
},
{
anchors = (
{
name = bottom;
position = "{315, 0}";
},
{
name = top;
position = "{446, 700}";
}
);
layerId = "E33CDA44-370B-4890-B9EA-9A4809AB9281";
paths = (
{
closed = 1;
nodes = (
"532 -199 OFFCURVE",
"618 -189 OFFCURVE",
"618 -164 CURVE SMOOTH",
"618 -161 OFFCURVE",
"618 -159 OFFCURVE",
"617 -158 CURVE",
"601 -101 LINE SMOOTH",
"599 -92 OFFCURVE",
"593 -88 OFFCURVE",
"584 -88 CURVE SMOOTH",
"564 -88 OFFCURVE",
"541 -99 OFFCURVE",
"522 -99 CURVE SMOOTH",
"453 -99 OFFCURVE",
"440 -71 OFFCURVE",
"436 -10 CURVE",
"619 22 OFFCURVE",
"741 204 OFFCURVE",
"741 414 CURVE SMOOTH",
"741 618 OFFCURVE",
"622 717 OFFCURVE",
"430 717 CURVE SMOOTH",
"316 717 OFFCURVE",
"224 675 OFFCURVE",
"155 592 CURVE SMOOTH",
"86 510 OFFCURVE",
"51 408 OFFCURVE",
"51 287 CURVE SMOOTH",
"51 110 OFFCURVE",
"139 11 OFFCURVE",
"292 -12 CURVE",
"298 -129 OFFCURVE",
"350 -199 OFFCURVE",
"492 -199 CURVE SMOOTH"
);
},
{
closed = 1;
nodes = (
"260 99 OFFCURVE",
"203 161 OFFCURVE",
"203 266 CURVE SMOOTH",
"203 464 OFFCURVE",
"292 602 OFFCURVE",
"423 602 CURVE SMOOTH",
"532 602 OFFCURVE",
"589 541 OFFCURVE",
"589 434 CURVE SMOOTH",
"589 240 OFFCURVE",
"503 99 OFFCURVE",
"369 99 CURVE SMOOTH"
);
}
);
width = 748;
}
);
unicode = 0051;
},
{
color = 4;
glyphname = R;
layers = (
{
anchors = (
{
name = bottom;
position = "{279, 0}";
},
{
name = top;
position = "{440, 700}";
}
);
layerId = UUID0;
paths = (
{
closed = 1;
nodes = (
"100 0 LINE SMOOTH",
"115 0 OFFCURVE",
"127 9 OFFCURVE",
"131 27 CURVE SMOOTH",
"194 303 LINE",
"279 303 LINE SMOOTH",
"369 303 OFFCURVE",
"413 241 OFFCURVE",
"428 193 CURVE SMOOTH",
"484 19 LINE SMOOTH",
"488 6 OFFCURVE",
"499 0 OFFCURVE",
"514 0 CURVE SMOOTH",
"560 0 LINE SMOOTH",
"573 0 OFFCURVE",
"579 5 OFFCURVE",
"579 16 CURVE SMOOTH",
"579 21 OFFCURVE",
"578 26 OFFCURVE",
"576 32 CURVE SMOOTH",
"512 211 LINE SMOOTH",
"491 268 OFFCURVE",
"486 275 OFFCURVE",
"436 320 CURVE",
"437 321 LINE",
"566 331 OFFCURVE",
"667 411 OFFCURVE",
"667 516 CURVE SMOOTH",
"667 617 OFFCURVE",
"605 700 OFFCURVE",
"438 700 CURVE SMOOTH",
"217 700 LINE SMOOTH",
"200 700 OFFCURVE",
"190 691 OFFCURVE",
"186 673 CURVE SMOOTH",
"37 27 LINE SMOOTH",
"36 24 OFFCURVE",
"36 21 OFFCURVE",
"36 17 CURVE SMOOTH",
"36 6 OFFCURVE",
"42 0 OFFCURVE",
"55 0 CURVE SMOOTH"
);
},
{
closed = 1;
nodes = (
"268 620 LINE",
"413 620 LINE SMOOTH",
"509 620 OFFCURVE",
"571 600 OFFCURVE",
"571 507 CURVE SMOOTH",
"571 422 OFFCURVE",
"476 383 OFFCURVE",
"364 383 CURVE SMOOTH",
"213 383 LINE"
);
}
);
width = 676;
},
{
anchors = (
{
name = bottom;
position = "{290, 0}";
},
{
name = top;
position = "{451, 700}";
}
);
layerId = "E33CDA44-370B-4890-B9EA-9A4809AB9281";
paths = (
{
closed = 1;
nodes = (
"128 0 LINE SMOOTH",
"152 0 OFFCURVE",
"164 12 OFFCURVE",
"170 37 CURVE SMOOTH",
"228 283 LINE",
"273 283 LINE SMOOTH",
"330 283 OFFCURVE",
"376 243 OFFCURVE",
"394 193 CURVE SMOOTH",
"452 29 LINE SMOOTH",
"459 10 OFFCURVE",
"469 0 OFFCURVE",
"489 0 CURVE SMOOTH",
"563 0 LINE SMOOTH",
"585 0 OFFCURVE",
"596 8 OFFCURVE",
"596 23 CURVE SMOOTH",
"596 30 OFFCURVE",
"595 36 OFFCURVE",
"592 42 CURVE SMOOTH",
"526 211 LINE SMOOTH",
"518 232 OFFCURVE",
"500 292 OFFCURVE",
"443 315 CURVE",
"443 316 LINE",
"596 336 OFFCURVE",
"687 421 OFFCURVE",
"687 526 CURVE SMOOTH",
"687 633 OFFCURVE",
"615 700 OFFCURVE",
"416 700 CURVE SMOOTH",
"215 700 LINE SMOOTH",
"191 700 OFFCURVE",
"178 688 OFFCURVE",
"173 664 CURVE SMOOTH",
"28 37 LINE SMOOTH",
"27 30 OFFCURVE",
"26 26 OFFCURVE",
"26 23 CURVE SMOOTH",
"26 8 OFFCURVE",
"35 0 OFFCURVE",
"54 0 CURVE SMOOTH"
);
},
{
closed = 1;
nodes = (
"296 581 LINE",
"388 581 LINE SMOOTH",
"490 581 OFFCURVE",
"547 570 OFFCURVE",
"547 512 CURVE SMOOTH",
"547 440 OFFCURVE",
"450 404 OFFCURVE",
"357 404 CURVE SMOOTH",
"255 404 LINE"
);
}
);
width = 697;
}
);
unicode = 0052;
},
{
color = 4;
glyphname = S;
layers = (
{
anchors = (
{
name = bottom;
position = "{238, 0}";
},
{
name = top;
position = "{399, 700}";
}
);
layerId = UUID0;
paths = (
{
closed = 1;
nodes = (
"438 -15 OFFCURVE",
"547 65 OFFCURVE",
"547 198 CURVE SMOOTH",
"547 272 OFFCURVE",
"502 341 OFFCURVE",
"415 373 CURVE SMOOTH",
"377 387 LINE",
"284 417 OFFCURVE",
"240 440 OFFCURVE",
"240 515 CURVE SMOOTH",
"240 599 OFFCURVE",
"323 632 OFFCURVE",
"383 632 CURVE SMOOTH",
"466 632 OFFCURVE",
"537 573 OFFCURVE",
"547 573 CURVE SMOOTH",
"552 573 OFFCURVE",
"555 575 OFFCURVE",
"558 579 CURVE SMOOTH",
"586 616 LINE SMOOTH",
"591 622 OFFCURVE",
"593 627 OFFCURVE",
"593 632 CURVE SMOOTH",
"593 656 OFFCURVE",
"532 687 OFFCURVE",
"498 699 CURVE SMOOTH",
"467 710 OFFCURVE",
"431 715 OFFCURVE",
"389 715 CURVE SMOOTH",
"329 715 OFFCURVE",
"146 683 OFFCURVE",
"146 508 CURVE SMOOTH",
"146 392 OFFCURVE",
"216 349 OFFCURVE",
"339 304 CURVE SMOOTH",
"374 292 LINE",
"428 271 OFFCURVE",
"448 229 OFFCURVE",
"448 182 CURVE SMOOTH",
"448 99 OFFCURVE",
"358 62 OFFCURVE",
"279 62 CURVE SMOOTH",
"196 62 OFFCURVE",
"156 87 OFFCURVE",
"116 125 CURVE SMOOTH",
"106 135 OFFCURVE",
"95 138 OFFCURVE",
"89 139 CURVE SMOOTH",
"83 139 OFFCURVE",
"78 136 OFFCURVE",
"74 131 CURVE SMOOTH",
"46 97 LINE SMOOTH",
"43 93 OFFCURVE",
"41 88 OFFCURVE",
"41 83 CURVE SMOOTH",
"41 74 OFFCURVE",
"46 65 OFFCURVE",
"56 55 CURVE SMOOTH",
"103 8 OFFCURVE",
"174 -15 OFFCURVE",
"271 -15 CURVE SMOOTH"
);
}
);
width = 594;
},
{
anchors = (
{
name = bottom;
position = "{258, 0}";
},
{
name = top;
position = "{409, 700}";
}
);
layerId = "E33CDA44-370B-4890-B9EA-9A4809AB9281";
paths = (
{
closed = 1;
nodes = (
"481 -17 OFFCURVE",
"575 91 OFFCURVE",
"575 206 CURVE SMOOTH",
"575 322 OFFCURVE",
"508 374 OFFCURVE",
"389 409 CURVE SMOOTH",
"305 433 OFFCURVE",
"259 461 OFFCURVE",
"259 521 CURVE SMOOTH",
"259 571 OFFCURVE",
"302 602 OFFCURVE",
"377 602 CURVE SMOOTH",
"432 602 OFFCURVE",
"478 585 OFFCURVE",
"513 557 CURVE SMOOTH",
"524 548 OFFCURVE",
"534 544 OFFCURVE",
"543 544 CURVE SMOOTH",
"552 544 OFFCURVE",
"560 548 OFFCURVE",
"567 556 CURVE SMOOTH",
"610 604 LINE SMOOTH",
"615 609 OFFCURVE",
"617 615 OFFCURVE",
"617 622 CURVE SMOOTH",
"617 672 OFFCURVE",
"493 717 OFFCURVE",
"390 717 CURVE SMOOTH",
"315 717 OFFCURVE",
"220 703 OFFCURVE",
"159 624 CURVE SMOOTH",
"130 587 OFFCURVE",
"117 545 OFFCURVE",
"117 505 CURVE SMOOTH",
"117 395 OFFCURVE",
"176 352 OFFCURVE",
"229 328 CURVE SMOOTH",
"294 298 LINE",
"352 277 LINE SMOOTH",
"405 258 OFFCURVE",
"430 234 OFFCURVE",
"430 194 CURVE SMOOTH",
"430 138 OFFCURVE",
"386 99 OFFCURVE",
"291 99 CURVE SMOOTH",
"223 99 OFFCURVE",
"166 124 OFFCURVE",
"128 153 CURVE SMOOTH",
"117 162 OFFCURVE",
"106 167 OFFCURVE",
"96 167 CURVE SMOOTH",
"87 167 OFFCURVE",
"79 163 OFFCURVE",
"74 156 CURVE SMOOTH",
"31 104 LINE SMOOTH",
"26 99 OFFCURVE",
"24 92 OFFCURVE",
"24 85 CURVE SMOOTH",
"24 54 OFFCURVE",
"96 13 OFFCURVE",
"136 0 CURVE SMOOTH",
"170 -11 OFFCURVE",
"216 -17 OFFCURVE",
"273 -17 CURVE SMOOTH"
);
}
);
width = 634;
}
);
unicode = 0053;
},
{
color = 4;
glyphname = Germandbls;
layers = (
{
layerId = UUID0;
paths = (
{
closed = 1;
nodes = (
"482 -15 OFFCURVE",
"581 89 OFFCURVE",
"581 229 CURVE SMOOTH",
"581 310 OFFCURVE",
"531 367 OFFCURVE",
"442 390 CURVE",
"624 574 LINE SMOOTH",
"633 583 OFFCURVE",
"638 595 OFFCURVE",
"638 609 CURVE SMOOTH",
"638 658 OFFCURVE",
"543 715 OFFCURVE",
"455 715 CURVE SMOOTH",
"310 715 OFFCURVE",
"183 660 OFFCURVE",
"131 434 CURVE SMOOTH",
"37 27 LINE SMOOTH",
"36 24 OFFCURVE",
"36 21 OFFCURVE",
"36 17 CURVE SMOOTH",
"36 6 OFFCURVE",
"42 0 OFFCURVE",
"55 0 CURVE SMOOTH",
"100 0 LINE SMOOTH",
"115 0 OFFCURVE",
"127 9 OFFCURVE",
"131 27 CURVE SMOOTH",
"232 465 LINE SMOOTH",
"260 588 OFFCURVE",
"359 639 OFFCURVE",
"437 639 CURVE SMOOTH",
"486 639 OFFCURVE",
"511 627 OFFCURVE",
"530 600 CURVE",
"329 398 LINE",
"323 393 OFFCURVE",
"320 386 OFFCURVE",
"320 377 CURVE SMOOTH",
"320 375 OFFCURVE",
"321 371 OFFCURVE",
"322 364 CURVE",
"329 340 LINE SMOOTH",
"331 331 OFFCURVE",
"338 325 OFFCURVE",
"350 324 CURVE SMOOTH",
"428 316 OFFCURVE",
"481 284 OFFCURVE",
"481 220 CURVE SMOOTH",
"481 130 OFFCURVE",
"424 62 OFFCURVE",
"335 62 CURVE SMOOTH",
"277 62 OFFCURVE",
"259 88 OFFCURVE",
"244 88 CURVE SMOOTH",
"237 88 OFFCURVE",
"231 84 OFFCURVE",
"226 76 CURVE SMOOTH",
"206 44 LINE SMOOTH",
"202 38 OFFCURVE",
"200 33 OFFCURVE",
"200 28 CURVE SMOOTH",
"200 -5 OFFCURVE",
"283 -15 OFFCURVE",
"333 -15 CURVE SMOOTH"
);
}
);
width = 638;
},
{
layerId = "E33CDA44-370B-4890-B9EA-9A4809AB9281";
paths = (
{
closed = 1;
nodes = (
"515 -17 OFFCURVE",
"627 78 OFFCURVE",
"627 231 CURVE SMOOTH",
"627 307 OFFCURVE",
"600 360 OFFCURVE",
"516 396 CURVE",
"663 560 LINE SMOOTH",
"674 572 OFFCURVE",
"680 586 OFFCURVE",
"680 599 CURVE SMOOTH",
"680 654 OFFCURVE",
"590 717 OFFCURVE",
"488 717 CURVE SMOOTH",
"294 717 OFFCURVE",
"166 631 OFFCURVE",
"111 395 CURVE SMOOTH",
"28 37 LINE SMOOTH",
"27 30 OFFCURVE",
"26 26 OFFCURVE",
"26 23 CURVE SMOOTH",
"26 8 OFFCURVE",
"35 0 OFFCURVE",
"54 0 CURVE SMOOTH",
"128 0 LINE SMOOTH",
"151 0 OFFCURVE",
"164 12 OFFCURVE",
"170 37 CURVE SMOOTH",
"260 426 LINE SMOOTH",
"293 569 OFFCURVE",
"387 602 OFFCURVE",
"453 602 CURVE SMOOTH",
"482 602 OFFCURVE",
"497 594 OFFCURVE",
"506 571 CURVE",
"355 405 LINE SMOOTH",
"344 393 OFFCURVE",
"338 383 OFFCURVE",
"339 372 CURVE SMOOTH",
"339 367 OFFCURVE",
"340 364 OFFCURVE",
"341 361 CURVE SMOOTH",
"352 336 LINE SMOOTH",
"371 292 OFFCURVE",
"480 324 OFFCURVE",
"480 225 CURVE SMOOTH",
"480 161 OFFCURVE",
"445 99 OFFCURVE",
"372 99 CURVE SMOOTH",
"322 99 OFFCURVE",
"298 125 OFFCURVE",
"279 125 CURVE SMOOTH",
"272 125 OFFCURVE",
"266 121 OFFCURVE",
"262 114 CURVE SMOOTH",
"228 47 LINE SMOOTH",
"225 40 OFFCURVE",
"223 35 OFFCURVE",
"223 31 CURVE SMOOTH",
"223 1 OFFCURVE",
"310 -17 OFFCURVE",
"359 -17 CURVE SMOOTH"
);
}
);
width = 688;
}
);
unicode = 1E9E;
},
{
color = 4;
glyphname = T;
layers = (
{
anchors = (
{
name = bottom;
position = "{244, 0}";
},
{
name = center;
position = "{325, 350}";
},
{
name = top;
position = "{405, 700}";
}
);
layerId = UUID0;
paths = (
{
closed = 1;
nodes = (
"272 0 LINE SMOOTH",
"287 0 OFFCURVE",
"299 9 OFFCURVE",
"303 27 CURVE SMOOTH",
"438 616 LINE",
"650 616 LINE SMOOTH",
"668 616 OFFCURVE",
"679 623 OFFCURVE",
"682 638 CURVE SMOOTH",
"691 678 LINE SMOOTH",
"692 681 OFFCURVE",
"692 683 OFFCURVE",
"692 685 CURVE SMOOTH",
"692 695 OFFCURVE",
"684 700 OFFCURVE",
"669 700 CURVE SMOOTH",
"153 700 LINE SMOOTH",
"136 700 OFFCURVE",
"124 693 OFFCURVE",
"121 678 CURVE SMOOTH",
"112 638 LINE SMOOTH",
"111 635 OFFCURVE",
"111 633 OFFCURVE",
"111 630 CURVE SMOOTH",
"111 620 OFFCURVE",
"118 616 OFFCURVE",
"133 616 CURVE SMOOTH",
"345 616 LINE",
"209 27 LINE SMOOTH",
"208 24 OFFCURVE",
"208 21 OFFCURVE",
"208 17 CURVE SMOOTH",
"208 6 OFFCURVE",
"214 0 OFFCURVE",
"227 0 CURVE SMOOTH"
);
}
);
width = 605;
},
{
anchors = (
{
name = bottom;
position = "{245, 0}";
},
{
name = center;
position = "{326, 350}";
},
{
name = top;
position = "{406, 700}";
}
);
layerId = "E33CDA44-370B-4890-B9EA-9A4809AB9281";
paths = (
{
closed = 1;
nodes = (
"292 0 LINE SMOOTH",
"309 0 OFFCURVE",
"319 9 OFFCURVE",
"323 27 CURVE SMOOTH",
"450 575 LINE",
"629 575 LINE SMOOTH",
"653 575 OFFCURVE",
"668 586 OFFCURVE",
"673 607 CURVE SMOOTH",
"688 668 LINE SMOOTH",
"689 670 OFFCURVE",
"689 673 OFFCURVE",
"689 677 CURVE SMOOTH",
"689 692 OFFCURVE",
"679 700 OFFCURVE",
"658 700 CURVE SMOOTH",
"156 700 LINE SMOOTH",
"132 700 OFFCURVE",
"117 689 OFFCURVE",
"112 668 CURVE SMOOTH",
"98 607 LINE SMOOTH",
"97 604 OFFCURVE",
"97 601 OFFCURVE",
"97 597 CURVE SMOOTH",
"97 582 OFFCURVE",
"107 575 OFFCURVE",
"127 575 CURVE SMOOTH",
"307 575 LINE",
"181 27 LINE SMOOTH",
"180 22 OFFCURVE",
"179 18 OFFCURVE",
"179 17 CURVE SMOOTH",
"179 6 OFFCURVE",
"186 0 OFFCURVE",
"199 0 CURVE SMOOTH"
);
}
);
width = 608;
}
);
unicode = 0054;
},
{
color = 4;
glyphname = U;
layers = (
{
anchors = (
{
name = bottom;
position = "{284, 0}";
},
{
name = ogonek;
position = "{557, 10}";
},
{
name = top;
position = "{445, 700}";
},
{
name = topright;
position = "{767, 700}";
}
);
layerId = UUID0;
paths = (
{
closed = 1;
nodes = (
"494 -15 OFFCURVE",
"592 60 OFFCURVE",
"640 267 CURVE SMOOTH",
"734 673 LINE SMOOTH",
"735 676 OFFCURVE",
"735 679 OFFCURVE",
"735 683 CURVE SMOOTH",
"735 694 OFFCURVE",
"729 700 OFFCURVE",
"716 700 CURVE SMOOTH",
"671 700 LINE SMOOTH",
"657 700 OFFCURVE",
"644 691 OFFCURVE",
"640 673 CURVE SMOOTH",
"550 282 LINE SMOOTH",
"508 98 OFFCURVE",
"431 62 OFFCURVE",
"333 62 CURVE SMOOTH",
"242 62 OFFCURVE",
"202 89 OFFCURVE",
"202 164 CURVE SMOOTH",
"202 193 OFFCURVE",
"208 233 OFFCURVE",
"219 282 CURVE SMOOTH",
"309 673 LINE SMOOTH",
"310 676 OFFCURVE",
"310 679 OFFCURVE",
"310 683 CURVE SMOOTH",
"310 694 OFFCURVE",
"304 700 OFFCURVE",
"291 700 CURVE SMOOTH",
"246 700 LINE SMOOTH",
"232 700 OFFCURVE",
"219 691 OFFCURVE",
"215 673 CURVE SMOOTH",
"122 267 LINE SMOOTH",
"113 228 OFFCURVE",
"109 196 OFFCURVE",
"109 169 CURVE SMOOTH",
"109 37 OFFCURVE",
"217 -15 OFFCURVE",
"316 -15 CURVE SMOOTH"
);
}
);
width = 685;
},
{
anchors = (
{
name = bottom;
position = "{308, 0}";
},
{
name = ogonek;
position = "{566, 10}";
},
{
name = top;
position = "{449, 700}";
},
{
name = topright;
position = "{776, 700}";
}
);
layerId = "E33CDA44-370B-4890-B9EA-9A4809AB9281";
paths = (
{
closed = 1;
nodes = (
"481 -17 OFFCURVE",
"570 55 OFFCURVE",
"625 292 CURVE SMOOTH",
"713 673 LINE",
"713 676 OFFCURVE",
"714 678 OFFCURVE",
"714 681 CURVE SMOOTH",
"714 694 OFFCURVE",
"704 700 OFFCURVE",
"685 700 CURVE SMOOTH",
"611 700 LINE SMOOTH",
"590 700 OFFCURVE",
"574 691 OFFCURVE",
"570 673 CURVE SMOOTH",
"483 296 LINE SMOOTH",
"447 140 OFFCURVE",
"377 99 OFFCURVE",
"311 99 CURVE SMOOTH",
"255 99 OFFCURVE",
"214 117 OFFCURVE",
"214 185 CURVE",
"213 214 OFFCURVE",
"219 251 OFFCURVE",
"230 296 CURVE SMOOTH",
"317 673 LINE SMOOTH",
"318 675 OFFCURVE",
"318 678 OFFCURVE",
"318 682 CURVE SMOOTH",
"318 694 OFFCURVE",
"309 700 OFFCURVE",
"290 700 CURVE SMOOTH",
"215 700 LINE SMOOTH",
"192 700 OFFCURVE",
"179 691 OFFCURVE",
"175 673 CURVE SMOOTH",
"87 292 LINE SMOOTH",
"77 251 OFFCURVE",
"73 215 OFFCURVE",
"73 184 CURVE SMOOTH",
"73 46 OFFCURVE",
"172 -17 OFFCURVE",
"296 -17 CURVE SMOOTH"
);
}
);
width = 694;
}
);
unicode = 0055;
},
{
color = 4;
glyphname = V;
layers = (
{
anchors = (
{
name = bottom;
position = "{268, 0}";
},
{
name = top;
position = "{429, 700}";
}
);
layerId = UUID0;
paths = (
{
closed = 1;
nodes = (
"307 0 LINE SMOOTH",
"319 0 OFFCURVE",
"334 9 OFFCURVE",
"346 30 CURVE SMOOTH",
"731 668 LINE SMOOTH",
"736 676 OFFCURVE",
"739 683 OFFCURVE",
"739 690 CURVE SMOOTH",
"739 697 OFFCURVE",
"734 700 OFFCURVE",
"725 700 CURVE SMOOTH",
"669 700 LINE SMOOTH",
"652 700 OFFCURVE",
"638 692 OFFCURVE",
"629 676 CURVE SMOOTH",
"369 239 LINE",
"327 165 LINE SMOOTH",
"306 128 OFFCURVE",
"294 101 OFFCURVE",
"287 84 CURVE",
"285 84 LINE",
"285 105 OFFCURVE",
"284 131 OFFCURVE",
"282 163 CURVE",
"274 239 LINE",
"217 676 LINE SMOOTH",
"215 692 OFFCURVE",
"205 700 OFFCURVE",
"187 700 CURVE SMOOTH",
"143 700 LINE SMOOTH",
"129 700 OFFCURVE",
"122 693 OFFCURVE",
"122 678 CURVE",
"123 668 LINE",
"213 30 LINE SMOOTH",
"216 10 OFFCURVE",
"225 0 OFFCURVE",
"238 0 CURVE SMOOTH"
);
}
);
width = 653;
},
{
anchors = (
{
name = bottom;
position = "{276, 0}";
},
{
name = top;
position = "{437, 700}";
}
);
layerId = "E33CDA44-370B-4890-B9EA-9A4809AB9281";
paths = (
{
closed = 1;
nodes = (
"310 0 LINE SMOOTH",
"331 0 OFFCURVE",
"349 13 OFFCURVE",
"365 40 CURVE SMOOTH",
"744 668 LINE SMOOTH",
"749 675 OFFCURVE",
"751 681 OFFCURVE",
"751 686 CURVE SMOOTH",
"751 695 OFFCURVE",
"743 700 OFFCURVE",
"728 700 CURVE SMOOTH",
"641 700 LINE SMOOTH",
"619 700 OFFCURVE",
"601 689 OFFCURVE",
"588 667 CURVE SMOOTH",
"344 259 LINE SMOOTH",
"333 240 OFFCURVE",
"326 227 OFFCURVE",
"322 218 CURVE SMOOTH",
"309 182 LINE",
"307 182 LINE",
"310 196 OFFCURVE",
"311 208 OFFCURVE",
"311 218 CURVE SMOOTH",
"311 227 OFFCURVE",
"309 241 OFFCURVE",
"307 259 CURVE SMOOTH",
"252 667 LINE SMOOTH",
"249 689 OFFCURVE",
"237 700 OFFCURVE",
"215 700 CURVE SMOOTH",
"147 700 LINE SMOOTH",
"127 700 OFFCURVE",
"116 691 OFFCURVE",
"116 675 CURVE SMOOTH",
"116 672 OFFCURVE",
"117 670 OFFCURVE",
"117 668 CURVE SMOOTH",
"205 40 LINE SMOOTH",
"209 13 OFFCURVE",
"219 0 OFFCURVE",
"242 0 CURVE SMOOTH"
);
}
);
width = 669;
}
);
unicode = 0056;
},
{
color = 4;
glyphname = W;
layers = (
{
anchors = (
{
name = bottom;
position = "{402, 0}";
},
{
name = top;
position = "{563, 700}";
}
);
layerId = UUID0;
paths = (
{
closed = 1;
nodes = (
"234 0 LINE SMOOTH",
"250 0 OFFCURVE",
"265 14 OFFCURVE",
"278 41 CURVE SMOOTH",
"499 509 LINE SMOOTH",
"510 533 OFFCURVE",
"518 551 OFFCURVE",
"523 564 CURVE SMOOTH",
"542 615 LINE",
"542 592 OFFCURVE",
"542 575 OFFCURVE",
"541 566 CURVE",
"541 509 LINE",
"553 41 LINE SMOOTH",
"554 14 OFFCURVE",
"563 0 OFFCURVE",
"579 0 CURVE SMOOTH",
"640 0 LINE SMOOTH",
"656 0 OFFCURVE",
"673 13 OFFCURVE",
"685 38 CURVE SMOOTH",
"994 671 LINE SMOOTH",
"998 679 OFFCURVE",
"1000 685 OFFCURVE",
"1000 690 CURVE SMOOTH",
"1000 697 OFFCURVE",
"996 700 OFFCURVE",
"988 700 CURVE SMOOTH",
"923 700 LINE SMOOTH",
"912 700 OFFCURVE",
"904 693 OFFCURVE",
"897 678 CURVE SMOOTH",
"685 208 LINE SMOOTH",
"671 178 OFFCURVE",
"662 158 OFFCURVE",
"657 149 CURVE SMOOTH",
"626 84 LINE",
"624 84 LINE",
"624 208 LINE",
"616 674 LINE SMOOTH",
"616 691 OFFCURVE",
"605 700 OFFCURVE",
"590 700 CURVE SMOOTH",
"524 700 LINE SMOOTH",
"509 700 OFFCURVE",
"496 691 OFFCURVE",
"487 674 CURVE",
"257 174 LINE",
"218 84 LINE",
"216 84 LINE",
"216 143 OFFCURVE",
"217 147 OFFCURVE",
"217 184 CURVE SMOOTH",
"217 191 OFFCURVE",
"217 199 OFFCURVE",
"217 208 CURVE SMOOTH",
"206 678 LINE SMOOTH",
"206 693 OFFCURVE",
"201 700 OFFCURVE",
"190 700 CURVE SMOOTH",
"138 700 LINE SMOOTH",
"123 700 OFFCURVE",
"119 690 OFFCURVE",
"119 671 CURVE",
"146 38 LINE",
"146 13 OFFCURVE",
"156 0 OFFCURVE",
"173 0 CURVE SMOOTH"
);
}
);
width = 922;
},
{
anchors = (
{
name = bottom;
position = "{435, 0}";
},
{
name = top;
position = "{596, 700}";
}
);
layerId = "E33CDA44-370B-4890-B9EA-9A4809AB9281";
paths = (
{
closed = 1;
nodes = (
"261 0 LINE SMOOTH",
"280 0 OFFCURVE",
"297 16 OFFCURVE",
"313 47 CURVE SMOOTH",
"525 456 LINE SMOOTH",
"557 517 OFFCURVE",
"547 502 OFFCURVE",
"559 537 CURVE",
"560 537 LINE",
"556 508 OFFCURVE",
"554 501 OFFCURVE",
"554 494 CURVE SMOOTH",
"555 487 OFFCURVE",
"555 474 OFFCURVE",
"556 456 CURVE SMOOTH",
"579 47 LINE SMOOTH",
"581 16 OFFCURVE",
"589 0 OFFCURVE",
"609 0 CURVE SMOOTH",
"695 0 LINE SMOOTH",
"716 0 OFFCURVE",
"735 16 OFFCURVE",
"751 47 CURVE SMOOTH",
"1060 661 LINE SMOOTH",
"1065 670 OFFCURVE",
"1067 677 OFFCURVE",
"1067 684 CURVE SMOOTH",
"1067 695 OFFCURVE",
"1060 700 OFFCURVE",
"1046 700 CURVE SMOOTH",
"948 700 LINE SMOOTH",
"933 700 OFFCURVE",
"920 689 OFFCURVE",
"910 668 CURVE SMOOTH",
"705 232 LINE SMOOTH",
"700 221 OFFCURVE",
"693 202 OFFCURVE",
"685 177 CURVE",
"683 177 LINE",
"689 229 LINE",
"690 232 OFFCURVE",
"690 239 OFFCURVE",
"690 248 CURVE SMOOTH",
"690 263 OFFCURVE",
"690 276 OFFCURVE",
"689 287 CURVE SMOOTH",
"667 664 LINE",
"665 688 OFFCURVE",
"655 700 OFFCURVE",
"634 700 CURVE SMOOTH",
"544 700 LINE SMOOTH",
"523 700 OFFCURVE",
"507 688 OFFCURVE",
"495 664 CURVE SMOOTH",
"299 287 LINE",
"287 262 OFFCURVE",
"275 242 OFFCURVE",
"271 229 CURVE SMOOTH",
"255 177 LINE",
"252 177 LINE",
"256 200 OFFCURVE",
"258 217 OFFCURVE",
"258 226 CURVE SMOOTH",
"254 668 LINE",
"253 689 OFFCURVE",
"245 700 OFFCURVE",
"230 700 CURVE SMOOTH",
"147 700 LINE SMOOTH",
"125 700 OFFCURVE",
"116 687 OFFCURVE",
"116 661 CURVE",
"140 47 LINE SMOOTH",
"141 16 OFFCURVE",
"155 0 OFFCURVE",
"175 0 CURVE SMOOTH"
);
}
);
width = 987;
}
);
unicode = 0057;
},
{
color = 4;
glyphname = X;
layers = (
{
anchors = (
{
name = bottom;
position = "{258, 0}";
},
{
name = top;
position = "{439, 700}";
}
);
layerId = UUID0;
paths = (
{
closed = 1;
nodes = (
"80 0 LINE SMOOTH",
"94 0 OFFCURVE",
"107 6 OFFCURVE",
"119 19 CURVE SMOOTH",
"361 296 LINE",
"485 19 LINE SMOOTH",
"491 6 OFFCURVE",
"501 0 OFFCURVE",
"515 0 CURVE SMOOTH",
"566 0 LINE SMOOTH",
"581 0 OFFCURVE",
"588 5 OFFCURVE",
"588 15 CURVE SMOOTH",
"588 18 OFFCURVE",
"586 24 OFFCURVE",
"583 32 CURVE",
"423 355 LINE",
"712 668 LINE SMOOTH",
"721 677 OFFCURVE",
"726 685 OFFCURVE",
"726 691 CURVE SMOOTH",
"726 697 OFFCURVE",
"721 700 OFFCURVE",
"710 700 CURVE SMOOTH",
"643 700 LINE SMOOTH",
"629 700 OFFCURVE",
"615 694 OFFCURVE",
"604 681 CURVE SMOOTH",
"382 426 LINE",
"267 681 LINE SMOOTH",
"261 694 OFFCURVE",
"251 700 OFFCURVE",
"237 700 CURVE SMOOTH",
"189 700 LINE SMOOTH",
"175 700 OFFCURVE",
"168 695 OFFCURVE",
"168 685 CURVE SMOOTH",
"168 682 OFFCURVE",
"170 676 OFFCURVE",
"173 668 CURVE",
"319 367 LINE",
"8 32 LINE SMOOTH",
"-2 22 OFFCURVE",
"-7 14 OFFCURVE",
"-7 8 CURVE SMOOTH",
"-7 3 OFFCURVE",
"-2 0 OFFCURVE",
"9 0 CURVE SMOOTH"
);
}
);
width = 634;
},
{
anchors = (
{
name = bottom;
position = "{281, 0}";
},
{
name = top;
position = "{442, 700}";
}
);
layerId = "E33CDA44-370B-4890-B9EA-9A4809AB9281";
paths = (
{
closed = 1;
nodes = (
"110 0 LINE SMOOTH",
"129 0 OFFCURVE",
"146 10 OFFCURVE",
"161 29 CURVE SMOOTH",
"346 258 LINE",
"444 29 LINE SMOOTH",
"452 10 OFFCURVE",
"464 0 OFFCURVE",
"481 0 CURVE SMOOTH",
"568 0 LINE SMOOTH",
"591 0 OFFCURVE",
"603 7 OFFCURVE",
"603 21 CURVE SMOOTH",
"603 27 OFFCURVE",
"601 34 OFFCURVE",
"597 42 CURVE SMOOTH",
"438 353 LINE",
"721 658 LINE SMOOTH",
"732 670 OFFCURVE",
"738 680 OFFCURVE",
"738 687 CURVE SMOOTH",
"738 696 OFFCURVE",
"729 700 OFFCURVE",
"712 700 CURVE SMOOTH",
"598 700 LINE SMOOTH",
"580 700 OFFCURVE",
"563 690 OFFCURVE",
"547 671 CURVE SMOOTH",
"382 468 LINE",
"296 671 LINE SMOOTH",
"288 690 OFFCURVE",
"276 700 OFFCURVE",
"259 700 CURVE SMOOTH",
"173 700 LINE SMOOTH",
"150 700 OFFCURVE",
"139 693 OFFCURVE",
"139 680 CURVE SMOOTH",
"139 673 OFFCURVE",
"141 666 OFFCURVE",
"145 658 CURVE SMOOTH",
"290 373 LINE",
"-15 42 LINE SMOOTH",
"-26 30 OFFCURVE",
"-32 20 OFFCURVE",
"-32 13 CURVE SMOOTH",
"-32 4 OFFCURVE",
"-23 0 OFFCURVE",
"-6 0 CURVE SMOOTH"
);
}
);
width = 680;
}
);
unicode = 0058;
},
{
color = 4;
glyphname = Y;
layers = (
{
anchors = (
{
name = bottom;
position = "{259, 0}";
},
{
name = top;
position = "{430, 700}";
},
{
name = topleft;
position = "{122, 700}";
}
);
layerId = UUID0;
paths = (
{
closed = 1;
nodes = (
"295 0 LINE SMOOTH",
"310 0 OFFCURVE",
"322 9 OFFCURVE",
"326 27 CURVE SMOOTH",
"386 288 LINE",
"718 668 LINE SMOOTH",
"726 677 OFFCURVE",
"731 684 OFFCURVE",
"731 690 CURVE SMOOTH",
"731 697 OFFCURVE",
"725 700 OFFCURVE",
"712 700 CURVE SMOOTH",
"651 700 LINE SMOOTH",
"638 700 OFFCURVE",
"624 692 OFFCURVE",
"611 676 CURVE SMOOTH",
"413 434 LINE",
"386 401 LINE SMOOTH",
"366 377 OFFCURVE",
"355 357 OFFCURVE",
"346 346 CURVE",
"344 346 LINE",
"332 395 OFFCURVE",
"315 440 OFFCURVE",
"307 463 CURVE SMOOTH",
"231 676 LINE SMOOTH",
"225 692 OFFCURVE",
"216 700 OFFCURVE",
"201 700 CURVE SMOOTH",
"156 700 LINE SMOOTH",
"139 700 OFFCURVE",
"131 694 OFFCURVE",
"131 683 CURVE SMOOTH",
"131 678 OFFCURVE",
"132 673 OFFCURVE",
"135 668 CURVE",
"292 288 LINE",
"232 27 LINE SMOOTH",
"231 24 OFFCURVE",
"231 21 OFFCURVE",
"231 17 CURVE SMOOTH",
"231 6 OFFCURVE",
"237 0 OFFCURVE",
"250 0 CURVE SMOOTH"
);
}
);
width = 636;
},
{
anchors = (
{
name = bottom;
position = "{275, 0}";
},
{
name = top;
position = "{436, 700}";
},
{
name = topleft;
position = "{122, 700}";
}
);
layerId = "E33CDA44-370B-4890-B9EA-9A4809AB9281";
paths = (
{
closed = 1;
nodes = (
"313 0 LINE SMOOTH",
"336 0 OFFCURVE",
"349 9 OFFCURVE",
"353 27 CURVE SMOOTH",
"406 256 LINE",
"736 658 LINE SMOOTH",
"746 670 OFFCURVE",
"751 679 OFFCURVE",
"751 686 CURVE SMOOTH",
"751 695 OFFCURVE",
"742 700 OFFCURVE",
"723 700 CURVE SMOOTH",
"623 700 LINE SMOOTH",
"606 700 OFFCURVE",
"588 689 OFFCURVE",
"570 667 CURVE SMOOTH",
"380 428 LINE",
"365 407 OFFCURVE",
"354 386 OFFCURVE",
"349 365 CURVE",
"347 365 LINE",
"347 392 OFFCURVE",
"344 414 OFFCURVE",
"338 432 CURVE SMOOTH",
"259 667 LINE SMOOTH",
"251 689 OFFCURVE",
"238 700 OFFCURVE",
"222 700 CURVE SMOOTH",
"151 700 LINE SMOOTH",
"126 700 OFFCURVE",
"114 692 OFFCURVE",
"114 676 CURVE SMOOTH",
"114 673 OFFCURVE",
"115 667 OFFCURVE",
"118 658 CURVE SMOOTH",
"263 256 LINE",
"210 27 LINE SMOOTH",
"209 24 OFFCURVE",
"209 21 OFFCURVE",
"209 19 CURVE SMOOTH",
"209 6 OFFCURVE",
"218 0 OFFCURVE",
"238 0 CURVE SMOOTH"
);
}
);
width = 668;
}
);
unicode = 0059;
},
{
color = 4;
glyphname = Z;
layers = (
{
anchors = (
{
name = bottom;
position = "{238, 0}";
},
{
name = top;
position = "{399, 700}";
}
);
layerId = UUID0;
paths = (
{
closed = 1;
nodes = (
"481 0 LINE SMOOTH",
"500 0 OFFCURVE",
"510 7 OFFCURVE",
"513 22 CURVE SMOOTH",
"521 58 LINE SMOOTH",
"522 61 OFFCURVE",
"522 63 OFFCURVE",
"522 65 CURVE SMOOTH",
"522 75 OFFCURVE",
"515 80 OFFCURVE",
"500 80 CURVE SMOOTH",
"168 80 LINE SMOOTH",
"148 80 OFFCURVE",
"135 80 OFFCURVE",
"128 79 CURVE",
"634 633 LINE SMOOTH",
"643 643 OFFCURVE",
"648 653 OFFCURVE",
"651 663 CURVE SMOOTH",
"654 678 LINE SMOOTH",
"655 681 OFFCURVE",
"655 683 OFFCURVE",
"655 685 CURVE SMOOTH",
"655 695 OFFCURVE",
"647 700 OFFCURVE",
"632 700 CURVE SMOOTH",
"182 700 LINE SMOOTH",
"165 700 OFFCURVE",
"153 693 OFFCURVE",
"150 678 CURVE SMOOTH",
"142 642 LINE SMOOTH",
"141 640 OFFCURVE",
"141 638 OFFCURVE",
"141 636 CURVE SMOOTH",
"141 625 OFFCURVE",
"149 620 OFFCURVE",
"164 620 CURVE SMOOTH",
"507 621 LINE",
"13 89 LINE SMOOTH",
"0 75 OFFCURVE",
"-9 61 OFFCURVE",
"-12 45 CURVE SMOOTH",
"-17 22 LINE SMOOTH",
"-18 19 OFFCURVE",
"-18 17 OFFCURVE",
"-18 15 CURVE SMOOTH",
"-18 5 OFFCURVE",
"-11 0 OFFCURVE",
"5 0 CURVE SMOOTH"
);
}
);
width = 594;
},
{
anchors = (
{
name = bottom;
position = "{247, 0}";
},
{
name = top;
position = "{408, 700}";
}
);
layerId = "E33CDA44-370B-4890-B9EA-9A4809AB9281";
paths = (
{
closed = 1;
nodes = (
"486 0 LINE SMOOTH",
"510 0 OFFCURVE",
"525 11 OFFCURVE",
"530 32 CURVE SMOOTH",
"543 89 LINE SMOOTH",
"544 92 OFFCURVE",
"544 95 OFFCURVE",
"544 99 CURVE SMOOTH",
"544 114 OFFCURVE",
"534 121 OFFCURVE",
"514 121 CURVE SMOOTH",
"252 121 LINE SMOOTH",
"239 121 OFFCURVE",
"220 120 OFFCURVE",
"193 119 CURVE",
"194 122 LINE",
"627 584 LINE SMOOTH",
"642 600 OFFCURVE",
"651 617 OFFCURVE",
"656 636 CURVE SMOOTH",
"664 668 LINE SMOOTH",
"665 670 OFFCURVE",
"665 673 OFFCURVE",
"665 677 CURVE SMOOTH",
"665 692 OFFCURVE",
"655 700 OFFCURVE",
"634 700 CURVE SMOOTH",
"189 700 LINE SMOOTH",
"165 700 OFFCURVE",
"150 689 OFFCURVE",
"145 668 CURVE SMOOTH",
"132 611 LINE SMOOTH",
"131 608 OFFCURVE",
"131 605 OFFCURVE",
"131 601 CURVE SMOOTH",
"131 586 OFFCURVE",
"141 579 OFFCURVE",
"161 579 CURVE SMOOTH",
"378 579 LINE SMOOTH",
"397 579 OFFCURVE",
"417 580 OFFCURVE",
"438 582 CURVE",
"437 578 LINE",
"28 142 LINE SMOOTH",
"6 118 OFFCURVE",
"-7 95 OFFCURVE",
"-12 72 CURVE SMOOTH",
"-21 32 LINE SMOOTH",
"-22 29 OFFCURVE",
"-22 26 OFFCURVE",
"-22 22 CURVE SMOOTH",
"-22 7 OFFCURVE",
"-12 0 OFFCURVE",
"8 0 CURVE SMOOTH"
);
}
);
width = 611;
}
);
unicode = 005A;
},
{
color = 10;
export = 0;
glyphname = Ccedillaacute;
layers = (
{
layerId = UUID0;
paths = (
{
closed = 1;
nodes = (
"333 -203 OFFCURVE",
"387 -167 OFFCURVE",
"387 -113 CURVE SMOOTH",
"387 -75 OFFCURVE",
"377 -59 OFFCURVE",
"332 -48 CURVE",
"358 -15 LINE",
"487 -13 OFFCURVE",
"569 38 OFFCURVE",
"622 116 CURVE SMOOTH",
"629 127 OFFCURVE",
"633 136 OFFCURVE",
"633 142 CURVE SMOOTH",
"633 148 OFFCURVE",
"631 152 OFFCURVE",
"626 155 CURVE SMOOTH",
"582 184 LINE SMOOTH",
"579 186 OFFCURVE",
"576 187 OFFCURVE",
"572 187 CURVE SMOOTH",
"542 187 OFFCURVE",
"490 62 OFFCURVE",
"360 62 CURVE SMOOTH",
"208 62 OFFCURVE",
"154 155 OFFCURVE",
"154 272 CURVE SMOOTH",
"154 528 OFFCURVE",
"278 639 OFFCURVE",
"435 639 CURVE SMOOTH",
"556 639 OFFCURVE",
"595 537 OFFCURVE",
"611 537 CURVE SMOOTH",
"613 537 OFFCURVE",
"615 538 OFFCURVE",
"618 539 CURVE SMOOTH",
"656 562 LINE",
"666 567 OFFCURVE",
"671 575 OFFCURVE",
"671 584 CURVE SMOOTH",
"671 590 OFFCURVE",
"670 596 OFFCURVE",
"667 601 CURVE",
"636 672 OFFCURVE",
"559 715 OFFCURVE",
"443 715 CURVE SMOOTH",
"200 715 OFFCURVE",
"54 541 OFFCURVE",
"54 283 CURVE SMOOTH",
"54 128 OFFCURVE",
"132 6 OFFCURVE",
"298 -12 CURVE",
"264 -53 LINE",
"261 -59 OFFCURVE",
"255 -72 OFFCURVE",
"255 -85 CURVE SMOOTH",
"255 -90 OFFCURVE",
"258 -92 OFFCURVE",
"264 -92 CURVE SMOOTH",
"278 -92 LINE SMOOTH",
"309 -92 OFFCURVE",
"326 -104 OFFCURVE",
"326 -120 CURVE SMOOTH",
"326 -141 OFFCURVE",
"304 -154 OFFCURVE",
"272 -154 CURVE SMOOTH",
"242 -154 OFFCURVE",
"228 -146 OFFCURVE",
"222 -146 CURVE SMOOTH",
"216 -146 OFFCURVE",
"213 -150 OFFCURVE",
"211 -157 CURVE SMOOTH",
"204 -175 LINE SMOOTH",
"203 -178 OFFCURVE",
"203 -180 OFFCURVE",
"203 -182 CURVE SMOOTH",
"203 -199 OFFCURVE",
"245 -203 OFFCURVE",
"271 -203 CURVE SMOOTH"
);
},
{
closed = 1;
nodes = (
"476 752 LINE SMOOTH",
"489 752 OFFCURVE",
"503 757 OFFCURVE",
"518 766 CURVE",
"626 846 LINE SMOOTH",
"637 854 OFFCURVE",
"642 861 OFFCURVE",
"642 865 CURVE SMOOTH",
"642 870 OFFCURVE",
"635 872 OFFCURVE",
"622 872 CURVE SMOOTH",
"540 872 LINE SMOOTH",
"524 872 OFFCURVE",
"510 866 OFFCURVE",
"498 854 CURVE SMOOTH",
"422 778 LINE SMOOTH",
"413 769 OFFCURVE",
"409 763 OFFCURVE",
"409 759 CURVE SMOOTH",
"409 754 OFFCURVE",
"414 752 OFFCURVE",
"424 752 CURVE SMOOTH"
);
}
);
width = 680;
},
{
layerId = "E33CDA44-370B-4890-B9EA-9A4809AB9281";
paths = (
{
closed = 1;
nodes = (
"336 -205 OFFCURVE",
"393 -161 OFFCURVE",
"393 -104 CURVE SMOOTH",
"393 -72 OFFCURVE",
"373 -52 OFFCURVE",
"333 -44 CURVE",
"352 -17 LINE",
"359 -17 LINE SMOOTH",
"486 -17 OFFCURVE",
"582 34 OFFCURVE",
"632 108 CURVE SMOOTH",
"638 117 OFFCURVE",
"641 125 OFFCURVE",
"641 132 CURVE SMOOTH",
"641 142 OFFCURVE",
"635 150 OFFCURVE",
"624 156 CURVE SMOOTH",
"562 190 LINE SMOOTH",
"558 192 OFFCURVE",
"554 193 OFFCURVE",
"549 193 CURVE SMOOTH",
"538 193 OFFCURVE",
"525 184 OFFCURVE",
"513 167 CURVE SMOOTH",
"483 126 OFFCURVE",
"435 99 OFFCURVE",
"370 99 CURVE SMOOTH",
"243 99 OFFCURVE",
"201 173 OFFCURVE",
"201 269 CURVE SMOOTH",
"201 460 OFFCURVE",
"288 602 OFFCURVE",
"425 602 CURVE SMOOTH",
"470 602 OFFCURVE",
"527 578 OFFCURVE",
"558 537 CURVE SMOOTH",
"569 522 OFFCURVE",
"579 515 OFFCURVE",
"590 515 CURVE SMOOTH",
"596 515 OFFCURVE",
"601 517 OFFCURVE",
"605 520 CURVE SMOOTH",
"666 560 LINE SMOOTH",
"677 567 OFFCURVE",
"682 575 OFFCURVE",
"682 586 CURVE SMOOTH",
"682 653 OFFCURVE",
"556 717 OFFCURVE",
"436 717 CURVE SMOOTH",
"182 717 OFFCURVE",
"49 510 OFFCURVE",
"49 287 CURVE SMOOTH",
"49 109 OFFCURVE",
"135 13 OFFCURVE",
"283 -11 CURVE",
"261 -40 LINE SMOOTH",
"252 -52 OFFCURVE",
"244 -68 OFFCURVE",
"244 -84 CURVE SMOOTH",
"244 -92 OFFCURVE",
"249 -96 OFFCURVE",
"258 -96 CURVE SMOOTH",
"268 -96 LINE SMOOTH",
"305 -96 OFFCURVE",
"317 -104 OFFCURVE",
"317 -119 CURVE SMOOTH",
"317 -135 OFFCURVE",
"295 -148 OFFCURVE",
"270 -148 CURVE SMOOTH",
"252 -148 OFFCURVE",
"236 -140 OFFCURVE",
"219 -140 CURVE SMOOTH",
"212 -140 OFFCURVE",
"207 -143 OFFCURVE",
"204 -150 CURVE SMOOTH",
"195 -174 LINE SMOOTH",
"194 -177 OFFCURVE",
"193 -180 OFFCURVE",
"193 -183 CURVE SMOOTH",
"193 -202 OFFCURVE",
"254 -205 OFFCURVE",
"262 -205 CURVE SMOOTH"
);
},
{
closed = 1;
nodes = (
"447 752 LINE SMOOTH",
"473 752 OFFCURVE",
"491 758 OFFCURVE",
"505 771 CURVE SMOOTH",
"581 842 LINE SMOOTH",
"590 851 OFFCURVE",
"595 858 OFFCURVE",
"595 863 CURVE SMOOTH",
"595 869 OFFCURVE",
"589 872 OFFCURVE",
"576 872 CURVE SMOOTH",
"490 872 LINE SMOOTH",
"463 872 OFFCURVE",
"442 864 OFFCURVE",
"431 849 CURVE SMOOTH",
"382 783 LINE SMOOTH",
"375 774 OFFCURVE",
"371 766 OFFCURVE",
"371 761 CURVE SMOOTH",
"371 755 OFFCURVE",
"376 752 OFFCURVE",
"387 752 CURVE SMOOTH"
);
}
);
width = 686;
}
);
unicode = 1E08;
},
{
color = 10;
export = 0;
glyphname = Dcedilla;
layers = (
{
layerId = UUID0;
paths = (
{
closed = 1;
nodes = (
"276 -203 OFFCURVE",
"330 -167 OFFCURVE",
"330 -113 CURVE SMOOTH",
"330 -75 OFFCURVE",
"320 -59 OFFCURVE",
"275 -48 CURVE",
"313 0 LINE",
"315 3 LINE",
"563 25 OFFCURVE",
"676 216 OFFCURVE",
"676 414 CURVE SMOOTH",
"676 563 OFFCURVE",
"606 700 OFFCURVE",
"367 700 CURVE SMOOTH",
"211 700 LINE SMOOTH",
"194 700 OFFCURVE",
"184 691 OFFCURVE",
"180 673 CURVE SMOOTH",
"31 27 LINE SMOOTH",
"30 24 OFFCURVE",
"30 21 OFFCURVE",
"30 17 CURVE SMOOTH",
"30 6 OFFCURVE",
"36 0 OFFCURVE",
"49 0 CURVE SMOOTH",
"251 0 LINE",
"207 -53 LINE",
"204 -59 OFFCURVE",
"198 -72 OFFCURVE",
"198 -85 CURVE SMOOTH",
"198 -90 OFFCURVE",
"201 -92 OFFCURVE",
"207 -92 CURVE SMOOTH",
"221 -92 LINE SMOOTH",
"252 -92 OFFCURVE",
"269 -104 OFFCURVE",
"269 -120 CURVE SMOOTH",
"269 -141 OFFCURVE",
"247 -154 OFFCURVE",
"215 -154 CURVE SMOOTH",
"185 -154 OFFCURVE",
"171 -146 OFFCURVE",
"165 -146 CURVE SMOOTH",
"159 -146 OFFCURVE",
"156 -150 OFFCURVE",
"154 -157 CURVE SMOOTH",
"147 -175 LINE SMOOTH",
"146 -178 OFFCURVE",
"146 -180 OFFCURVE",
"146 -182 CURVE SMOOTH",
"146 -199 OFFCURVE",
"188 -203 OFFCURVE",
"214 -203 CURVE SMOOTH"
);
},
{
closed = 1;
nodes = (
"262 621 LINE",
"344 621 LINE SMOOTH",
"446 621 OFFCURVE",
"509 602 OFFCURVE",
"536 563 CURVE SMOOTH",
"563 524 OFFCURVE",
"576 476 OFFCURVE",
"576 420 CURVE SMOOTH",
"576 243 OFFCURVE",
"483 80 OFFCURVE",
"268 80 CURVE SMOOTH",
"137 80 LINE"
);
}
);
width = 687;
},
{
layerId = "E33CDA44-370B-4890-B9EA-9A4809AB9281";
paths = (
{
closed = 1;
nodes = (
"294 -205 OFFCURVE",
"351 -161 OFFCURVE",
"351 -104 CURVE SMOOTH",
"351 -72 OFFCURVE",
"331 -52 OFFCURVE",
"291 -44 CURVE",
"323 0 LINE",
"324 3 OFFCURVE",
"325 4 OFFCURVE",
"325 5 CURVE",
"575 32 OFFCURVE",
"688 202 OFFCURVE",
"688 406 CURVE SMOOTH",
"688 581 OFFCURVE",
"599 700 OFFCURVE",
"361 700 CURVE SMOOTH",
"215 700 LINE SMOOTH",
"191 700 OFFCURVE",
"178 688 OFFCURVE",
"173 664 CURVE SMOOTH",
"28 37 LINE SMOOTH",
"27 30 OFFCURVE",
"26 26 OFFCURVE",
"26 23 CURVE SMOOTH",
"26 8 OFFCURVE",
"35 0 OFFCURVE",
"54 0 CURVE SMOOTH",
"249 0 LINE",
"219 -40 LINE SMOOTH",
"210 -52 OFFCURVE",
"202 -68 OFFCURVE",
"202 -84 CURVE SMOOTH",
"202 -92 OFFCURVE",
"207 -96 OFFCURVE",
"216 -96 CURVE SMOOTH",
"226 -96 LINE SMOOTH",
"263 -96 OFFCURVE",
"275 -104 OFFCURVE",
"275 -119 CURVE SMOOTH",
"275 -135 OFFCURVE",
"253 -148 OFFCURVE",
"228 -148 CURVE SMOOTH",
"210 -148 OFFCURVE",
"194 -140 OFFCURVE",
"177 -140 CURVE SMOOTH",
"170 -140 OFFCURVE",
"165 -143 OFFCURVE",
"162 -150 CURVE SMOOTH",
"153 -174 LINE SMOOTH",
"152 -177 OFFCURVE",
"151 -180 OFFCURVE",
"151 -183 CURVE SMOOTH",
"151 -202 OFFCURVE",
"212 -205 OFFCURVE",
"220 -205 CURVE SMOOTH"
);
},
{
closed = 1;
nodes = (
"296 580 LINE",
"334 580 LINE SMOOTH",
"513 580 OFFCURVE",
"536 510 OFFCURVE",
"536 416 CURVE SMOOTH",
"536 232 OFFCURVE",
"454 121 OFFCURVE",
"257 121 CURVE SMOOTH",
"190 121 LINE"
);
}
);
width = 685;
}
);
unicode = 1E10;
},
{
color = 10;
export = 0;
glyphname = Eopen;
layers = (
{
layerId = UUID0;
paths = (
{
closed = 1;
nodes = (
"368 -15 OFFCURVE",
"503 54 OFFCURVE",
"503 90 CURVE SMOOTH",
"503 95 OFFCURVE",
"502 98 OFFCURVE",
"499 101 CURVE SMOOTH",
"472 136 LINE SMOOTH",
"468 141 OFFCURVE",
"463 144 OFFCURVE",
"457 144 CURVE SMOOTH",
"437 144 OFFCURVE",
"366 62 OFFCURVE",
"270 62 CURVE SMOOTH",
"193 62 OFFCURVE",
"142 79 OFFCURVE",
"142 167 CURVE SMOOTH",
"142 252 OFFCURVE",
"233 330 OFFCURVE",
"323 330 CURVE SMOOTH",
"378 330 LINE SMOOTH",
"392 330 OFFCURVE",
"403 337 OFFCURVE",
"406 351 CURVE SMOOTH",
"414 385 LINE SMOOTH",
"414 387 OFFCURVE",
"415 390 OFFCURVE",
"415 392 CURVE SMOOTH",
"415 402 OFFCURVE",
"408 407 OFFCURVE",
"396 407 CURVE SMOOTH",
"344 407 LINE SMOOTH",
"250 407 OFFCURVE",
"235 465 OFFCURVE",
"235 508 CURVE SMOOTH",
"235 597 OFFCURVE",
"307 639 OFFCURVE",
"369 639 CURVE SMOOTH",
"434 639 OFFCURVE",
"472 624 OFFCURVE",
"507 585 CURVE SMOOTH",
"516 575 OFFCURVE",
"524 570 OFFCURVE",
"531 570 CURVE SMOOTH",
"534 570 OFFCURVE",
"538 572 OFFCURVE",
"541 575 CURVE SMOOTH",
"575 605 LINE SMOOTH",
"580 610 OFFCURVE",
"583 615 OFFCURVE",
"583 620 CURVE SMOOTH",
"583 650 OFFCURVE",
"513 691 OFFCURVE",
"479 701 CURVE SMOOTH",
"448 710 OFFCURVE",
"413 715 OFFCURVE",
"376 715 CURVE SMOOTH",
"225 715 OFFCURVE",
"140 602 OFFCURVE",
"140 516 CURVE SMOOTH",
"140 447 OFFCURVE",
"156 408 OFFCURVE",
"230 375 CURVE",
"230 373 LINE",
"173 361 OFFCURVE",
"128 335 OFFCURVE",
"93 294 CURVE SMOOTH",
"59 253 OFFCURVE",
"42 205 OFFCURVE",
"42 149 CURVE SMOOTH",
"42 37 OFFCURVE",
"143 -15 OFFCURVE",
"253 -15 CURVE SMOOTH"
);
}
);
width = 583;
},
{
layerId = "E33CDA44-370B-4890-B9EA-9A4809AB9281";
paths = (
{
closed = 1;
nodes = (
"379 -17 OFFCURVE",
"457 10 OFFCURVE",
"527 63 CURVE SMOOTH",
"538 72 OFFCURVE",
"545 79 OFFCURVE",
"545 90 CURVE SMOOTH",
"545 96 OFFCURVE",
"542 103 OFFCURVE",
"537 110 CURVE SMOOTH",
"500 160 LINE SMOOTH",
"495 167 OFFCURVE",
"488 171 OFFCURVE",
"480 171 CURVE SMOOTH",
"459 171 OFFCURVE",
"403 129 OFFCURVE",
"381 117 CURVE SMOOTH",
"360 105 OFFCURVE",
"334 99 OFFCURVE",
"302 99 CURVE SMOOTH",
"258 99 OFFCURVE",
"186 100 OFFCURVE",
"186 177 CURVE SMOOTH",
"186 257 OFFCURVE",
"272 311 OFFCURVE",
"334 311 CURVE SMOOTH",
"393 311 LINE SMOOTH",
"414 311 OFFCURVE",
"426 321 OFFCURVE",
"431 341 CURVE SMOOTH",
"443 394 LINE SMOOTH",
"444 397 OFFCURVE",
"444 400 OFFCURVE",
"444 405 CURVE SMOOTH",
"444 419 OFFCURVE",
"436 426 OFFCURVE",
"419 426 CURVE SMOOTH",
"354 426 LINE SMOOTH",
"283 426 OFFCURVE",
"270 467 OFFCURVE",
"270 495 CURVE SMOOTH",
"270 550 OFFCURVE",
"319 602 OFFCURVE",
"375 602 CURVE SMOOTH",
"437 602 OFFCURVE",
"469 590 OFFCURVE",
"503 561 CURVE SMOOTH",
"516 550 OFFCURVE",
"528 544 OFFCURVE",
"539 544 CURVE SMOOTH",
"546 544 OFFCURVE",
"552 546 OFFCURVE",
"557 551 CURVE SMOOTH",
"599 591 LINE",
"608 598 OFFCURVE",
"612 606 OFFCURVE",
"612 614 CURVE SMOOTH",
"612 648 OFFCURVE",
"533 692 OFFCURVE",
"499 702 CURVE SMOOTH",
"465 712 OFFCURVE",
"427 717 OFFCURVE",
"385 717 CURVE SMOOTH",
"256 717 OFFCURVE",
"133 611 OFFCURVE",
"133 491 CURVE SMOOTH",
"133 425 OFFCURVE",
"191 384 OFFCURVE",
"230 375 CURVE",
"230 373 LINE",
"172 360 OFFCURVE",
"125 335 OFFCURVE",
"90 296 CURVE SMOOTH",
"55 259 OFFCURVE",
"38 211 OFFCURVE",
"38 154 CURVE SMOOTH",
"38 55 OFFCURVE",
"124 -17 OFFCURVE",
"289 -17 CURVE SMOOTH"
);
}
);
width = 612;
}
);
unicode = 0190;
},
{
color = 10;
export = 0;
glyphname = Fhook;
layers = (
{
layerId = UUID0;
paths = (
{
closed = 1;
nodes = (
"22 -204 OFFCURVE",
"91 -155 OFFCURVE",
"126 -4 CURVE SMOOTH",
"199 309 LINE",
"485 309 LINE SMOOTH",
"504 309 OFFCURVE",
"514 316 OFFCURVE",
"517 331 CURVE SMOOTH",
"525 367 LINE SMOOTH",
"526 369 OFFCURVE",
"526 371 OFFCURVE",
"526 373 CURVE SMOOTH",
"526 383 OFFCURVE",
"518 389 OFFCURVE",
"504 389 CURVE SMOOTH",
"217 389 LINE",
"271 620 LINE",
"599 620 LINE SMOOTH",
"618 620 OFFCURVE",
"627 627 OFFCURVE",
"631 642 CURVE SMOOTH",
"640 678 LINE SMOOTH",
"640 680 OFFCURVE",
"640 682 OFFCURVE",
"640 684 CURVE SMOOTH",
"640 695 OFFCURVE",
"633 700 OFFCURVE",
"618 700 CURVE SMOOTH",
"220 700 LINE SMOOTH",
"203 700 OFFCURVE",
"193 691 OFFCURVE",
"189 673 CURVE SMOOTH",
"38 19 LINE SMOOTH",
"8 -109 OFFCURVE",
"-32 -127 OFFCURVE",
"-76 -127 CURVE SMOOTH",
"-96 -127 OFFCURVE",
"-122 -109 OFFCURVE",
"-144 -109 CURVE SMOOTH",
"-152 -109 OFFCURVE",
"-158 -113 OFFCURVE",
"-162 -122 CURVE SMOOTH",
"-176 -156 LINE SMOOTH",
"-178 -161 OFFCURVE",
"-179 -166 OFFCURVE",
"-179 -169 CURVE SMOOTH",
"-179 -195 OFFCURVE",
"-112 -204 OFFCURVE",
"-85 -204 CURVE SMOOTH"
);
}
);
width = 569;
},
{
layerId = "E33CDA44-370B-4890-B9EA-9A4809AB9281";
paths = (
{
closed = 1;
nodes = (
"54 -205 OFFCURVE",
"130 -136 OFFCURVE",
"166 17 CURVE SMOOTH",
"229 288 LINE",
"466 288 LINE SMOOTH",
"490 288 OFFCURVE",
"505 299 OFFCURVE",
"510 320 CURVE SMOOTH",
"523 377 LINE SMOOTH",
"524 380 OFFCURVE",
"524 383 OFFCURVE",
"524 387 CURVE SMOOTH",
"524 402 OFFCURVE",
"514 409 OFFCURVE",
"494 409 CURVE SMOOTH",
"256 409 LINE",
"296 579 LINE",
"574 579 LINE SMOOTH",
"598 579 OFFCURVE",
"613 590 OFFCURVE",
"618 611 CURVE SMOOTH",
"631 668 LINE SMOOTH",
"632 671 OFFCURVE",
"632 674 OFFCURVE",
"632 678 CURVE SMOOTH",
"632 693 OFFCURVE",
"622 700 OFFCURVE",
"602 700 CURVE SMOOTH",
"215 700 LINE SMOOTH",
"191 700 OFFCURVE",
"178 688 OFFCURVE",
"173 664 CURVE SMOOTH",
"30 44 LINE SMOOTH",
"6 -58 OFFCURVE",
"-21 -90 OFFCURVE",
"-73 -90 CURVE SMOOTH",
"-92 -90 OFFCURVE",
"-115 -79 OFFCURVE",
"-130 -79 CURVE SMOOTH",
"-142 -79 OFFCURVE",
"-147 -86 OFFCURVE",
"-152 -101 CURVE SMOOTH",
"-171 -156 LINE SMOOTH",
"-173 -162 OFFCURVE",
"-174 -167 OFFCURVE",
"-174 -171 CURVE SMOOTH",
"-174 -199 OFFCURVE",
"-108 -205 OFFCURVE",
"-71 -205 CURVE SMOOTH"
);
}
);
width = 574;
}
);
unicode = 0191;
},
{
color = 10;
export = 0;
glyphname = Gammaafrican;
layers = (
{
layerId = UUID0;
paths = (
{
closed = 1;
nodes = (
"369 -15 OFFCURVE",
"431 48 OFFCURVE",
"431 128 CURVE SMOOTH",
"431 159 OFFCURVE",
"413 204 OFFCURVE",
"376 262 CURVE",
"707 668 LINE SMOOTH",
"714 676 OFFCURVE",
"718 683 OFFCURVE",
"718 690 CURVE SMOOTH",
"718 697 OFFCURVE",
"712 700 OFFCURVE",
"701 700 CURVE SMOOTH",
"640 700 LINE SMOOTH",
"625 700 OFFCURVE",
"612 692 OFFCURVE",
"600 676 CURVE SMOOTH",
"420 438 LINE SMOOTH",
"407 421 OFFCURVE",
"391 401 OFFCURVE",
"375 377 CURVE SMOOTH",
"336 320 LINE",
"334 320 LINE",
"319 378 LINE",
"232 676 LINE SMOOTH",
"227 692 OFFCURVE",
"218 700 OFFCURVE",
"203 700 CURVE SMOOTH",
"154 700 LINE SMOOTH",
"138 700 OFFCURVE",
"130 694 OFFCURVE",
"130 682 CURVE SMOOTH",
"130 678 OFFCURVE",
"131 673 OFFCURVE",
"133 668 CURVE SMOOTH",
"273 270 LINE",
"206 209 OFFCURVE",
"149 136 OFFCURVE",
"149 89 CURVE SMOOTH",
"149 12 OFFCURVE",
"204 -15 OFFCURVE",
"274 -15 CURVE SMOOTH"
);
},
{
closed = 1;
nodes = (
"255 62 OFFCURVE",
"243 71 OFFCURVE",
"243 99 CURVE SMOOTH",
"243 129 OFFCURVE",
"274 177 OFFCURVE",
"312 207 CURVE",
"313 207 LINE",
"331 173 OFFCURVE",
"337 154 OFFCURVE",
"337 125 CURVE SMOOTH",
"337 98 OFFCURVE",
"317 62 OFFCURVE",
"284 62 CURVE SMOOTH"
);
}
);
width = 626;
},
{
layerId = "E33CDA44-370B-4890-B9EA-9A4809AB9281";
paths = (
{
closed = 1;
nodes = (
"405 -17 OFFCURVE",
"470 64 OFFCURVE",
"470 133 CURVE SMOOTH",
"470 174 OFFCURVE",
"450 211 OFFCURVE",
"413 258 CURVE",
"727 658 LINE SMOOTH",
"736 669 OFFCURVE",
"741 678 OFFCURVE",
"741 685 CURVE SMOOTH",
"741 695 OFFCURVE",
"732 700 OFFCURVE",
"713 700 CURVE SMOOTH",
"618 700 LINE SMOOTH",
"602 700 OFFCURVE",
"582 689 OFFCURVE",
"565 667 CURVE SMOOTH",
"481 555 OFFCURVE",
"434 492 OFFCURVE",
"422 476 CURVE SMOOTH",
"381 422 LINE SMOOTH",
"367 403 OFFCURVE",
"354 382 OFFCURVE",
"346 355 CURVE",
"344 355 LINE",
"344 390 OFFCURVE",
"337 417 OFFCURVE",
"325 454 CURVE",
"264 667 LINE SMOOTH",
"258 689 OFFCURVE",
"244 700 OFFCURVE",
"227 700 CURVE SMOOTH",
"151 700 LINE SMOOTH",
"126 700 OFFCURVE",
"114 692 OFFCURVE",
"114 677 CURVE SMOOTH",
"114 672 OFFCURVE",
"115 667 OFFCURVE",
"117 662 CURVE SMOOTH",
"246 265 LINE",
"187 229 OFFCURVE",
"129 165 OFFCURVE",
"129 100 CURVE SMOOTH",
"129 31 OFFCURVE",
"175 -17 OFFCURVE",
"275 -17 CURVE SMOOTH"
);
},
{
closed = 1;
nodes = (
"272 96 OFFCURVE",
"263 105 OFFCURVE",
"263 124 CURVE SMOOTH",
"263 139 OFFCURVE",
"282 171 OFFCURVE",
"314 192 CURVE",
"316 192 LINE",
"329 175 OFFCURVE",
"336 159 OFFCURVE",
"336 143 CURVE SMOOTH",
"336 118 OFFCURVE",
"315 96 OFFCURVE",
"290 96 CURVE SMOOTH"
);
}
);
width = 658;
}
);
unicode = 0194;
},
{
color = 10;
export = 0;
glyphname = Iotaafrican;
layers = (
{
layerId = UUID0;
paths = (
{
closed = 1;
nodes = (
"254 -15 OFFCURVE",
"351 11 OFFCURVE",
"351 41 CURVE SMOOTH",
"351 45 OFFCURVE",
"350 48 OFFCURVE",
"349 50 CURVE SMOOTH",
"335 78 LINE SMOOTH",
"332 85 OFFCURVE",
"326 89 OFFCURVE",
"319 89 CURVE SMOOTH",
"315 89 OFFCURVE",
"309 87 OFFCURVE",
"301 84 CURVE SMOOTH",
"270 69 OFFCURVE",
"244 62 OFFCURVE",
"224 62 CURVE SMOOTH",
"190 62 OFFCURVE",
"173 80 OFFCURVE",
"173 116 CURVE SMOOTH",
"173 128 OFFCURVE",
"174 140 OFFCURVE",
"177 151 CURVE SMOOTH",
"296 673 LINE SMOOTH",
"297 678 OFFCURVE",
"298 682 OFFCURVE",
"298 683 CURVE SMOOTH",
"298 694 OFFCURVE",
"291 700 OFFCURVE",
"278 700 CURVE SMOOTH",
"233 700 LINE SMOOTH",
"217 700 OFFCURVE",
"207 691 OFFCURVE",
"203 673 CURVE SMOOTH",
"91 189 LINE SMOOTH",
"85 162 OFFCURVE",
"82 138 OFFCURVE",
"82 115 CURVE SMOOTH",
"82 30 OFFCURVE",
"128 -15 OFFCURVE",
"213 -15 CURVE SMOOTH"
);
}
);
width = 398;
},
{
layerId = "E33CDA44-370B-4890-B9EA-9A4809AB9281";
paths = (
{
closed = 1;
nodes = (
"285 -17 OFFCURVE",
"391 0 OFFCURVE",
"391 37 CURVE SMOOTH",
"391 38 OFFCURVE",
"390 42 OFFCURVE",
"389 47 CURVE SMOOTH",
"374 102 LINE SMOOTH",
"371 113 OFFCURVE",
"364 118 OFFCURVE",
"353 118 CURVE SMOOTH",
"346 118 OFFCURVE",
"340 117 OFFCURVE",
"334 114 CURVE SMOOTH",
"309 104 OFFCURVE",
"285 99 OFFCURVE",
"263 99 CURVE SMOOTH",
"225 99 OFFCURVE",
"206 121 OFFCURVE",
"206 164 CURVE",
"205 181 OFFCURVE",
"208 200 OFFCURVE",
"213 219 CURVE",
"315 664 LINE SMOOTH",
"316 671 OFFCURVE",
"317 675 OFFCURVE",
"317 678 CURVE SMOOTH",
"317 693 OFFCURVE",
"308 700 OFFCURVE",
"290 700 CURVE SMOOTH",
"215 700 LINE SMOOTH",
"191 700 OFFCURVE",
"178 688 OFFCURVE",
"173 664 CURVE SMOOTH",
"78 253 LINE SMOOTH",
"70 219 OFFCURVE",
"66 188 OFFCURVE",
"66 161 CURVE SMOOTH",
"66 49 OFFCURVE",
"128 -17 OFFCURVE",
"236 -17 CURVE SMOOTH"
);
}
);
width = 458;
}
);
unicode = 0196;
},
{
color = 10;
export = 0;
glyphname = Istroke;
layers = (
{
layerId = UUID0;
paths = (
{
closed = 1;
nodes = (
"140 0 LINE SMOOTH",
"157 0 OFFCURVE",
"167 9 OFFCURVE",
"171 27 CURVE SMOOTH",
"237 314 LINE",
"311 314 LINE SMOOTH",
"328 314 OFFCURVE",
"338 321 OFFCURVE",
"342 336 CURVE SMOOTH",
"351 373 LINE SMOOTH",
"351 375 OFFCURVE",
"352 377 OFFCURVE",
"352 379 CURVE SMOOTH",
"352 390 OFFCURVE",
"344 395 OFFCURVE",
"329 395 CURVE SMOOTH",
"256 395 LINE",
"320 673 LINE SMOOTH",
"321 676 OFFCURVE",
"321 679 OFFCURVE",
"321 683 CURVE SMOOTH",
"321 694 OFFCURVE",
"315 700 OFFCURVE",
"302 700 CURVE SMOOTH",
"257 700 LINE SMOOTH",
"240 700 OFFCURVE",
"230 691 OFFCURVE",
"226 673 CURVE SMOOTH",
"162 395 LINE",
"89 395 LINE SMOOTH",
"70 395 OFFCURVE",
"60 388 OFFCURVE",
"57 373 CURVE SMOOTH",
"48 336 LINE SMOOTH",
"47 334 OFFCURVE",
"47 332 OFFCURVE",
"47 330 CURVE SMOOTH",
"47 319 OFFCURVE",
"55 314 OFFCURVE",
"70 314 CURVE SMOOTH",
"144 314 LINE",
"77 27 LINE SMOOTH",
"76 24 OFFCURVE",
"76 21 OFFCURVE",
"76 17 CURVE SMOOTH",
"76 6 OFFCURVE",
"82 0 OFFCURVE",
"95 0 CURVE SMOOTH"
);
}
);
width = 343;
},
{
layerId = "E33CDA44-370B-4890-B9EA-9A4809AB9281";
paths = (
{
closed = 1;
nodes = (
"174 0 LINE SMOOTH",
"197 0 OFFCURVE",
"210 12 OFFCURVE",
"216 37 CURVE SMOOTH",
"278 304 LINE",
"343 304 LINE SMOOTH",
"368 304 OFFCURVE",
"382 314 OFFCURVE",
"387 335 CURVE SMOOTH",
"400 393 LINE SMOOTH",
"401 396 OFFCURVE",
"401 399 OFFCURVE",
"401 403 CURVE SMOOTH",
"401 418 OFFCURVE",
"391 425 OFFCURVE",
"371 425 CURVE SMOOTH",
"306 425 LINE",
"361 664 LINE SMOOTH",
"362 671 OFFCURVE",
"363 675 OFFCURVE",
"363 677 CURVE SMOOTH",
"363 692 OFFCURVE",
"354 700 OFFCURVE",
"335 700 CURVE SMOOTH",
"261 700 LINE SMOOTH",
"237 700 OFFCURVE",
"224 688 OFFCURVE",
"219 664 CURVE SMOOTH",
"164 425 LINE",
"99 425 LINE SMOOTH",
"75 425 OFFCURVE",
"60 414 OFFCURVE",
"55 393 CURVE SMOOTH",
"42 335 LINE SMOOTH",
"41 332 OFFCURVE",
"41 329 OFFCURVE",
"41 325 CURVE SMOOTH",
"41 311 OFFCURVE",
"51 304 OFFCURVE",
"71 304 CURVE SMOOTH",
"136 304 LINE",
"74 37 LINE SMOOTH",
"73 30 OFFCURVE",
"72 26 OFFCURVE",
"72 23 CURVE SMOOTH",
"72 8 OFFCURVE",
"81 0 OFFCURVE",
"100 0 CURVE SMOOTH"
);
}
);
width = 391;
}
);
unicode = 0197;
},
{
color = 10;
export = 0;
glyphname = Mhook;
layers = (
{
layerId = UUID0;
paths = (
{
closed = 1;
nodes = (
"592 -204 OFFCURVE",
"663 -155 OFFCURVE",
"698 -4 CURVE SMOOTH",
"854 673 LINE SMOOTH",
"855 676 OFFCURVE",
"855 679 OFFCURVE",
"855 683 CURVE SMOOTH",
"855 694 OFFCURVE",
"849 700 OFFCURVE",
"836 700 CURVE SMOOTH",
"726 700 LINE SMOOTH",
"714 700 OFFCURVE",
"701 690 OFFCURVE",
"691 671 CURVE SMOOTH",
"451 233 LINE SMOOTH",
"423 182 OFFCURVE",
"399 137 OFFCURVE",
"384 101 CURVE",
"381 101 LINE",
"380 136 OFFCURVE",
"380 180 OFFCURVE",
"375 233 CURVE SMOOTH",
"336 671 LINE SMOOTH",
"334 690 OFFCURVE",
"327 700 OFFCURVE",
"315 700 CURVE SMOOTH",
"217 700 LINE SMOOTH",
"200 700 OFFCURVE",
"190 691 OFFCURVE",
"186 673 CURVE SMOOTH",
"37 27 LINE SMOOTH",
"36 24 OFFCURVE",
"36 21 OFFCURVE",
"36 17 CURVE SMOOTH",
"36 6 OFFCURVE",
"42 0 OFFCURVE",
"55 0 CURVE SMOOTH",
"100 0 LINE SMOOTH",
"115 0 OFFCURVE",
"127 9 OFFCURVE",
"131 27 CURVE SMOOTH",
"257 578 LINE",
"259 578 LINE",
"313 30 LINE",
"314 10 OFFCURVE",
"323 0 OFFCURVE",
"338 0 CURVE SMOOTH",
"392 0 LINE SMOOTH",
"405 0 OFFCURVE",
"420 10 OFFCURVE",
"431 30 CURVE SMOOTH",
"737 578 LINE",
"739 578 LINE",
"609 19 LINE",
"583 -100 OFFCURVE",
"542 -127 OFFCURVE",
"495 -127 CURVE SMOOTH",
"475 -127 OFFCURVE",
"449 -109 OFFCURVE",
"427 -109 CURVE SMOOTH",
"418 -109 OFFCURVE",
"413 -113 OFFCURVE",
"410 -122 CURVE SMOOTH",
"396 -156 LINE SMOOTH",
"394 -161 OFFCURVE",
"393 -166 OFFCURVE",
"393 -169 CURVE SMOOTH",
"393 -195 OFFCURVE",
"461 -204 OFFCURVE",
"486 -204 CURVE SMOOTH"
);
}
);
width = 834;
},
{
layerId = "E33CDA44-370B-4890-B9EA-9A4809AB9281";
paths = (
{
closed = 1;
nodes = (
"646 -205 OFFCURVE",
"725 -135 OFFCURVE",
"760 17 CURVE SMOOTH",
"909 664 LINE SMOOTH",
"910 671 OFFCURVE",
"911 675 OFFCURVE",
"911 677 CURVE SMOOTH",
"911 692 OFFCURVE",
"902 700 OFFCURVE",
"883 700 CURVE SMOOTH",
"735 700 LINE SMOOTH",
"716 700 OFFCURVE",
"700 687 OFFCURVE",
"686 661 CURVE SMOOTH",
"454 233 LINE",
"422 171 OFFCURVE",
"427 181 OFFCURVE",
"416 145 CURVE",
"413 145 LINE",
"417 186 LINE",
"417 203 OFFCURVE",
"416 219 OFFCURVE",
"415 233 CURVE SMOOTH",
"382 661 LINE SMOOTH",
"380 687 OFFCURVE",
"369 700 OFFCURVE",
"350 700 CURVE SMOOTH",
"215 700 LINE SMOOTH",
"191 700 OFFCURVE",
"178 688 OFFCURVE",
"173 664 CURVE SMOOTH",
"28 37 LINE SMOOTH",
"27 30 OFFCURVE",
"26 26 OFFCURVE",
"26 23 CURVE SMOOTH",
"26 8 OFFCURVE",
"35 0 OFFCURVE",
"54 0 CURVE SMOOTH",
"128 0 LINE SMOOTH",
"152 0 OFFCURVE",
"164 12 OFFCURVE",
"170 37 CURVE SMOOTH",
"264 440 LINE",
"275 499 LINE",
"278 499 LINE",
"313 40 LINE SMOOTH",
"315 13 OFFCURVE",
"326 0 OFFCURVE",
"346 0 CURVE SMOOTH",
"429 0 LINE SMOOTH",
"449 0 OFFCURVE",
"465 13 OFFCURVE",
"480 40 CURVE SMOOTH",
"728 499 LINE",
"731 499 LINE",
"715 440 LINE",
"624 44 LINE",
"596 -68 OFFCURVE",
"568 -90 OFFCURVE",
"521 -90 CURVE SMOOTH",
"502 -90 OFFCURVE",
"480 -79 OFFCURVE",
"464 -79 CURVE SMOOTH",
"453 -79 OFFCURVE",
"446 -86 OFFCURVE",
"441 -101 CURVE SMOOTH",
"422 -156 LINE SMOOTH",
"421 -159 OFFCURVE",
"420 -164 OFFCURVE",
"420 -170 CURVE SMOOTH",
"420 -199 OFFCURVE",
"483 -205 OFFCURVE",
"523 -205 CURVE SMOOTH"
);
}
);
width = 893;
}
);
unicode = 2C6E;
},
{
color = 10;
export = 0;
glyphname = Oopen;
layers = (
{
layerId = UUID0;
paths = (
{
closed = 1;
nodes = (
"540 -15 OFFCURVE",
"682 162 OFFCURVE",
"682 417 CURVE SMOOTH",
"682 588 OFFCURVE",
"586 715 OFFCURVE",
"389 715 CURVE SMOOTH",
"246 715 OFFCURVE",
"162 656 OFFCURVE",
"114 584 CURVE SMOOTH",
"107 573 OFFCURVE",
"103 564 OFFCURVE",
"103 558 CURVE SMOOTH",
"103 552 OFFCURVE",
"105 548 OFFCURVE",
"110 545 CURVE SMOOTH",
"154 517 LINE SMOOTH",
"157 515 OFFCURVE",
"160 514 OFFCURVE",
"164 514 CURVE SMOOTH",
"183 514 OFFCURVE",
"222 574 OFFCURVE",
"263 604 CURVE SMOOTH",
"294 627 OFFCURVE",
"331 639 OFFCURVE",
"376 639 CURVE SMOOTH",
"528 639 OFFCURVE",
"582 543 OFFCURVE",
"582 428 CURVE SMOOTH",
"582 171 OFFCURVE",
"458 62 OFFCURVE",
"301 62 CURVE SMOOTH",
"211 62 OFFCURVE",
"164 111 OFFCURVE",
"143 147 CURVE SMOOTH",
"137 158 OFFCURVE",
"131 163 OFFCURVE",
"125 163 CURVE SMOOTH",
"122 163 OFFCURVE",
"119 162 OFFCURVE",
"118 161 CURVE SMOOTH",
"80 139 LINE SMOOTH",
"69 133 OFFCURVE",
"64 125 OFFCURVE",
"64 116 CURVE SMOOTH",
"64 113 OFFCURVE",
"65 108 OFFCURVE",
"68 100 CURVE SMOOTH",
"100 28 OFFCURVE",
"177 -15 OFFCURVE",
"292 -15 CURVE SMOOTH"
);
}
);
width = 680;
},
{
layerId = "E33CDA44-370B-4890-B9EA-9A4809AB9281";
paths = (
{
closed = 1;
nodes = (
"548 -17 OFFCURVE",
"682 191 OFFCURVE",
"682 413 CURVE SMOOTH",
"682 617 OFFCURVE",
"567 717 OFFCURVE",
"371 717 CURVE SMOOTH",
"244 717 OFFCURVE",
"148 665 OFFCURVE",
"98 592 CURVE SMOOTH",
"92 583 OFFCURVE",
"89 576 OFFCURVE",
"89 569 CURVE SMOOTH",
"89 560 OFFCURVE",
"95 551 OFFCURVE",
"107 544 CURVE SMOOTH",
"169 510 LINE SMOOTH",
"173 508 OFFCURVE",
"177 507 OFFCURVE",
"181 507 CURVE SMOOTH",
"192 507 OFFCURVE",
"205 516 OFFCURVE",
"218 533 CURVE SMOOTH",
"247 574 OFFCURVE",
"296 602 OFFCURVE",
"361 602 CURVE SMOOTH",
"482 602 OFFCURVE",
"529 530 OFFCURVE",
"529 432 CURVE SMOOTH",
"529 241 OFFCURVE",
"445 99 OFFCURVE",
"305 99 CURVE SMOOTH",
"258 99 OFFCURVE",
"205 119 OFFCURVE",
"172 163 CURVE SMOOTH",
"161 178 OFFCURVE",
"150 186 OFFCURVE",
"140 186 CURVE SMOOTH",
"135 186 OFFCURVE",
"130 184 OFFCURVE",
"125 181 CURVE SMOOTH",
"65 140 LINE SMOOTH",
"54 133 OFFCURVE",
"48 124 OFFCURVE",
"48 114 CURVE SMOOTH",
"48 80 OFFCURVE",
"100 36 OFFCURVE",
"146 14 CURVE SMOOTH",
"189 -7 OFFCURVE",
"238 -17 OFFCURVE",
"295 -17 CURVE SMOOTH"
);
}
);
width = 686;
}
);
unicode = 0186;
},
{
color = 10;
export = 0;
glyphname = Ubar;
layers = (
{
layerId = UUID0;
paths = (
{
closed = 1;
nodes = (
"499 -15 OFFCURVE",
"602 57 OFFCURVE",
"651 267 CURVE SMOOTH",
"662 314 LINE",
"735 314 LINE SMOOTH",
"753 314 OFFCURVE",
"764 321 OFFCURVE",
"767 336 CURVE SMOOTH",
"775 373 LINE SMOOTH",
"776 376 OFFCURVE",
"776 378 OFFCURVE",
"776 380 CURVE SMOOTH",
"776 390 OFFCURVE",
"769 395 OFFCURVE",
"754 395 CURVE SMOOTH",
"680 395 LINE",
"745 673 LINE SMOOTH",
"746 676 OFFCURVE",
"746 679 OFFCURVE",
"746 683 CURVE SMOOTH",
"746 694 OFFCURVE",
"740 700 OFFCURVE",
"727 700 CURVE SMOOTH",
"682 700 LINE SMOOTH",
"665 700 OFFCURVE",
"655 691 OFFCURVE",
"651 673 CURVE SMOOTH",
"586 395 LINE",
"255 395 LINE",
"320 673 LINE SMOOTH",
"321 676 OFFCURVE",
"321 679 OFFCURVE",
"321 683 CURVE SMOOTH",
"321 694 OFFCURVE",
"315 700 OFFCURVE",
"302 700 CURVE SMOOTH",
"257 700 LINE SMOOTH",
"240 700 OFFCURVE",
"230 691 OFFCURVE",
"226 673 CURVE SMOOTH",
"162 395 LINE",
"89 395 LINE SMOOTH",
"71 395 OFFCURVE",
"60 388 OFFCURVE",
"57 373 CURVE SMOOTH",
"48 336 LINE SMOOTH",
"47 334 OFFCURVE",
"47 332 OFFCURVE",
"47 330 CURVE SMOOTH",
"47 319 OFFCURVE",
"55 314 OFFCURVE",
"70 314 CURVE SMOOTH",
"143 314 LINE",
"132 267 LINE SMOOTH",
"123 231 OFFCURVE",
"120 199 OFFCURVE",
"120 171 CURVE SMOOTH",
"120 36 OFFCURVE",
"228 -15 OFFCURVE",
"327 -15 CURVE SMOOTH"
);
},
{
closed = 1;
nodes = (
"251 62 OFFCURVE",
"213 90 OFFCURVE",
"213 166 CURVE SMOOTH",
"213 198 OFFCURVE",
"218 237 OFFCURVE",
"229 282 CURVE SMOOTH",
"237 314 LINE",
"568 314 LINE",
"561 282 LINE SMOOTH",
"522 102 OFFCURVE",
"443 62 OFFCURVE",
"344 62 CURVE SMOOTH"
);
}
);
width = 768;
},
{
layerId = "E33CDA44-370B-4890-B9EA-9A4809AB9281";
paths = (
{
closed = 1;
nodes = (
"523 -17 OFFCURVE",
"616 50 OFFCURVE",
"671 292 CURVE SMOOTH",
"674 304 LINE",
"739 304 LINE SMOOTH",
"764 304 OFFCURVE",
"778 314 OFFCURVE",
"783 335 CURVE SMOOTH",
"796 393 LINE SMOOTH",
"797 396 OFFCURVE",
"797 399 OFFCURVE",
"797 403 CURVE SMOOTH",
"797 418 OFFCURVE",
"787 425 OFFCURVE",
"767 425 CURVE SMOOTH",
"702 425 LINE",
"759 673 LINE",
"759 676 OFFCURVE",
"760 678 OFFCURVE",
"760 681 CURVE SMOOTH",
"760 694 OFFCURVE",
"750 700 OFFCURVE",
"731 700 CURVE SMOOTH",
"657 700 LINE SMOOTH",
"636 700 OFFCURVE",
"620 691 OFFCURVE",
"616 673 CURVE SMOOTH",
"559 425 LINE",
"306 425 LINE",
"363 673 LINE SMOOTH",
"364 675 OFFCURVE",
"364 678 OFFCURVE",
"364 681 CURVE SMOOTH",
"364 694 OFFCURVE",
"354 700 OFFCURVE",
"335 700 CURVE SMOOTH",
"261 700 LINE SMOOTH",
"238 700 OFFCURVE",
"225 691 OFFCURVE",
"221 673 CURVE SMOOTH",
"164 425 LINE",
"99 425 LINE SMOOTH",
"75 425 OFFCURVE",
"60 414 OFFCURVE",
"55 393 CURVE SMOOTH",
"42 335 LINE SMOOTH",
"41 332 OFFCURVE",
"41 329 OFFCURVE",
"41 325 CURVE SMOOTH",
"41 311 OFFCURVE",
"51 304 OFFCURVE",
"71 304 CURVE SMOOTH",
"136 304 LINE",
"133 292 LINE SMOOTH",
"124 251 OFFCURVE",
"119 215 OFFCURVE",
"119 184 CURVE SMOOTH",
"119 46 OFFCURVE",
"218 -17 OFFCURVE",
"342 -17 CURVE SMOOTH"
);
},
{
closed = 1;
nodes = (
"301 99 OFFCURVE",
"260 117 OFFCURVE",
"260 185 CURVE SMOOTH",
"260 214 OFFCURVE",
"265 251 OFFCURVE",
"276 296 CURVE SMOOTH",
"278 304 LINE",
"531 304 LINE",
"529 296 LINE SMOOTH",
"492 140 OFFCURVE",
"423 99 OFFCURVE",
"357 99 CURVE SMOOTH"
);
}
);
width = 786;
}
);
unicode = 0244;
},
{
color = 10;
export = 0;
glyphname = Vhook;
layers = (
{
layerId = UUID0;
paths = (
{
closed = 1;
nodes = (
"549 -15 OFFCURVE",
"677 209 OFFCURVE",
"677 465 CURVE SMOOTH",
"677 553 OFFCURVE",
"655 630 OFFCURVE",
"610 696 CURVE SMOOTH",
"603 707 OFFCURVE",
"596 712 OFFCURVE",
"587 712 CURVE SMOOTH",
"582 712 OFFCURVE",
"576 710 OFFCURVE",
"571 706 CURVE SMOOTH",
"535 681 LINE SMOOTH",
"526 675 OFFCURVE",
"522 668 OFFCURVE",
"522 661 CURVE SMOOTH",
"522 657 OFFCURVE",
"524 652 OFFCURVE",
"527 647 CURVE SMOOTH",
"564 591 OFFCURVE",
"577 535 OFFCURVE",
"577 430 CURVE SMOOTH",
"577 201 OFFCURVE",
"440 62 OFFCURVE",
"324 62 CURVE SMOOTH",
"259 62 OFFCURVE",
"202 84 OFFCURVE",
"202 168 CURVE",
"201 199 OFFCURVE",
"207 237 OFFCURVE",
"218 282 CURVE SMOOTH",
"308 673 LINE SMOOTH",
"309 678 OFFCURVE",
"310 682 OFFCURVE",
"310 683 CURVE SMOOTH",
"310 694 OFFCURVE",
"303 700 OFFCURVE",
"290 700 CURVE SMOOTH",
"245 700 LINE SMOOTH",
"231 700 OFFCURVE",
"218 691 OFFCURVE",
"214 673 CURVE SMOOTH",
"121 267 LINE SMOOTH",
"112 227 OFFCURVE",
"108 194 OFFCURVE",
"108 168 CURVE SMOOTH",
"108 40 OFFCURVE",
"206 -15 OFFCURVE",
"311 -15 CURVE SMOOTH"
);
}
);
width = 655;
},
{
layerId = "E33CDA44-370B-4890-B9EA-9A4809AB9281";
paths = (
{
closed = 1;
nodes = (
"525 -17 OFFCURVE",
"667 202 OFFCURVE",
"667 462 CURVE SMOOTH",
"667 509 OFFCURVE",
"642 611 OFFCURVE",
"590 687 CURVE SMOOTH",
"579 703 OFFCURVE",
"567 711 OFFCURVE",
"554 711 CURVE SMOOTH",
"547 711 OFFCURVE",
"540 708 OFFCURVE",
"531 703 CURVE",
"466 658 LINE SMOOTH",
"457 651 OFFCURVE",
"453 643 OFFCURVE",
"453 634 CURVE SMOOTH",
"453 611 OFFCURVE",
"514 522 OFFCURVE",
"514 436 CURVE SMOOTH",
"514 284 OFFCURVE",
"428 99 OFFCURVE",
"327 99 CURVE SMOOTH",
"266 99 OFFCURVE",
"216 120 OFFCURVE",
"216 196 CURVE SMOOTH",
"216 221 OFFCURVE",
"220 255 OFFCURVE",
"230 296 CURVE SMOOTH",
"317 673 LINE SMOOTH",
"318 675 OFFCURVE",
"318 678 OFFCURVE",
"318 682 CURVE SMOOTH",
"318 694 OFFCURVE",
"309 700 OFFCURVE",
"290 700 CURVE SMOOTH",
"215 700 LINE SMOOTH",
"192 700 OFFCURVE",
"179 691 OFFCURVE",
"175 673 CURVE SMOOTH",
"87 292 LINE SMOOTH",
"77 251 OFFCURVE",
"73 215 OFFCURVE",
"73 184 CURVE SMOOTH",
"73 44 OFFCURVE",
"175 -17 OFFCURVE",
"311 -17 CURVE SMOOTH"
);
}
);
width = 672;
}
);
unicode = 01B2;
},
{
color = 10;
export = 0;
glyphname = Vturned;
layers = (
{
layerId = UUID0;
paths = (
{
closed = 1;
nodes = (
"52 0 LINE SMOOTH",
"69 0 OFFCURVE",
"83 8 OFFCURVE",
"93 24 CURVE SMOOTH",
"353 461 LINE",
"395 536 LINE SMOOTH",
"411 565 OFFCURVE",
"424 591 OFFCURVE",
"435 616 CURVE",
"437 616 LINE",
"437 576 OFFCURVE",
"439 554 OFFCURVE",
"447 461 CURVE",
"505 24 LINE SMOOTH",
"507 8 OFFCURVE",
"517 0 OFFCURVE",
"535 0 CURVE SMOOTH",
"579 0 LINE SMOOTH",
"593 0 OFFCURVE",
"600 8 OFFCURVE",
"600 23 CURVE",
"509 670 LINE SMOOTH",
"506 690 OFFCURVE",
"498 700 OFFCURVE",
"483 700 CURVE SMOOTH",
"415 700 LINE SMOOTH",
"401 700 OFFCURVE",
"388 690 OFFCURVE",
"376 670 CURVE SMOOTH",
"-9 32 LINE SMOOTH",
"-15 23 OFFCURVE",
"-18 16 OFFCURVE",
"-18 10 CURVE SMOOTH",
"-18 3 OFFCURVE",
"-13 0 OFFCURVE",
"-3 0 CURVE SMOOTH"
);
}
);
width = 653;
},
{
layerId = "E33CDA44-370B-4890-B9EA-9A4809AB9281";
paths = (
{
closed = 1;
nodes = (
"73 0 LINE SMOOTH",
"95 0 OFFCURVE",
"111 11 OFFCURVE",
"125 34 CURVE SMOOTH",
"369 441 LINE",
"384 469 OFFCURVE",
"402 510 OFFCURVE",
"404 518 CURVE",
"406 518 LINE",
"404 502 OFFCURVE",
"403 490 OFFCURVE",
"403 482 CURVE SMOOTH",
"403 475 OFFCURVE",
"403 461 OFFCURVE",
"406 441 CURVE SMOOTH",
"461 34 LINE SMOOTH",
"464 11 OFFCURVE",
"476 0 OFFCURVE",
"499 0 CURVE SMOOTH",
"566 0 LINE SMOOTH",
"587 0 OFFCURVE",
"597 9 OFFCURVE",
"597 25 CURVE SMOOTH",
"597 27 OFFCURVE",
"597 29 OFFCURVE",
"597 32 CURVE SMOOTH",
"508 661 LINE SMOOTH",
"504 687 OFFCURVE",
"493 700 OFFCURVE",
"472 700 CURVE SMOOTH",
"403 700 LINE SMOOTH",
"382 700 OFFCURVE",
"364 687 OFFCURVE",
"348 661 CURVE SMOOTH",
"-30 32 LINE SMOOTH",
"-35 25 OFFCURVE",
"-37 18 OFFCURVE",
"-37 13 CURVE SMOOTH",
"-37 4 OFFCURVE",
"-30 0 OFFCURVE",
"-15 0 CURVE SMOOTH"
);
}
);
width = 669;
}
);
unicode = 0245;
},
{
color = 4;
glyphname = a;
layers = (
{
anchors = (
{
name = bottom;
position = "{210, 0}";
},
{
name = ogonek;
position = "{424, 10}";
},
{
name = top;
position = "{328, 513}";
}
);
layerId = UUID0;
paths = (
{
closed = 1;
nodes = (
"254 -8 OFFCURVE",
"307 36 OFFCURVE",
"341 81 CURVE",
"342 81 LINE",
"330 22 LINE SMOOTH",
"329 19 OFFCURVE",
"329 17 OFFCURVE",
"329 15 CURVE SMOOTH",
"329 5 OFFCURVE",
"335 0 OFFCURVE",
"347 0 CURVE SMOOTH",
"387 0 LINE SMOOTH",
"400 0 OFFCURVE",
"410 7 OFFCURVE",
"414 22 CURVE SMOOTH",
"522 491 LINE",
"522 494 OFFCURVE",
"523 496 OFFCURVE",
"523 498 CURVE SMOOTH",
"523 508 OFFCURVE",
"517 513 OFFCURVE",
"505 513 CURVE SMOOTH",
"464 513 LINE SMOOTH",
"453 513 OFFCURVE",
"445 506 OFFCURVE",
"440 491 CURVE SMOOTH",
"429 460 LINE",
"405 496 OFFCURVE",
"370 521 OFFCURVE",
"314 521 CURVE SMOOTH",
"247 521 OFFCURVE",
"184 484 OFFCURVE",
"123 410 CURVE SMOOTH",
"62 335 OFFCURVE",
"32 254 OFFCURVE",
"32 166 CURVE SMOOTH",
"32 48 OFFCURVE",
"94 -8 OFFCURVE",
"189 -8 CURVE SMOOTH"
);
},
{
closed = 1;
nodes = (
"176 55 OFFCURVE",
"152 67 OFFCURVE",
"140 92 CURVE",
"129 118 OFFCURVE",
"123 141 OFFCURVE",
"123 162 CURVE SMOOTH",
"123 323 OFFCURVE",
"223 458 OFFCURVE",
"312 458 CURVE SMOOTH",
"363 458 OFFCURVE",
"409 435 OFFCURVE",
"409 376 CURVE",
"376 234 LINE SMOOTH",
"358 155 OFFCURVE",
"270 55 OFFCURVE",
"211 55 CURVE SMOOTH"
);
}
);
width = 537;
},
{
anchors = (
{
name = bottom;
position = "{229, 0}";
},
{
name = ogonek;
position = "{458, 10}";
},
{
name = top;
position = "{347, 513}";
}
);
layerId = "E33CDA44-370B-4890-B9EA-9A4809AB9281";
paths = (
{
closed = 1;
nodes = (
"247 -10 OFFCURVE",
"288 18 OFFCURVE",
"329 67 CURVE",
"331 67 LINE",
"324 29 LINE SMOOTH",
"323 26 OFFCURVE",
"323 23 OFFCURVE",
"323 21 CURVE SMOOTH",
"323 7 OFFCURVE",
"331 0 OFFCURVE",
"346 0 CURVE SMOOTH",
"421 0 LINE SMOOTH",
"441 0 OFFCURVE",
"453 10 OFFCURVE",
"457 29 CURVE SMOOTH",
"562 483 LINE SMOOTH",
"563 486 OFFCURVE",
"563 489 OFFCURVE",
"563 493 CURVE SMOOTH",
"563 506 OFFCURVE",
"555 513 OFFCURVE",
"539 513 CURVE SMOOTH",
"464 513 LINE SMOOTH",
"451 513 OFFCURVE",
"442 502 OFFCURVE",
"432 483 CURVE SMOOTH",
"423 466 LINE",
"421 466 LINE",
"393 508 OFFCURVE",
"353 522 OFFCURVE",
"318 522 CURVE SMOOTH",
"245 522 OFFCURVE",
"179 489 OFFCURVE",
"119 422 CURVE SMOOTH",
"60 355 OFFCURVE",
"30 276 OFFCURVE",
"30 185 CURVE SMOOTH",
"30 85 OFFCURVE",
"89 -10 OFFCURVE",
"194 -10 CURVE SMOOTH"
);
},
{
closed = 1;
nodes = (
"221 86 OFFCURVE",
"206 94 OFFCURVE",
"193 110 CURVE SMOOTH",
"181 126 OFFCURVE",
"175 148 OFFCURVE",
"175 176 CURVE SMOOTH",
"175 302 OFFCURVE",
"234 427 OFFCURVE",
"316 427 CURVE SMOOTH",
"371 427 OFFCURVE",
"391 395 OFFCURVE",
"391 332 CURVE",
"373 255 LINE SMOOTH",
"347 146 OFFCURVE",
"294 86 OFFCURVE",
"236 86 CURVE SMOOTH"
);
}
);
width = 575;
}
);
unicode = 0061;
},
{
color = 4;
glyphname = aogonek;
layers = (
{
layerId = UUID0;
paths = (
{
closed = 1;
nodes = (
"317 -204 OFFCURVE",
"368 -206 OFFCURVE",
"368 -186 CURVE",
"365 -148 LINE SMOOTH",
"364 -141 OFFCURVE",
"361 -137 OFFCURVE",
"355 -137 CURVE SMOOTH",
"352 -137 LINE SMOOTH",
"342 -139 OFFCURVE",
"330 -140 OFFCURVE",
"316 -140 CURVE SMOOTH",
"293 -140 OFFCURVE",
"284 -131 OFFCURVE",
"284 -114 CURVE SMOOTH",
"284 -87 OFFCURVE",
"298 -78 OFFCURVE",
"379 -16 CURVE SMOOTH",
"400 0 LINE SMOOTH",
"406 5 OFFCURVE",
"411 12 OFFCURVE",
"414 22 CURVE",
"522 491 LINE",
"522 494 OFFCURVE",
"523 496 OFFCURVE",
"523 498 CURVE SMOOTH",
"523 508 OFFCURVE",
"517 513 OFFCURVE",
"505 513 CURVE SMOOTH",
"464 513 LINE SMOOTH",
"453 513 OFFCURVE",
"445 506 OFFCURVE",
"440 491 CURVE SMOOTH",
"429 460 LINE",
"405 496 OFFCURVE",
"370 521 OFFCURVE",
"314 521 CURVE SMOOTH",
"247 521 OFFCURVE",
"184 484 OFFCURVE",
"123 410 CURVE SMOOTH",
"62 335 OFFCURVE",
"32 254 OFFCURVE",
"32 166 CURVE SMOOTH",
"32 48 OFFCURVE",
"94 -8 OFFCURVE",
"189 -8 CURVE SMOOTH",
"254 -8 OFFCURVE",
"307 36 OFFCURVE",
"341 81 CURVE",
"342 81 LINE",
"330 22 LINE SMOOTH",
"324 -8 OFFCURVE",
"270 -35 OFFCURVE",
"245 -54 CURVE SMOOTH",
"220 -74 OFFCURVE",
"206 -96 OFFCURVE",
"206 -139 CURVE SMOOTH",
"206 -178 OFFCURVE",
"238 -204 OFFCURVE",
"301 -204 CURVE SMOOTH"
);
},
{
closed = 1;
nodes = (
"176 55 OFFCURVE",
"152 67 OFFCURVE",
"140 92 CURVE",
"129 118 OFFCURVE",
"123 141 OFFCURVE",
"123 162 CURVE SMOOTH",
"123 323 OFFCURVE",
"223 458 OFFCURVE",
"312 458 CURVE SMOOTH",
"363 458 OFFCURVE",
"409 435 OFFCURVE",
"409 376 CURVE",
"376 234 LINE SMOOTH",
"358 155 OFFCURVE",
"270 55 OFFCURVE",
"211 55 CURVE SMOOTH"
);
}
);
width = 537;
},
{
layerId = "E33CDA44-370B-4890-B9EA-9A4809AB9281";
paths = (
{
closed = 1;
nodes = (
"367 -205 OFFCURVE",
"414 -209 OFFCURVE",
"413 -180 CURVE SMOOTH",
"411 -124 LINE SMOOTH",
"411 -113 OFFCURVE",
"406 -107 OFFCURVE",
"396 -107 CURVE SMOOTH",
"392 -107 LINE SMOOTH",
"373 -108 OFFCURVE",
"359 -109 OFFCURVE",
"350 -109 CURVE SMOOTH",
"331 -109 OFFCURVE",
"320 -105 OFFCURVE",
"320 -92 CURVE SMOOTH",
"320 -74 OFFCURVE",
"342 -60 OFFCURVE",
"431 -5 CURVE SMOOTH",
"445 3 OFFCURVE",
"453 14 OFFCURVE",
"457 29 CURVE SMOOTH",
"562 483 LINE SMOOTH",
"563 486 OFFCURVE",
"563 489 OFFCURVE",
"563 493 CURVE SMOOTH",
"563 506 OFFCURVE",
"555 513 OFFCURVE",
"539 513 CURVE SMOOTH",
"464 513 LINE SMOOTH",
"451 513 OFFCURVE",
"442 502 OFFCURVE",
"432 483 CURVE SMOOTH",
"423 466 LINE",
"421 466 LINE",
"393 508 OFFCURVE",
"353 522 OFFCURVE",
"318 522 CURVE SMOOTH",
"245 522 OFFCURVE",
"179 489 OFFCURVE",
"119 422 CURVE SMOOTH",
"60 355 OFFCURVE",
"30 276 OFFCURVE",
"30 185 CURVE SMOOTH",
"30 85 OFFCURVE",
"89 -10 OFFCURVE",
"194 -10 CURVE SMOOTH",
"247 -10 OFFCURVE",
"288 18 OFFCURVE",
"329 67 CURVE",
"331 67 LINE",
"324 29 LINE SMOOTH",
"321 12 OFFCURVE",
"314 2 OFFCURVE",
"303 -3 CURVE",
"219 -60 OFFCURVE",
"205 -93 OFFCURVE",
"205 -130 CURVE SMOOTH",
"205 -175 OFFCURVE",
"247 -205 OFFCURVE",
"324 -205 CURVE SMOOTH"
);
},
{
closed = 1;
nodes = (
"221 86 OFFCURVE",
"206 94 OFFCURVE",
"193 110 CURVE SMOOTH",
"181 126 OFFCURVE",
"175 148 OFFCURVE",
"175 176 CURVE SMOOTH",
"175 302 OFFCURVE",
"234 427 OFFCURVE",
"316 427 CURVE SMOOTH",
"371 427 OFFCURVE",
"391 395 OFFCURVE",
"391 332 CURVE",
"373 255 LINE SMOOTH",
"347 146 OFFCURVE",
"294 86 OFFCURVE",
"236 86 CURVE SMOOTH"
);
}
);
width = 575;
}
);
unicode = 0105;
},
{
color = 4;
glyphname = ae;
layers = (
{
layerId = UUID0;
paths = (
{
closed = 1;
nodes = (
"242 -8 OFFCURVE",
"319 31 OFFCURVE",
"377 89 CURVE",
"378 89 LINE",
"406 24 OFFCURVE",
"464 -8 OFFCURVE",
"543 -8 CURVE SMOOTH",
"683 -8 OFFCURVE",
"745 68 OFFCURVE",
"745 88 CURVE SMOOTH",
"745 93 OFFCURVE",
"743 96 OFFCURVE",
"740 99 CURVE SMOOTH",
"713 124 LINE SMOOTH",
"709 127 OFFCURVE",
"706 128 OFFCURVE",
"704 128 CURVE SMOOTH",
"688 128 OFFCURVE",
"686 109 OFFCURVE",
"637 78 CURVE SMOOTH",
"613 63 OFFCURVE",
"587 56 OFFCURVE",
"555 56 CURVE SMOOTH",
"477 56 OFFCURVE",
"444 109 OFFCURVE",
"444 175 CURVE",
"447 195 LINE",
"556 217 LINE SMOOTH",
"709 248 OFFCURVE",
"790 285 OFFCURVE",
"790 380 CURVE SMOOTH",
"790 446 OFFCURVE",
"732 521 OFFCURVE",
"631 521 CURVE SMOOTH",
"534 521 OFFCURVE",
"470 474 OFFCURVE",
"451 451 CURVE",
"450 451 LINE",
"427 500 OFFCURVE",
"380 521 OFFCURVE",
"308 521 CURVE SMOOTH",
"250 521 OFFCURVE",
"170 498 OFFCURVE",
"118 455 CURVE SMOOTH",
"110 449 OFFCURVE",
"106 443 OFFCURVE",
"106 437 CURVE SMOOTH",
"106 434 OFFCURVE",
"108 431 OFFCURVE",
"111 426 CURVE",
"134 399 LINE SMOOTH",
"137 395 OFFCURVE",
"140 393 OFFCURVE",
"145 393 CURVE SMOOTH",
"150 393 OFFCURVE",
"154 395 OFFCURVE",
"159 400 CURVE SMOOTH",
"211 448 OFFCURVE",
"239 458 OFFCURVE",
"300 458 CURVE SMOOTH",
"364 458 OFFCURVE",
"387 428 OFFCURVE",
"387 384 CURVE",
"388 372 OFFCURVE",
"384 359 OFFCURVE",
"381 345 CURVE SMOOTH",
"374 312 LINE",
"244 305 OFFCURVE",
"152 284 OFFCURVE",
"98 249 CURVE SMOOTH",
"44 214 OFFCURVE",
"17 167 OFFCURVE",
"17 107 CURVE SMOOTH",
"17 36 OFFCURVE",
"51 -8 OFFCURVE",
"177 -8 CURVE SMOOTH"
);
},
{
closed = 1;
nodes = (
"129 58 OFFCURVE",
"106 77 OFFCURVE",
"106 118 CURVE SMOOTH",
"106 180 OFFCURVE",
"148 234 OFFCURVE",
"361 248 CURVE",
"356 227 OFFCURVE",
"353 205 OFFCURVE",
"353 182 CURVE SMOOTH",
"353 163 OFFCURVE",
"355 148 OFFCURVE",
"358 136 CURVE",
"311 85 OFFCURVE",
"250 58 OFFCURVE",
"185 58 CURVE SMOOTH"
);
},
{
closed = 1;
nodes = (
"477 401 OFFCURVE",
"546 458 OFFCURVE",
"615 458 CURVE SMOOTH",
"674 458 OFFCURVE",
"704 429 OFFCURVE",
"704 384 CURVE SMOOTH",
"704 356 OFFCURVE",
"693 335 OFFCURVE",
"670 321 CURVE SMOOTH",
"647 307 OFFCURVE",
"604 294 OFFCURVE",
"539 281 CURVE SMOOTH",
"449 263 LINE"
);
}
);
width = 829;
},
{
layerId = "E33CDA44-370B-4890-B9EA-9A4809AB9281";
paths = (
{
closed = 1;
nodes = (
"239 -10 OFFCURVE",
"307 21 OFFCURVE",
"357 82 CURVE",
"358 82 LINE",
"394 15 OFFCURVE",
"476 -10 OFFCURVE",
"557 -10 CURVE SMOOTH",
"654 -10 OFFCURVE",
"771 21 OFFCURVE",
"771 72 CURVE SMOOTH",
"771 77 OFFCURVE",
"768 84 OFFCURVE",
"763 91 CURVE SMOOTH",
"734 129 LINE",
"730 136 OFFCURVE",
"725 139 OFFCURVE",
"718 139 CURVE SMOOTH",
"698 139 OFFCURVE",
"634 86 OFFCURVE",
"566 86 CURVE SMOOTH",
"492 86 OFFCURVE",
"473 130 OFFCURVE",
"473 173 CURVE SMOOTH",
"473 187 LINE",
"573 204 LINE",
"736 235 OFFCURVE",
"833 253 OFFCURVE",
"833 378 CURVE SMOOTH",
"833 449 OFFCURVE",
"764 522 OFFCURVE",
"627 522 CURVE SMOOTH",
"547 522 OFFCURVE",
"500 502 OFFCURVE",
"439 445 CURVE",
"438 445 LINE",
"417 493 OFFCURVE",
"369 522 OFFCURVE",
"313 522 CURVE SMOOTH",
"186 522 OFFCURVE",
"99 472 OFFCURVE",
"99 445 CURVE SMOOTH",
"99 440 OFFCURVE",
"101 434 OFFCURVE",
"105 428 CURVE SMOOTH",
"136 383 LINE SMOOTH",
"139 378 OFFCURVE",
"144 375 OFFCURVE",
"150 375 CURVE SMOOTH",
"163 375 OFFCURVE",
"230 427 OFFCURVE",
"292 427 CURVE SMOOTH",
"334 427 OFFCURVE",
"361 401 OFFCURVE",
"361 364 CURVE SMOOTH",
"361 359 OFFCURVE",
"360 353 OFFCURVE",
"359 345 CURVE",
"354 325 LINE",
"263 321 OFFCURVE",
"183 301 OFFCURVE",
"113 266 CURVE",
"44 230 OFFCURVE",
"9 178 OFFCURVE",
"9 111 CURVE SMOOTH",
"9 31 OFFCURVE",
"61 -10 OFFCURVE",
"153 -10 CURVE SMOOTH"
);
},
{
closed = 1;
nodes = (
"170 86 OFFCURVE",
"154 97 OFFCURVE",
"154 125 CURVE SMOOTH",
"154 174 OFFCURVE",
"221 227 OFFCURVE",
"335 231 CURVE",
"332 214 OFFCURVE",
"331 197 OFFCURVE",
"331 179 CURVE SMOOTH",
"331 164 OFFCURVE",
"332 153 OFFCURVE",
"333 146 CURVE",
"285 109 OFFCURVE",
"235 86 OFFCURVE",
"203 86 CURVE SMOOTH"
);
},
{
closed = 1;
nodes = (
"503 364 OFFCURVE",
"556 427 OFFCURVE",
"629 427 CURVE SMOOTH",
"671 427 OFFCURVE",
"717 404 OFFCURVE",
"717 367 CURVE SMOOTH",
"717 348 OFFCURVE",
"703 332 OFFCURVE",
"675 320 CURVE SMOOTH",
"642 307 OFFCURVE",
"611 300 OFFCURVE",
"584 296 CURVE SMOOTH",
"479 278 LINE"
);
}
);
width = 855;
}
);
unicode = 00E6;
},
{
color = 4;
glyphname = b;
layers = (
{
anchors = (
{
name = bottom;
position = "{214, 0}";
},
{
name = top;
position = "{332, 513}";
}
);
layerId = UUID0;
paths = (
{
closed = 1;
nodes = (
"399 -8 OFFCURVE",
"518 168 OFFCURVE",
"518 328 CURVE SMOOTH",
"518 429 OFFCURVE",
"480 521 OFFCURVE",
"353 521 CURVE SMOOTH",
"298 521 OFFCURVE",
"225 479 OFFCURVE",
"201 432 CURVE",
"200 432 LINE",
"263 699 LINE",
"263 702 OFFCURVE",
"264 704 OFFCURVE",
"264 706 CURVE SMOOTH",
"264 716 OFFCURVE",
"258 721 OFFCURVE",
"246 721 CURVE SMOOTH",
"204 721 LINE SMOOTH",
"189 721 OFFCURVE",
"180 714 OFFCURVE",
"177 699 CURVE SMOOTH",
"21 22 LINE SMOOTH",
"20 20 OFFCURVE",
"20 17 OFFCURVE",
"20 14 CURVE SMOOTH",
"20 5 OFFCURVE",
"26 0 OFFCURVE",
"38 0 CURVE SMOOTH",
"79 0 LINE SMOOTH",
"90 0 OFFCURVE",
"98 7 OFFCURVE",
"103 22 CURVE SMOOTH",
"115 58 LINE",
"146 15 OFFCURVE",
"177 -8 OFFCURVE",
"254 -8 CURVE SMOOTH"
);
},
{
closed = 1;
nodes = (
"213 55 OFFCURVE",
"185 61 OFFCURVE",
"166 74 CURVE SMOOTH",
"149 85 OFFCURVE",
"138 108 OFFCURVE",
"134 142 CURVE",
"166 278 LINE SMOOTH",
"186 362 OFFCURVE",
"266 458 OFFCURVE",
"328 458 CURVE SMOOTH",
"400 458 OFFCURVE",
"427 401 OFFCURVE",
"427 331 CURVE SMOOTH",
"427 185 OFFCURVE",
"346 55 OFFCURVE",
"248 55 CURVE SMOOTH"
);
}
);
width = 546;
},
{
anchors = (
{
name = bottom;
position = "{232, 0}";
},
{
name = top;
position = "{350, 513}";
}
);
layerId = "E33CDA44-370B-4890-B9EA-9A4809AB9281";
paths = (
{
closed = 1;
nodes = (
"427 -10 OFFCURVE",
"551 147 OFFCURVE",
"551 318 CURVE SMOOTH",
"551 421 OFFCURVE",
"504 522 OFFCURVE",
"374 522 CURVE SMOOTH",
"321 522 OFFCURVE",
"292 498 OFFCURVE",
"248 445 CURVE",
"246 445 LINE",
"251 462 OFFCURVE",
"255 475 OFFCURVE",
"257 484 CURVE SMOOTH",
"304 691 LINE SMOOTH",
"305 694 OFFCURVE",
"305 697 OFFCURVE",
"305 702 CURVE SMOOTH",
"305 715 OFFCURVE",
"297 721 OFFCURVE",
"282 721 CURVE SMOOTH",
"204 721 LINE SMOOTH",
"185 721 OFFCURVE",
"171 711 OFFCURVE",
"167 691 CURVE SMOOTH",
"15 29 LINE SMOOTH",
"14 26 OFFCURVE",
"14 23 OFFCURVE",
"14 19 CURVE SMOOTH",
"14 6 OFFCURVE",
"22 0 OFFCURVE",
"37 0 CURVE SMOOTH",
"114 0 LINE SMOOTH",
"130 0 OFFCURVE",
"141 10 OFFCURVE",
"147 29 CURVE SMOOTH",
"153 47 LINE",
"155 47 LINE",
"183 -1 OFFCURVE",
"240 -10 OFFCURVE",
"291 -10 CURVE SMOOTH"
);
},
{
closed = 1;
nodes = (
"235 86 OFFCURVE",
"213 94 OFFCURVE",
"202 110 CURVE SMOOTH",
"191 125 OFFCURVE",
"186 149 OFFCURVE",
"186 181 CURVE",
"204 258 LINE SMOOTH",
"230 369 OFFCURVE",
"293 427 OFFCURVE",
"336 427 CURVE SMOOTH",
"381 427 OFFCURVE",
"407 394 OFFCURVE",
"407 327 CURVE SMOOTH",
"407 207 OFFCURVE",
"357 86 OFFCURVE",
"268 86 CURVE SMOOTH"
);
}
);
width = 582;
}
);
unicode = 0062;
},
{
color = 4;
glyphname = c;
layers = (
{
anchors = (
{
name = bottom;
position = "{192, 0}";
},
{
name = top;
position = "{310, 513}";
}
);
layerId = UUID0;
paths = (
{
closed = 1;
nodes = (
"356 -8 OFFCURVE",
"421 68 OFFCURVE",
"432 85 CURVE SMOOTH",
"435 89 OFFCURVE",
"437 94 OFFCURVE",
"437 99 CURVE SMOOTH",
"437 104 OFFCURVE",
"435 108 OFFCURVE",
"430 112 CURVE SMOOTH",
"399 135 LINE SMOOTH",
"396 138 OFFCURVE",
"392 139 OFFCURVE",
"389 139 CURVE SMOOTH",
"371 139 OFFCURVE",
"338 55 OFFCURVE",
"245 55 CURVE SMOOTH",
"158 55 OFFCURVE",
"124 110 OFFCURVE",
"124 189 CURVE SMOOTH",
"124 367 OFFCURVE",
"217 458 OFFCURVE",
"316 458 CURVE SMOOTH",
"417 458 OFFCURVE",
"415 387 OFFCURVE",
"436 387 CURVE SMOOTH",
"439 387 OFFCURVE",
"442 388 OFFCURVE",
"445 390 CURVE SMOOTH",
"477 407 LINE SMOOTH",
"484 411 OFFCURVE",
"487 416 OFFCURVE",
"487 422 CURVE SMOOTH",
"487 444 OFFCURVE",
"458 476 OFFCURVE",
"435 493 CURVE",
"414 512 OFFCURVE",
"376 521 OFFCURVE",
"322 521 CURVE SMOOTH",
"236 521 OFFCURVE",
"166 488 OFFCURVE",
"113 423 CURVE SMOOTH",
"60 358 OFFCURVE",
"33 282 OFFCURVE",
"33 196 CURVE SMOOTH",
"33 103 OFFCURVE",
"80 -8 OFFCURVE",
"238 -8 CURVE SMOOTH"
);
}
);
width = 501;
},
{
anchors = (
{
name = bottom;
position = "{206, 0}";
},
{
name = top;
position = "{324, 513}";
}
);
layerId = "E33CDA44-370B-4890-B9EA-9A4809AB9281";
paths = (
{
closed = 1;
nodes = (
"384 -10 OFFCURVE",
"459 64 OFFCURVE",
"459 94 CURVE SMOOTH",
"459 101 OFFCURVE",
"456 107 OFFCURVE",
"450 113 CURVE SMOOTH",
"411 149 LINE SMOOTH",
"404 156 OFFCURVE",
"398 159 OFFCURVE",
"391 159 CURVE SMOOTH",
"376 159 OFFCURVE",
"344 116 OFFCURVE",
"324 102 CURVE SMOOTH",
"308 91 OFFCURVE",
"288 86 OFFCURVE",
"262 86 CURVE SMOOTH",
"206 86 OFFCURVE",
"173 122 OFFCURVE",
"173 189 CURVE SMOOTH",
"173 342 OFFCURVE",
"251 427 OFFCURVE",
"324 427 CURVE SMOOTH",
"396 427 OFFCURVE",
"404 367 OFFCURVE",
"429 367 CURVE SMOOTH",
"432 367 OFFCURVE",
"436 368 OFFCURVE",
"441 371 CURVE SMOOTH",
"494 407 LINE SMOOTH",
"503 413 OFFCURVE",
"508 420 OFFCURVE",
"508 427 CURVE SMOOTH",
"508 451 OFFCURVE",
"462 487 OFFCURVE",
"439 500 CURVE SMOOTH",
"413 514 OFFCURVE",
"379 522 OFFCURVE",
"329 522 CURVE SMOOTH",
"238 522 OFFCURVE",
"165 487 OFFCURVE",
"110 418 CURVE SMOOTH",
"55 348 OFFCURVE",
"28 276 OFFCURVE",
"28 201 CURVE SMOOTH",
"28 89 OFFCURVE",
"82 -10 OFFCURVE",
"253 -10 CURVE SMOOTH"
);
}
);
width = 530;
}
);
unicode = 0063;
},
{
color = 4;
glyphname = ccedilla;
layers = (
{
layerId = UUID0;
paths = (
{
closed = 1;
nodes = (
"229 -203 OFFCURVE",
"283 -167 OFFCURVE",
"283 -113 CURVE SMOOTH",
"283 -75 OFFCURVE",
"273 -59 OFFCURVE",
"228 -48 CURVE",
"260 -7 LINE",
"357 -3 OFFCURVE",
"422 70 OFFCURVE",
"432 85 CURVE SMOOTH",
"435 89 OFFCURVE",
"437 94 OFFCURVE",
"437 99 CURVE SMOOTH",
"437 104 OFFCURVE",
"435 108 OFFCURVE",
"430 112 CURVE SMOOTH",
"399 135 LINE SMOOTH",
"396 138 OFFCURVE",
"392 139 OFFCURVE",
"389 139 CURVE SMOOTH",
"371 139 OFFCURVE",
"338 55 OFFCURVE",
"245 55 CURVE SMOOTH",
"158 55 OFFCURVE",
"124 110 OFFCURVE",
"124 189 CURVE SMOOTH",
"124 367 OFFCURVE",
"217 458 OFFCURVE",
"316 458 CURVE SMOOTH",
"417 458 OFFCURVE",
"415 387 OFFCURVE",
"436 387 CURVE SMOOTH",
"439 387 OFFCURVE",
"442 388 OFFCURVE",
"445 390 CURVE SMOOTH",
"477 407 LINE SMOOTH",
"484 411 OFFCURVE",
"487 416 OFFCURVE",
"487 422 CURVE SMOOTH",
"487 444 OFFCURVE",
"458 476 OFFCURVE",
"435 493 CURVE",
"414 512 OFFCURVE",
"376 521 OFFCURVE",
"322 521 CURVE SMOOTH",
"149 521 OFFCURVE",
"33 364 OFFCURVE",
"33 196 CURVE SMOOTH",
"33 111 OFFCURVE",
"78 7 OFFCURVE",
"199 -6 CURVE",
"160 -53 LINE",
"157 -59 OFFCURVE",
"151 -72 OFFCURVE",
"151 -85 CURVE SMOOTH",
"151 -90 OFFCURVE",
"154 -92 OFFCURVE",
"160 -92 CURVE SMOOTH",
"174 -92 LINE SMOOTH",
"205 -92 OFFCURVE",
"222 -104 OFFCURVE",
"222 -120 CURVE SMOOTH",
"222 -141 OFFCURVE",
"200 -154 OFFCURVE",
"168 -154 CURVE SMOOTH",
"138 -154 OFFCURVE",
"124 -146 OFFCURVE",
"118 -146 CURVE SMOOTH",
"112 -146 OFFCURVE",
"109 -150 OFFCURVE",
"107 -157 CURVE SMOOTH",
"100 -175 LINE SMOOTH",
"99 -178 OFFCURVE",
"99 -180 OFFCURVE",
"99 -182 CURVE SMOOTH",
"99 -199 OFFCURVE",
"141 -203 OFFCURVE",
"167 -203 CURVE SMOOTH"
);
}
);
width = 501;
},
{
layerId = "E33CDA44-370B-4890-B9EA-9A4809AB9281";
paths = (
{
closed = 1;
nodes = (
"241 -205 OFFCURVE",
"298 -161 OFFCURVE",
"298 -104 CURVE SMOOTH",
"298 -72 OFFCURVE",
"278 -52 OFFCURVE",
"238 -44 CURVE",
"263 -10 LINE",
"387 -8 OFFCURVE",
"459 66 OFFCURVE",
"459 94 CURVE SMOOTH",
"459 101 OFFCURVE",
"456 107 OFFCURVE",
"450 113 CURVE SMOOTH",
"411 149 LINE SMOOTH",
"404 156 OFFCURVE",
"398 159 OFFCURVE",
"391 159 CURVE SMOOTH",
"376 159 OFFCURVE",
"344 116 OFFCURVE",
"324 102 CURVE SMOOTH",
"308 91 OFFCURVE",
"288 86 OFFCURVE",
"262 86 CURVE SMOOTH",
"206 86 OFFCURVE",
"173 122 OFFCURVE",
"173 189 CURVE SMOOTH",
"173 342 OFFCURVE",
"251 427 OFFCURVE",
"324 427 CURVE SMOOTH",
"396 427 OFFCURVE",
"404 367 OFFCURVE",
"429 367 CURVE SMOOTH",
"432 367 OFFCURVE",
"436 368 OFFCURVE",
"441 371 CURVE SMOOTH",
"494 407 LINE SMOOTH",
"503 413 OFFCURVE",
"508 420 OFFCURVE",
"508 427 CURVE SMOOTH",
"508 451 OFFCURVE",
"462 487 OFFCURVE",
"439 500 CURVE SMOOTH",
"413 514 OFFCURVE",
"379 522 OFFCURVE",
"329 522 CURVE SMOOTH",
"144 522 OFFCURVE",
"28 345 OFFCURVE",
"28 201 CURVE SMOOTH",
"28 104 OFFCURVE",
"73 12 OFFCURVE",
"192 -6 CURVE",
"166 -40 LINE SMOOTH",
"157 -52 OFFCURVE",
"149 -68 OFFCURVE",
"149 -84 CURVE SMOOTH",
"149 -92 OFFCURVE",
"154 -96 OFFCURVE",
"163 -96 CURVE SMOOTH",
"173 -96 LINE SMOOTH",
"210 -96 OFFCURVE",
"222 -104 OFFCURVE",
"222 -119 CURVE SMOOTH",
"222 -135 OFFCURVE",
"200 -148 OFFCURVE",
"175 -148 CURVE SMOOTH",
"157 -148 OFFCURVE",
"141 -140 OFFCURVE",
"124 -140 CURVE SMOOTH",
"117 -140 OFFCURVE",
"112 -143 OFFCURVE",
"109 -150 CURVE SMOOTH",
"100 -174 LINE SMOOTH",
"99 -177 OFFCURVE",
"98 -180 OFFCURVE",
"98 -183 CURVE SMOOTH",
"98 -202 OFFCURVE",
"159 -205 OFFCURVE",
"167 -205 CURVE SMOOTH"
);
}
);
width = 530;
}
);
unicode = 00E7;
},
{
color = 4;
glyphname = d;
layers = (
{
anchors = (
{
name = bottom;
position = "{214, 0}";
},
{
name = center;
position = "{273, 257}";
},
{
name = top;
position = "{332, 513}";
},
{
name = topright;
position = "{578, 700}";
}
);
layerId = UUID0;
paths = (
{
closed = 1;
nodes = (
"254 -8 OFFCURVE",
"326 34 OFFCURVE",
"351 81 CURVE",
"352 81 LINE",
"341 22 LINE SMOOTH",
"341 20 OFFCURVE",
"340 18 OFFCURVE",
"340 16 CURVE SMOOTH",
"340 5 OFFCURVE",
"345 0 OFFCURVE",
"355 0 CURVE SMOOTH",
"396 0 LINE SMOOTH",
"411 0 OFFCURVE",
"419 7 OFFCURVE",
"423 22 CURVE SMOOTH",
"580 699 LINE",
"580 702 OFFCURVE",
"581 704 OFFCURVE",
"581 706 CURVE SMOOTH",
"581 716 OFFCURVE",
"575 721 OFFCURVE",
"563 721 CURVE SMOOTH",
"521 721 LINE SMOOTH",
"505 721 OFFCURVE",
"497 714 OFFCURVE",
"494 699 CURVE SMOOTH",
"444 485 LINE SMOOTH",
"441 473 OFFCURVE",
"439 463 OFFCURVE",
"438 455 CURVE",
"405 499 OFFCURVE",
"371 521 OFFCURVE",
"298 521 CURVE SMOOTH",
"227 521 OFFCURVE",
"165 486 OFFCURVE",
"113 415 CURVE SMOOTH",
"60 344 OFFCURVE",
"34 268 OFFCURVE",
"34 185 CURVE SMOOTH",
"34 81 OFFCURVE",
"74 -8 OFFCURVE",
"200 -8 CURVE SMOOTH"
);
},
{
closed = 1;
nodes = (
"188 55 OFFCURVE",
"162 68 OFFCURVE",
"147 93 CURVE SMOOTH",
"132 118 OFFCURVE",
"125 147 OFFCURVE",
"125 182 CURVE SMOOTH",
"125 320 OFFCURVE",
"203 458 OFFCURVE",
"305 458 CURVE SMOOTH",
"372 458 OFFCURVE",
"412 438 OFFCURVE",
"418 371 CURVE",
"386 234 LINE SMOOTH",
"369 160 OFFCURVE",
"293 55 OFFCURVE",
"224 55 CURVE SMOOTH"
);
}
);
width = 546;
},
{
anchors = (
{
name = bottom;
position = "{232, 0}";
},
{
name = center;
position = "{291, 257}";
},
{
name = top;
position = "{350, 513}";
},
{
name = topright;
position = "{611, 700}";
}
);
layerId = "E33CDA44-370B-4890-B9EA-9A4809AB9281";
paths = (
{
closed = 1;
nodes = (
"256 -10 OFFCURVE",
"289 10 OFFCURVE",
"336 67 CURVE",
"338 67 LINE",
"330 20 LINE",
"330 7 OFFCURVE",
"337 0 OFFCURVE",
"351 0 CURVE SMOOTH",
"428 0 LINE SMOOTH",
"446 0 OFFCURVE",
"459 10 OFFCURVE",
"464 29 CURVE SMOOTH",
"617 691 LINE SMOOTH",
"618 694 OFFCURVE",
"618 697 OFFCURVE",
"618 701 CURVE SMOOTH",
"618 714 OFFCURVE",
"610 721 OFFCURVE",
"594 721 CURVE SMOOTH",
"516 721 LINE SMOOTH",
"496 721 OFFCURVE",
"484 711 OFFCURVE",
"480 691 CURVE SMOOTH",
"430 466 LINE",
"428 466 LINE",
"397 514 OFFCURVE",
"349 522 OFFCURVE",
"292 522 CURVE SMOOTH",
"224 522 OFFCURVE",
"163 489 OFFCURVE",
"110 423 CURVE",
"58 356 OFFCURVE",
"32 280 OFFCURVE",
"32 195 CURVE SMOOTH",
"32 91 OFFCURVE",
"80 -10 OFFCURVE",
"209 -10 CURVE SMOOTH"
);
},
{
closed = 1;
nodes = (
"203 86 OFFCURVE",
"177 119 OFFCURVE",
"177 186 CURVE SMOOTH",
"177 304 OFFCURVE",
"226 427 OFFCURVE",
"316 427 CURVE SMOOTH",
"381 427 OFFCURVE",
"397 396 OFFCURVE",
"397 332 CURVE",
"379 255 LINE SMOOTH",
"354 148 OFFCURVE",
"294 86 OFFCURVE",
"248 86 CURVE SMOOTH"
);
}
);
width = 582;
}
);
unicode = 0064;
},
{
color = 4;
glyphname = eth;
layers = (
{
layerId = UUID0;
paths = (
{
closed = 1;
nodes = (
"412 -8 OFFCURVE",
"538 134 OFFCURVE",
"538 367 CURVE SMOOTH",
"538 501 OFFCURVE",
"480 593 OFFCURVE",
"445 634 CURVE",
"498 655 LINE SMOOTH",
"509 659 OFFCURVE",
"514 665 OFFCURVE",
"514 672 CURVE SMOOTH",
"514 673 OFFCURVE",
"513 675 OFFCURVE",
"512 679 CURVE SMOOTH",
"503 702 LINE SMOOTH",
"500 709 OFFCURVE",
"495 713 OFFCURVE",
"489 713 CURVE SMOOTH",
"485 713 OFFCURVE",
"481 712 OFFCURVE",
"476 710 CURVE SMOOTH",
"398 679 LINE",
"380 693 OFFCURVE",
"336 728 OFFCURVE",
"312 728 CURVE SMOOTH",
"305 728 OFFCURVE",
"299 725 OFFCURVE",
"296 720 CURVE SMOOTH",
"278 696 LINE SMOOTH",
"275 691 OFFCURVE",
"274 687 OFFCURVE",
"274 685 CURVE SMOOTH",
"274 673 OFFCURVE",
"307 660 OFFCURVE",
"324 648 CURVE",
"270 626 LINE SMOOTH",
"259 622 OFFCURVE",
"254 616 OFFCURVE",
"254 608 CURVE SMOOTH",
"254 605 OFFCURVE",
"254 603 OFFCURVE",
"255 602 CURVE SMOOTH",
"265 579 LINE SMOOTH",
"268 572 OFFCURVE",
"273 568 OFFCURVE",
"279 568 CURVE SMOOTH",
"283 568 OFFCURVE",
"287 569 OFFCURVE",
"292 571 CURVE SMOOTH",
"376 606 LINE",
"395 586 OFFCURVE",
"454 513 OFFCURVE",
"462 441 CURVE",
"460 441 LINE",
"432 493 OFFCURVE",
"385 513 OFFCURVE",
"317 513 CURVE SMOOTH",
"238 513 OFFCURVE",
"170 481 OFFCURVE",
"115 416 CURVE SMOOTH",
"60 351 OFFCURVE",
"33 278 OFFCURVE",
"33 196 CURVE SMOOTH",
"33 78 OFFCURVE",
"96 -8 OFFCURVE",
"238 -8 CURVE SMOOTH"
);
},
{
closed = 1;
nodes = (
"162 55 OFFCURVE",
"124 96 OFFCURVE",
"124 189 CURVE SMOOTH",
"124 359 OFFCURVE",
"222 449 OFFCURVE",
"321 449 CURVE SMOOTH",
"405 449 OFFCURVE",
"444 386 OFFCURVE",
"444 317 CURVE SMOOTH",
"444 148 OFFCURVE",
"334 55 OFFCURVE",
"245 55 CURVE SMOOTH"
);
}
);
width = 563;
},
{
layerId = "E33CDA44-370B-4890-B9EA-9A4809AB9281";
paths = (
{
closed = 1;
nodes = (
"449 -10 OFFCURVE",
"562 149 OFFCURVE",
"562 327 CURVE SMOOTH",
"562 493 OFFCURVE",
"489 578 OFFCURVE",
"438 630 CURVE",
"455 638 LINE SMOOTH",
"468 644 OFFCURVE",
"474 652 OFFCURVE",
"474 661 CURVE SMOOTH",
"474 665 OFFCURVE",
"473 669 OFFCURVE",
"471 673 CURVE SMOOTH",
"455 706 LINE SMOOTH",
"451 715 OFFCURVE",
"445 720 OFFCURVE",
"436 720 CURVE SMOOTH",
"433 720 OFFCURVE",
"427 718 OFFCURVE",
"419 715 CURVE SMOOTH",
"362 689 LINE",
"341 702 OFFCURVE",
"298 732 OFFCURVE",
"274 732 CURVE SMOOTH",
"265 732 OFFCURVE",
"257 728 OFFCURVE",
"251 720 CURVE SMOOTH",
"224 682 LINE SMOOTH",
"220 677 OFFCURVE",
"218 672 OFFCURVE",
"218 667 CURVE SMOOTH",
"218 657 OFFCURVE",
"225 650 OFFCURVE",
"239 643 CURVE SMOOTH",
"250 637 LINE",
"228 627 LINE SMOOTH",
"215 621 OFFCURVE",
"209 613 OFFCURVE",
"209 604 CURVE SMOOTH",
"209 600 OFFCURVE",
"210 596 OFFCURVE",
"212 592 CURVE SMOOTH",
"228 559 LINE SMOOTH",
"232 550 OFFCURVE",
"238 546 OFFCURVE",
"247 546 CURVE SMOOTH",
"252 546 OFFCURVE",
"258 547 OFFCURVE",
"264 550 CURVE SMOOTH",
"333 582 LINE",
"397 526 LINE SMOOTH",
"426 500 OFFCURVE",
"445 465 OFFCURVE",
"454 422 CURVE",
"452 422 LINE",
"426 471 OFFCURVE",
"357 497 OFFCURVE",
"309 497 CURVE SMOOTH",
"217 497 OFFCURVE",
"147 463 OFFCURVE",
"100 395 CURVE SMOOTH",
"52 327 OFFCURVE",
"28 259 OFFCURVE",
"28 192 CURVE SMOOTH",
"28 90 OFFCURVE",
"92 -10 OFFCURVE",
"253 -10 CURVE SMOOTH"
);
},
{
closed = 1;
nodes = (
"203 86 OFFCURVE",
"173 120 OFFCURVE",
"173 189 CURVE SMOOTH",
"173 306 OFFCURVE",
"241 401 OFFCURVE",
"323 401 CURVE SMOOTH",
"369 401 OFFCURVE",
"417 376 OFFCURVE",
"417 316 CURVE SMOOTH",
"417 180 OFFCURVE",
"341 86 OFFCURVE",
"262 86 CURVE SMOOTH"
);
}
);
width = 589;
}
);
unicode = 00F0;
},
{
color = 4;
glyphname = dcroat;
layers = (
{
layerId = UUID0;
paths = (
{
closed = 1;
nodes = (
"254 -8 OFFCURVE",
"326 34 OFFCURVE",
"351 81 CURVE",
"352 81 LINE",
"341 22 LINE SMOOTH",
"341 20 OFFCURVE",
"340 18 OFFCURVE",
"340 16 CURVE SMOOTH",
"340 5 OFFCURVE",
"345 0 OFFCURVE",
"355 0 CURVE SMOOTH",
"396 0 LINE SMOOTH",
"411 0 OFFCURVE",
"419 7 OFFCURVE",
"423 22 CURVE SMOOTH",
"555 590 LINE",
"610 590 LINE SMOOTH",
"625 590 OFFCURVE",
"634 596 OFFCURVE",
"636 607 CURVE SMOOTH",
"643 637 LINE SMOOTH",
"643 639 OFFCURVE",
"644 640 OFFCURVE",
"644 642 CURVE SMOOTH",
"644 650 OFFCURVE",
"637 654 OFFCURVE",
"625 654 CURVE SMOOTH",
"569 654 LINE",
"580 699 LINE",
"580 702 OFFCURVE",
"581 704 OFFCURVE",
"581 706 CURVE SMOOTH",
"581 716 OFFCURVE",
"575 721 OFFCURVE",
"563 721 CURVE SMOOTH",
"521 721 LINE SMOOTH",
"505 721 OFFCURVE",
"498 714 OFFCURVE",
"494 699 CURVE SMOOTH",
"483 654 LINE",
"333 654 LINE SMOOTH",
"319 654 OFFCURVE",
"310 648 OFFCURVE",
"307 637 CURVE SMOOTH",
"300 607 LINE SMOOTH",
"300 605 OFFCURVE",
"299 604 OFFCURVE",
"299 603 CURVE SMOOTH",
"299 594 OFFCURVE",
"306 590 OFFCURVE",
"318 590 CURVE SMOOTH",
"469 590 LINE",
"444 485 LINE SMOOTH",
"441 473 OFFCURVE",
"439 463 OFFCURVE",
"438 455 CURVE",
"405 499 OFFCURVE",
"371 521 OFFCURVE",
"298 521 CURVE SMOOTH",
"154 521 OFFCURVE",
"34 345 OFFCURVE",
"34 185 CURVE SMOOTH",
"34 132 OFFCURVE",
"46 86 OFFCURVE",
"70 48 CURVE",
"95 11 OFFCURVE",
"139 -8 OFFCURVE",
"200 -8 CURVE SMOOTH"
);
},
{
closed = 1;
nodes = (
"150 55 OFFCURVE",
"125 114 OFFCURVE",
"125 182 CURVE SMOOTH",
"125 320 OFFCURVE",
"203 458 OFFCURVE",
"305 458 CURVE SMOOTH",
"372 458 OFFCURVE",
"412 438 OFFCURVE",
"418 371 CURVE",
"386 234 LINE SMOOTH",
"376 193 OFFCURVE",
"355 152 OFFCURVE",
"321 112 CURVE SMOOTH",
"289 74 OFFCURVE",
"257 55 OFFCURVE",
"224 55 CURVE SMOOTH"
);
}
);
width = 564;
},
{
layerId = "E33CDA44-370B-4890-B9EA-9A4809AB9281";
paths = (
{
closed = 1;
nodes = (
"256 -10 OFFCURVE",
"289 10 OFFCURVE",
"336 67 CURVE",
"338 67 LINE",
"330 20 LINE",
"330 7 OFFCURVE",
"337 0 OFFCURVE",
"351 0 CURVE SMOOTH",
"428 0 LINE SMOOTH",
"446 0 OFFCURVE",
"459 10 OFFCURVE",
"464 29 CURVE SMOOTH",
"590 576 LINE",
"641 576 LINE SMOOTH",
"660 576 OFFCURVE",
"672 584 OFFCURVE",
"676 601 CURVE SMOOTH",
"688 649 LINE SMOOTH",
"688 651 OFFCURVE",
"688 653 OFFCURVE",
"688 655 CURVE SMOOTH",
"688 668 OFFCURVE",
"680 674 OFFCURVE",
"664 674 CURVE SMOOTH",
"613 674 LINE",
"617 691 LINE SMOOTH",
"618 694 OFFCURVE",
"618 697 OFFCURVE",
"618 701 CURVE SMOOTH",
"618 714 OFFCURVE",
"610 721 OFFCURVE",
"594 721 CURVE SMOOTH",
"516 721 LINE SMOOTH",
"495 721 OFFCURVE",
"485 711 OFFCURVE",
"480 691 CURVE SMOOTH",
"476 674 LINE",
"344 674 LINE SMOOTH",
"325 674 OFFCURVE",
"313 666 OFFCURVE",
"309 649 CURVE SMOOTH",
"297 601 LINE SMOOTH",
"296 599 OFFCURVE",
"296 596 OFFCURVE",
"296 594 CURVE SMOOTH",
"296 582 OFFCURVE",
"304 576 OFFCURVE",
"321 576 CURVE SMOOTH",
"454 576 LINE",
"430 466 LINE",
"428 466 LINE",
"397 514 OFFCURVE",
"349 522 OFFCURVE",
"292 522 CURVE SMOOTH",
"154 522 OFFCURVE",
"32 362 OFFCURVE",
"32 195 CURVE SMOOTH",
"32 142 OFFCURVE",
"45 95 OFFCURVE",
"72 54 CURVE SMOOTH",
"99 11 OFFCURVE",
"144 -10 OFFCURVE",
"209 -10 CURVE SMOOTH"
);
},
{
closed = 1;
nodes = (
"203 86 OFFCURVE",
"177 119 OFFCURVE",
"177 186 CURVE SMOOTH",
"177 304 OFFCURVE",
"226 427 OFFCURVE",
"316 427 CURVE SMOOTH",
"381 427 OFFCURVE",
"397 396 OFFCURVE",
"397 332 CURVE",
"379 255 LINE SMOOTH",
"366 201 OFFCURVE",
"348 159 OFFCURVE",
"321 129 CURVE SMOOTH",
"295 100 OFFCURVE",
"271 86 OFFCURVE",
"248 86 CURVE SMOOTH"
);
}
);
width = 604;
}
);
unicode = 0111;
},
{
color = 4;
glyphname = e;
layers = (
{
anchors = (
{
name = bottom;
position = "{204, 0}";
},
{
name = ogonek;
position = "{414, 10}";
},
{
name = top;
position = "{322, 513}";
}
);
layerId = UUID0;
paths = (
{
closed = 1;
nodes = (
"363 -8 OFFCURVE",
"423 50 OFFCURVE",
"436 71 CURVE SMOOTH",
"441 78 OFFCURVE",
"443 84 OFFCURVE",
"443 90 CURVE SMOOTH",
"443 93 OFFCURVE",
"442 96 OFFCURVE",
"439 99 CURVE SMOOTH",
"410 124 LINE SMOOTH",
"407 127 OFFCURVE",
"404 128 OFFCURVE",
"400 128 CURVE SMOOTH",
"385 128 OFFCURVE",
"356 56 OFFCURVE",
"243 56 CURVE SMOOTH",
"148 56 OFFCURVE",
"124 117 OFFCURVE",
"124 175 CURVE",
"127 195 LINE",
"247 219 LINE SMOOTH",
"379 245 OFFCURVE",
"487 281 OFFCURVE",
"487 380 CURVE SMOOTH",
"487 452 OFFCURVE",
"419 521 OFFCURVE",
"318 521 CURVE SMOOTH",
"231 521 OFFCURVE",
"161 491 OFFCURVE",
"109 430 CURVE SMOOTH",
"58 369 OFFCURVE",
"33 290 OFFCURVE",
"33 193 CURVE SMOOTH",
"33 91 OFFCURVE",
"89 -8 OFFCURVE",
"231 -8 CURVE SMOOTH"
);
},
{
closed = 1;
nodes = (
"160 410 OFFCURVE",
"229 458 OFFCURVE",
"302 458 CURVE SMOOTH",
"351 458 OFFCURVE",
"401 429 OFFCURVE",
"401 384 CURVE SMOOTH",
"401 356 OFFCURVE",
"384 334 OFFCURVE",
"350 318 CURVE",
"315 303 OFFCURVE",
"274 290 OFFCURVE",
"229 282 CURVE SMOOTH",
"129 263 LINE"
);
}
);
width = 526;
},
{
anchors = (
{
name = bottom;
position = "{222, 0}";
},
{
name = ogonek;
position = "{447, 10}";
},
{
name = top;
position = "{340, 513}";
}
);
layerId = "E33CDA44-370B-4890-B9EA-9A4809AB9281";
paths = (
{
closed = 1;
nodes = (
"358 -10 OFFCURVE",
"476 21 OFFCURVE",
"476 71 CURVE SMOOTH",
"476 77 OFFCURVE",
"473 84 OFFCURVE",
"468 91 CURVE SMOOTH",
"439 129 LINE",
"435 136 OFFCURVE",
"430 139 OFFCURVE",
"423 139 CURVE SMOOTH",
"402 139 OFFCURVE",
"342 86 OFFCURVE",
"270 86 CURVE SMOOTH",
"184 86 OFFCURVE",
"174 135 OFFCURVE",
"174 173 CURVE SMOOTH",
"174 187 LINE",
"276 204 LINE SMOOTH",
"439 231 OFFCURVE",
"539 251 OFFCURVE",
"539 378 CURVE SMOOTH",
"539 449 OFFCURVE",
"468 522 OFFCURVE",
"332 522 CURVE SMOOTH",
"237 522 OFFCURVE",
"163 488 OFFCURVE",
"109 419 CURVE SMOOTH",
"55 350 OFFCURVE",
"28 278 OFFCURVE",
"28 203 CURVE SMOOTH",
"28 87 OFFCURVE",
"78 -10 OFFCURVE",
"261 -10 CURVE SMOOTH"
);
},
{
closed = 1;
nodes = (
"203 364 OFFCURVE",
"252 427 OFFCURVE",
"333 427 CURVE SMOOTH",
"382 427 OFFCURVE",
"423 403 OFFCURVE",
"423 367 CURVE SMOOTH",
"423 348 OFFCURVE",
"409 332 OFFCURVE",
"381 320 CURVE SMOOTH",
"348 307 OFFCURVE",
"317 301 OFFCURVE",
"288 296 CURVE SMOOTH",
"181 278 LINE"
);
}
);
width = 562;
}
);
unicode = 0065;
},
{
color = 4;
glyphname = eogonek;
layers = (
{
layerId = UUID0;
paths = (
{
closed = 1;
nodes = (
"259 -204 OFFCURVE",
"310 -206 OFFCURVE",
"310 -186 CURVE",
"307 -148 LINE SMOOTH",
"306 -141 OFFCURVE",
"303 -137 OFFCURVE",
"296 -137 CURVE SMOOTH",
"293 -137 LINE SMOOTH",
"284 -139 OFFCURVE",
"273 -140 OFFCURVE",
"258 -140 CURVE SMOOTH",
"235 -140 OFFCURVE",
"226 -131 OFFCURVE",
"226 -114 CURVE SMOOTH",
"226 -96 OFFCURVE",
"244 -75 OFFCURVE",
"281 -47 CURVE SMOOTH",
"342 -1 LINE SMOOTH",
"371 21 OFFCURVE",
"444 65 OFFCURVE",
"443 90 CURVE SMOOTH",
"443 93 OFFCURVE",
"442 96 OFFCURVE",
"439 99 CURVE SMOOTH",
"410 124 LINE SMOOTH",
"407 127 OFFCURVE",
"404 128 OFFCURVE",
"400 128 CURVE SMOOTH",
"385 128 OFFCURVE",
"356 56 OFFCURVE",
"243 56 CURVE SMOOTH",
"148 56 OFFCURVE",
"124 117 OFFCURVE",
"124 175 CURVE",
"127 195 LINE",
"247 219 LINE SMOOTH",
"379 245 OFFCURVE",
"487 281 OFFCURVE",
"487 380 CURVE SMOOTH",
"487 452 OFFCURVE",
"419 521 OFFCURVE",
"318 521 CURVE SMOOTH",
"231 521 OFFCURVE",
"161 491 OFFCURVE",
"109 430 CURVE SMOOTH",
"58 369 OFFCURVE",
"33 290 OFFCURVE",
"33 193 CURVE SMOOTH",
"33 91 OFFCURVE",
"89 -8 OFFCURVE",
"231 -8 CURVE SMOOTH",
"240 -8 OFFCURVE",
"247 -8 OFFCURVE",
"252 -7 CURVE",
"252 -9 LINE",
"171 -59 OFFCURVE",
"147 -80 OFFCURVE",
"147 -139 CURVE SMOOTH",
"147 -178 OFFCURVE",
"180 -204 OFFCURVE",
"243 -204 CURVE SMOOTH"
);
},
{
closed = 1;
nodes = (
"160 410 OFFCURVE",
"229 458 OFFCURVE",
"302 458 CURVE SMOOTH",
"351 458 OFFCURVE",
"401 429 OFFCURVE",
"401 384 CURVE SMOOTH",
"401 356 OFFCURVE",
"384 334 OFFCURVE",
"350 318 CURVE",
"315 303 OFFCURVE",
"274 290 OFFCURVE",
"229 282 CURVE SMOOTH",
"129 263 LINE"
);
}
);
width = 526;
},
{
layerId = "E33CDA44-370B-4890-B9EA-9A4809AB9281";
paths = (
{
closed = 1;
nodes = (
"346 -205 OFFCURVE",
"393 -209 OFFCURVE",
"392 -180 CURVE SMOOTH",
"390 -124 LINE SMOOTH",
"390 -113 OFFCURVE",
"385 -107 OFFCURVE",
"375 -107 CURVE SMOOTH",
"371 -107 LINE SMOOTH",
"352 -108 OFFCURVE",
"338 -109 OFFCURVE",
"329 -109 CURVE SMOOTH",
"310 -109 OFFCURVE",
"299 -105 OFFCURVE",
"299 -92 CURVE SMOOTH",
"299 -72 OFFCURVE",
"362 -25 OFFCURVE",
"387 -8 CURVE SMOOTH",
"433 23 LINE",
"464 48 LINE",
"472 56 OFFCURVE",
"476 64 OFFCURVE",
"476 71 CURVE SMOOTH",
"476 77 OFFCURVE",
"473 84 OFFCURVE",
"468 91 CURVE SMOOTH",
"439 129 LINE",
"435 136 OFFCURVE",
"430 139 OFFCURVE",
"423 139 CURVE SMOOTH",
"402 139 OFFCURVE",
"342 86 OFFCURVE",
"270 86 CURVE SMOOTH",
"184 86 OFFCURVE",
"174 135 OFFCURVE",
"174 173 CURVE SMOOTH",
"174 187 LINE",
"276 204 LINE SMOOTH",
"356 217 OFFCURVE",
"420 234 OFFCURVE",
"469 254 CURVE SMOOTH",
"516 274 OFFCURVE",
"539 315 OFFCURVE",
"539 378 CURVE SMOOTH",
"539 449 OFFCURVE",
"468 522 OFFCURVE",
"332 522 CURVE SMOOTH",
"237 522 OFFCURVE",
"163 488 OFFCURVE",
"109 419 CURVE SMOOTH",
"55 350 OFFCURVE",
"28 278 OFFCURVE",
"28 203 CURVE SMOOTH",
"28 87 OFFCURVE",
"78 -10 OFFCURVE",
"261 -10 CURVE SMOOTH",
"270 -10 OFFCURVE",
"278 -9 OFFCURVE",
"285 -7 CURVE",
"285 -11 LINE",
"186 -76 OFFCURVE",
"184 -94 OFFCURVE",
"184 -130 CURVE SMOOTH",
"184 -175 OFFCURVE",
"226 -205 OFFCURVE",
"303 -205 CURVE SMOOTH"
);
},
{
closed = 1;
nodes = (
"203 364 OFFCURVE",
"252 427 OFFCURVE",
"333 427 CURVE SMOOTH",
"382 427 OFFCURVE",
"423 403 OFFCURVE",
"423 367 CURVE SMOOTH",
"423 348 OFFCURVE",
"409 332 OFFCURVE",
"381 320 CURVE SMOOTH",
"348 307 OFFCURVE",
"317 301 OFFCURVE",
"288 296 CURVE SMOOTH",
"181 278 LINE"
);
}
);
width = 562;
}
);
unicode = 0119;
},
{
color = 4;
glyphname = f;
layers = (
{
anchors = (
{
name = bottom;
position = "{100, 0}";
},
{
name = top;
position = "{258, 700}";
}
);
layerId = UUID0;
paths = (
{
closed = 1;
nodes = (
"62 -195 LINE SMOOTH",
"77 -195 OFFCURVE",
"84 -188 OFFCURVE",
"88 -173 CURVE SMOOTH",
"232 448 LINE",
"321 448 LINE SMOOTH",
"336 448 OFFCURVE",
"345 454 OFFCURVE",
"347 465 CURVE SMOOTH",
"354 496 LINE",
"354 497 OFFCURVE",
"354 499 OFFCURVE",
"354 500 CURVE SMOOTH",
"354 508 OFFCURVE",
"348 513 OFFCURVE",
"336 513 CURVE SMOOTH",
"247 513 LINE",
"260 571 LINE SMOOTH",
"278 653 OFFCURVE",
"312 666 OFFCURVE",
"358 666 CURVE SMOOTH",
"380 666 OFFCURVE",
"399 661 OFFCURVE",
"415 652 CURVE",
"419 651 OFFCURVE",
"422 650 OFFCURVE",
"423 650 CURVE SMOOTH",
"426 650 OFFCURVE",
"430 652 OFFCURVE",
"433 656 CURVE SMOOTH",
"458 695 LINE SMOOTH",
"459 697 OFFCURVE",
"460 700 OFFCURVE",
"460 703 CURVE SMOOTH",
"460 724 OFFCURVE",
"388 729 OFFCURVE",
"355 729 CURVE SMOOTH",
"277 729 OFFCURVE",
"203 692 OFFCURVE",
"178 585 CURVE SMOOTH",
"161 513 LINE",
"108 513 LINE SMOOTH",
"93 513 OFFCURVE",
"85 507 OFFCURVE",
"83 496 CURVE SMOOTH",
"76 465 LINE SMOOTH",
"75 463 OFFCURVE",
"75 461 OFFCURVE",
"75 460 CURVE SMOOTH",
"75 452 OFFCURVE",
"81 448 OFFCURVE",
"94 448 CURVE SMOOTH",
"146 448 LINE",
"2 -173 LINE SMOOTH",
"1 -176 OFFCURVE",
"1 -178 OFFCURVE",
"1 -180 CURVE SMOOTH",
"1 -190 OFFCURVE",
"7 -195 OFFCURVE",
"20 -195 CURVE SMOOTH"
);
}
);
width = 318;
},
{
anchors = (
{
name = bottom;
position = "{108, 0}";
},
{
name = top;
position = "{267, 700}";
}
);
layerId = "E33CDA44-370B-4890-B9EA-9A4809AB9281";
paths = (
{
closed = 1;
nodes = (
"81 -195 LINE SMOOTH",
"99 -195 OFFCURVE",
"112 -185 OFFCURVE",
"117 -166 CURVE",
"250 415 LINE",
"315 415 LINE SMOOTH",
"334 415 OFFCURVE",
"346 423 OFFCURVE",
"350 439 CURVE SMOOTH",
"361 488 LINE SMOOTH",
"362 491 OFFCURVE",
"362 493 OFFCURVE",
"362 496 CURVE SMOOTH",
"362 507 OFFCURVE",
"354 513 OFFCURVE",
"337 513 CURVE SMOOTH",
"273 513 LINE",
"278 532 LINE SMOOTH",
"298 604 OFFCURVE",
"301 635 OFFCURVE",
"354 635 CURVE SMOOTH",
"382 635 OFFCURVE",
"406 625 OFFCURVE",
"424 625 CURVE SMOOTH",
"431 625 OFFCURVE",
"435 628 OFFCURVE",
"437 633 CURVE SMOOTH",
"459 686 LINE SMOOTH",
"460 689 OFFCURVE",
"461 692 OFFCURVE",
"461 697 CURVE SMOOTH",
"461 721 OFFCURVE",
"387 730 OFFCURVE",
"357 730 CURVE SMOOTH",
"240 730 OFFCURVE",
"177 686 OFFCURVE",
"152 581 CURVE SMOOTH",
"136 513 LINE",
"109 513 LINE SMOOTH",
"90 513 OFFCURVE",
"79 505 OFFCURVE",
"75 488 CURVE SMOOTH",
"63 439 LINE SMOOTH",
"62 437 OFFCURVE",
"62 435 OFFCURVE",
"62 433 CURVE SMOOTH",
"62 421 OFFCURVE",
"70 415 OFFCURVE",
"86 415 CURVE SMOOTH",
"114 415 LINE",
"-20 -166 LINE SMOOTH",
"-21 -169 OFFCURVE",
"-21 -172 OFFCURVE",
"-21 -176 CURVE SMOOTH",
"-21 -189 OFFCURVE",
"-13 -195 OFFCURVE",
"2 -195 CURVE SMOOTH"
);
}
);
width = 333;
}
);
unicode = 0066;
},
{
color = 4;
glyphname = g;
layers = (
{
anchors = (
{
name = bottom;
position = "{214, 0}";
},
{
name = top;
position = "{332, 513}";
}
);
layerId = UUID0;
paths = (
{
closed = 1;
nodes = (
"340 -204 OFFCURVE",
"398 -135 OFFCURVE",
"428 -4 CURVE SMOOTH",
"542 491 LINE",
"542 494 OFFCURVE",
"543 496 OFFCURVE",
"543 498 CURVE SMOOTH",
"543 508 OFFCURVE",
"537 513 OFFCURVE",
"525 513 CURVE SMOOTH",
"484 513 LINE SMOOTH",
"471 513 OFFCURVE",
"465 506 OFFCURVE",
"460 491 CURVE SMOOTH",
"448 455 LINE",
"411 502 OFFCURVE",
"382 521 OFFCURVE",
"308 521 CURVE SMOOTH",
"237 521 OFFCURVE",
"175 486 OFFCURVE",
"123 415 CURVE SMOOTH",
"70 344 OFFCURVE",
"44 268 OFFCURVE",
"44 185 CURVE SMOOTH",
"44 87 OFFCURVE",
"80 -8 OFFCURVE",
"210 -8 CURVE SMOOTH",
"264 -8 OFFCURVE",
"335 32 OFFCURVE",
"361 81 CURVE",
"362 81 LINE",
"344 5 LINE SMOOTH",
"318 -104 OFFCURVE",
"261 -140 OFFCURVE",
"183 -140 CURVE SMOOTH",
"112 -140 OFFCURVE",
"77 -121 OFFCURVE",
"56 -97 CURVE SMOOTH",
"49 -90 OFFCURVE",
"44 -87 OFFCURVE",
"40 -87 CURVE SMOOTH",
"35 -87 OFFCURVE",
"32 -89 OFFCURVE",
"29 -93 CURVE",
"4 -116 LINE",
"0 -121 OFFCURVE",
"-2 -126 OFFCURVE",
"-2 -131 CURVE SMOOTH",
"-2 -175 OFFCURVE",
"78 -204 OFFCURVE",
"168 -204 CURVE SMOOTH"
);
},
{
closed = 1;
nodes = (
"198 55 OFFCURVE",
"172 68 OFFCURVE",
"157 93 CURVE SMOOTH",
"142 119 OFFCURVE",
"135 149 OFFCURVE",
"135 182 CURVE SMOOTH",
"135 320 OFFCURVE",
"213 458 OFFCURVE",
"315 458 CURVE SMOOTH",
"380 458 OFFCURVE",
"422 440 OFFCURVE",
"428 371 CURVE",
"396 234 LINE SMOOTH",
"377 153 OFFCURVE",
"300 55 OFFCURVE",
"234 55 CURVE SMOOTH"
);
}
);
width = 546;
},
{
anchors = (
{
name = bottom;
position = "{232, 0}";
},
{
name = top;
position = "{350, 513}";
}
);
layerId = "E33CDA44-370B-4890-B9EA-9A4809AB9281";
paths = (
{
closed = 1;
nodes = (
"335 -205 OFFCURVE",
"424 -147 OFFCURVE",
"458 5 CURVE",
"569 483 LINE SMOOTH",
"570 486 OFFCURVE",
"570 489 OFFCURVE",
"570 493 CURVE SMOOTH",
"570 506 OFFCURVE",
"562 513 OFFCURVE",
"546 513 CURVE SMOOTH",
"469 513 LINE SMOOTH",
"452 513 OFFCURVE",
"443 503 OFFCURVE",
"436 483 CURVE SMOOTH",
"430 466 LINE",
"428 466 LINE",
"397 514 OFFCURVE",
"349 522 OFFCURVE",
"292 522 CURVE SMOOTH",
"224 522 OFFCURVE",
"163 489 OFFCURVE",
"110 423 CURVE",
"58 356 OFFCURVE",
"32 281 OFFCURVE",
"32 196 CURVE SMOOTH",
"32 107 OFFCURVE",
"78 -5 OFFCURVE",
"210 -5 CURVE SMOOTH",
"262 -5 OFFCURVE",
"289 16 OFFCURVE",
"337 72 CURVE",
"339 72 LINE",
"334 57 OFFCURVE",
"330 44 OFFCURVE",
"328 33 CURVE SMOOTH",
"324 15 LINE SMOOTH",
"302 -86 OFFCURVE",
"239 -109 OFFCURVE",
"166 -109 CURVE SMOOTH",
"123 -109 OFFCURVE",
"85 -100 OFFCURVE",
"50 -83 CURVE SMOOTH",
"45 -80 OFFCURVE",
"39 -79 OFFCURVE",
"34 -79 CURVE SMOOTH",
"25 -79 OFFCURVE",
"17 -84 OFFCURVE",
"12 -93 CURVE SMOOTH",
"-9 -128 LINE SMOOTH",
"-14 -135 OFFCURVE",
"-16 -142 OFFCURVE",
"-16 -149 CURVE SMOOTH",
"-16 -170 OFFCURVE",
"45 -191 OFFCURVE",
"69 -197 CURVE SMOOTH",
"91 -203 OFFCURVE",
"122 -205 OFFCURVE",
"159 -205 CURVE SMOOTH"
);
},
{
closed = 1;
nodes = (
"205 90 OFFCURVE",
"177 128 OFFCURVE",
"177 187 CURVE SMOOTH",
"177 304 OFFCURVE",
"226 427 OFFCURVE",
"316 427 CURVE SMOOTH",
"381 427 OFFCURVE",
"397 396 OFFCURVE",
"397 332 CURVE",
"379 255 LINE SMOOTH",
"356 158 OFFCURVE",
"295 90 OFFCURVE",
"249 90 CURVE SMOOTH"
);
}
);
width = 582;
}
);
unicode = 0067;
},
{
color = 4;
glyphname = h;
layers = (
{
anchors = (
{
name = bottom;
position = "{217, 0}";
},
{
name = center;
position = "{276, 257}";
},
{
name = top;
position = "{220, 700}";
}
);
layerId = UUID0;
paths = (
{
closed = 1;
nodes = (
"80 0 LINE SMOOTH",
"95 0 OFFCURVE",
"102 7 OFFCURVE",
"106 22 CURVE SMOOTH",
"164 271 LINE SMOOTH",
"186 368 OFFCURVE",
"260 458 OFFCURVE",
"336 458 CURVE SMOOTH",
"390 458 OFFCURVE",
"425 442 OFFCURVE",
"425 387 CURVE SMOOTH",
"425 366 OFFCURVE",
"422 340 OFFCURVE",
"415 311 CURVE SMOOTH",
"348 22 LINE SMOOTH",
"347 20 OFFCURVE",
"347 17 OFFCURVE",
"347 14 CURVE SMOOTH",
"347 5 OFFCURVE",
"353 0 OFFCURVE",
"365 0 CURVE SMOOTH",
"407 0 LINE SMOOTH",
"420 0 OFFCURVE",
"430 7 OFFCURVE",
"434 22 CURVE SMOOTH",
"506 334 LINE SMOOTH",
"512 358 OFFCURVE",
"514 380 OFFCURVE",
"514 398 CURVE SMOOTH",
"514 476 OFFCURVE",
"471 521 OFFCURVE",
"382 521 CURVE SMOOTH",
"306 521 OFFCURVE",
"241 481 OFFCURVE",
"203 432 CURVE",
"201 432 LINE",
"202 437 OFFCURVE",
"204 446 OFFCURVE",
"208 461 CURVE SMOOTH",
"263 699 LINE",
"263 702 OFFCURVE",
"264 704 OFFCURVE",
"264 706 CURVE SMOOTH",
"264 716 OFFCURVE",
"258 721 OFFCURVE",
"246 721 CURVE SMOOTH",
"204 721 LINE SMOOTH",
"189 721 OFFCURVE",
"180 714 OFFCURVE",
"177 699 CURVE SMOOTH",
"21 22 LINE SMOOTH",
"20 20 OFFCURVE",
"20 17 OFFCURVE",
"20 14 CURVE SMOOTH",
"20 5 OFFCURVE",
"26 0 OFFCURVE",
"38 0 CURVE SMOOTH"
);
}
);
width = 551;
},
{
anchors = (
{
name = bottom;
position = "{234, 0}";
},
{
name = center;
position = "{293, 257}";
},
{
name = top;
position = "{224, 700}";
}
);
layerId = "E33CDA44-370B-4890-B9EA-9A4809AB9281";
paths = (
{
closed = 1;
nodes = (
"115 0 LINE SMOOTH",
"135 0 OFFCURVE",
"147 10 OFFCURVE",
"151 29 CURVE SMOOTH",
"192 207 LINE SMOOTH",
"224 348 OFFCURVE",
"278 427 OFFCURVE",
"346 427 CURVE SMOOTH",
"384 427 OFFCURVE",
"402 410 OFFCURVE",
"402 369 CURVE SMOOTH",
"402 343 OFFCURVE",
"397 308 OFFCURVE",
"386 265 CURVE",
"332 29 LINE SMOOTH",
"331 27 OFFCURVE",
"331 24 OFFCURVE",
"331 20 CURVE SMOOTH",
"331 7 OFFCURVE",
"339 0 OFFCURVE",
"354 0 CURVE SMOOTH",
"433 0 LINE SMOOTH",
"451 0 OFFCURVE",
"464 10 OFFCURVE",
"469 29 CURVE SMOOTH",
"531 300 LINE SMOOTH",
"538 333 OFFCURVE",
"542 362 OFFCURVE",
"542 385 CURVE SMOOTH",
"542 481 OFFCURVE",
"478 522 OFFCURVE",
"407 522 CURVE SMOOTH",
"341 522 OFFCURVE",
"302 509 OFFCURVE",
"248 445 CURVE",
"246 445 LINE",
"251 462 OFFCURVE",
"255 475 OFFCURVE",
"257 484 CURVE SMOOTH",
"304 691 LINE SMOOTH",
"305 694 OFFCURVE",
"305 697 OFFCURVE",
"305 702 CURVE SMOOTH",
"305 715 OFFCURVE",
"297 721 OFFCURVE",
"282 721 CURVE SMOOTH",
"204 721 LINE SMOOTH",
"185 721 OFFCURVE",
"171 711 OFFCURVE",
"167 691 CURVE SMOOTH",
"15 29 LINE SMOOTH",
"14 26 OFFCURVE",
"14 23 OFFCURVE",
"14 19 CURVE SMOOTH",
"14 6 OFFCURVE",
"22 0 OFFCURVE",
"37 0 CURVE SMOOTH"
);
}
);
width = 586;
}
);
unicode = 0068;
},
{
color = 4;
glyphname = hbar;
layers = (
{
layerId = UUID0;
paths = (
{
closed = 1;
nodes = (
"114 0 LINE SMOOTH",
"127 0 OFFCURVE",
"137 7 OFFCURVE",
"141 22 CURVE SMOOTH",
"198 271 LINE SMOOTH",
"220 368 OFFCURVE",
"294 458 OFFCURVE",
"370 458 CURVE SMOOTH",
"426 458 OFFCURVE",
"459 441 OFFCURVE",
"459 387 CURVE SMOOTH",
"459 366 OFFCURVE",
"456 340 OFFCURVE",
"449 311 CURVE SMOOTH",
"382 22 LINE SMOOTH",
"381 20 OFFCURVE",
"381 17 OFFCURVE",
"381 14 CURVE SMOOTH",
"381 5 OFFCURVE",
"387 0 OFFCURVE",
"399 0 CURVE SMOOTH",
"441 0 LINE SMOOTH",
"454 0 OFFCURVE",
"464 7 OFFCURVE",
"468 22 CURVE SMOOTH",
"540 334 LINE SMOOTH",
"546 358 OFFCURVE",
"548 380 OFFCURVE",
"548 398 CURVE SMOOTH",
"548 476 OFFCURVE",
"505 521 OFFCURVE",
"417 521 CURVE SMOOTH",
"339 521 OFFCURVE",
"273 479 OFFCURVE",
"237 432 CURVE",
"235 432 LINE",
"236 437 OFFCURVE",
"238 446 OFFCURVE",
"242 461 CURVE SMOOTH",
"272 590 LINE",
"449 590 LINE SMOOTH",
"464 590 OFFCURVE",
"473 596 OFFCURVE",
"475 607 CURVE SMOOTH",
"482 637 LINE",
"482 638 OFFCURVE",
"482 640 OFFCURVE",
"482 641 CURVE SMOOTH",
"482 649 OFFCURVE",
"476 654 OFFCURVE",
"464 654 CURVE SMOOTH",
"287 654 LINE",
"297 699 LINE",
"297 702 OFFCURVE",
"298 704 OFFCURVE",
"298 706 CURVE SMOOTH",
"298 716 OFFCURVE",
"292 721 OFFCURVE",
"280 721 CURVE SMOOTH",
"238 721 LINE SMOOTH",
"223 721 OFFCURVE",
"214 714 OFFCURVE",
"211 699 CURVE SMOOTH",
"201 654 LINE",
"134 654 LINE SMOOTH",
"119 654 OFFCURVE",
"110 648 OFFCURVE",
"108 637 CURVE SMOOTH",
"101 607 LINE SMOOTH",
"101 605 OFFCURVE",
"100 604 OFFCURVE",
"100 603 CURVE SMOOTH",
"100 594 OFFCURVE",
"107 590 OFFCURVE",
"119 590 CURVE SMOOTH",
"186 590 LINE",
"55 22 LINE SMOOTH",
"54 20 OFFCURVE",
"54 17 OFFCURVE",
"54 14 CURVE SMOOTH",
"54 5 OFFCURVE",
"60 0 OFFCURVE",
"72 0 CURVE SMOOTH"
);
}
);
width = 585;
},
{
layerId = "E33CDA44-370B-4890-B9EA-9A4809AB9281";
paths = (
{
closed = 1;
nodes = (
"131 0 LINE SMOOTH",
"151 0 OFFCURVE",
"163 10 OFFCURVE",
"167 29 CURVE SMOOTH",
"208 207 LINE SMOOTH",
"240 348 OFFCURVE",
"294 427 OFFCURVE",
"362 427 CURVE SMOOTH",
"398 427 OFFCURVE",
"418 410 OFFCURVE",
"418 372 CURVE SMOOTH",
"418 346 OFFCURVE",
"412 310 OFFCURVE",
"402 265 CURVE SMOOTH",
"348 29 LINE SMOOTH",
"347 26 OFFCURVE",
"347 23 OFFCURVE",
"347 19 CURVE SMOOTH",
"347 6 OFFCURVE",
"355 0 OFFCURVE",
"370 0 CURVE SMOOTH",
"448 0 LINE SMOOTH",
"468 0 OFFCURVE",
"479 10 OFFCURVE",
"484 29 CURVE SMOOTH",
"547 300 LINE SMOOTH",
"555 332 OFFCURVE",
"558 362 OFFCURVE",
"558 385 CURVE SMOOTH",
"558 481 OFFCURVE",
"494 522 OFFCURVE",
"423 522 CURVE SMOOTH",
"357 522 OFFCURVE",
"318 509 OFFCURVE",
"264 445 CURVE",
"262 445 LINE",
"267 462 OFFCURVE",
"271 475 OFFCURVE",
"273 484 CURVE SMOOTH",
"293 576 LINE",
"460 576 LINE SMOOTH",
"480 576 OFFCURVE",
"492 584 OFFCURVE",
"496 601 CURVE SMOOTH",
"507 649 LINE SMOOTH",
"508 652 OFFCURVE",
"508 654 OFFCURVE",
"508 657 CURVE SMOOTH",
"508 668 OFFCURVE",
"500 674 OFFCURVE",
"483 674 CURVE SMOOTH",
"316 674 LINE",
"320 691 LINE SMOOTH",
"321 694 OFFCURVE",
"321 697 OFFCURVE",
"321 701 CURVE SMOOTH",
"321 714 OFFCURVE",
"313 721 OFFCURVE",
"297 721 CURVE SMOOTH",
"219 721 LINE SMOOTH",
"200 721 OFFCURVE",
"188 711 OFFCURVE",
"183 691 CURVE SMOOTH",
"179 674 LINE",
"135 674 LINE SMOOTH",
"116 674 OFFCURVE",
"104 666 OFFCURVE",
"100 649 CURVE SMOOTH",
"88 601 LINE SMOOTH",
"87 598 OFFCURVE",
"87 595 OFFCURVE",
"87 593 CURVE SMOOTH",
"87 581 OFFCURVE",
"95 576 OFFCURVE",
"112 576 CURVE SMOOTH",
"156 576 LINE",
"30 29 LINE SMOOTH",
"29 27 OFFCURVE",
"29 24 OFFCURVE",
"29 20 CURVE SMOOTH",
"29 7 OFFCURVE",
"37 0 OFFCURVE",
"53 0 CURVE SMOOTH"
);
}
);
width = 602;
}
);
unicode = 0127;
},
{
color = 4;
glyphname = idotless;
layers = (
{
anchors = (
{
name = bottom;
position = "{54, 0}";
},
{
name = ogonek;
position = "{143, 10}";
},
{
name = top;
position = "{172, 513}";
}
);
layerId = UUID0;
paths = (
{
closed = 1;
nodes = (
"80 0 LINE SMOOTH",
"95 0 OFFCURVE",
"102 7 OFFCURVE",
"106 22 CURVE SMOOTH",
"215 491 LINE",
"215 494 OFFCURVE",
"216 496 OFFCURVE",
"216 498 CURVE SMOOTH",
"216 508 OFFCURVE",
"210 513 OFFCURVE",
"198 513 CURVE SMOOTH",
"156 513 LINE SMOOTH",
"141 513 OFFCURVE",
"132 506 OFFCURVE",
"129 491 CURVE SMOOTH",
"21 22 LINE SMOOTH",
"20 20 OFFCURVE",
"20 17 OFFCURVE",
"20 14 CURVE SMOOTH",
"20 5 OFFCURVE",
"26 0 OFFCURVE",
"38 0 CURVE SMOOTH"
);
}
);
width = 225;
},
{
anchors = (
{
name = bottom;
position = "{76, 0}";
},
{
name = ogonek;
position = "{184, 10}";
},
{
name = top;
position = "{194, 513}";
}
);
layerId = "E33CDA44-370B-4890-B9EA-9A4809AB9281";
paths = (
{
closed = 1;
nodes = (
"115 0 LINE SMOOTH",
"135 0 OFFCURVE",
"147 10 OFFCURVE",
"151 29 CURVE SMOOTH",
"256 483 LINE SMOOTH",
"257 486 OFFCURVE",
"257 489 OFFCURVE",
"257 493 CURVE SMOOTH",
"257 506 OFFCURVE",
"249 513 OFFCURVE",
"233 513 CURVE SMOOTH",
"155 513 LINE SMOOTH",
"135 513 OFFCURVE",
"124 503 OFFCURVE",
"120 483 CURVE SMOOTH",
"15 29 LINE SMOOTH",
"14 26 OFFCURVE",
"14 23 OFFCURVE",
"14 19 CURVE SMOOTH",
"14 6 OFFCURVE",
"22 0 OFFCURVE",
"37 0 CURVE SMOOTH"
);
}
);
width = 270;
}
);
unicode = 0131;
},
{
color = 4;
glyphname = jdotless;
layers = (
{
layerId = UUID0;
paths = (
{
closed = 1;
nodes = (
"-3 -204 OFFCURVE",
"63 -175 OFFCURVE",
"93 -45 CURVE SMOOTH",
"216 491 LINE SMOOTH",
"217 494 OFFCURVE",
"217 496 OFFCURVE",
"217 499 CURVE SMOOTH",
"217 508 OFFCURVE",
"211 513 OFFCURVE",
"199 513 CURVE SMOOTH",
"157 513 LINE SMOOTH",
"143 513 OFFCURVE",
"133 506 OFFCURVE",
"130 491 CURVE SMOOTH",
"18 3 LINE",
"-14 -125 OFFCURVE",
"-36 -140 OFFCURVE",
"-72 -140 CURVE SMOOTH",
"-93 -140 OFFCURVE",
"-110 -130 OFFCURVE",
"-122 -130 CURVE SMOOTH",
"-126 -130 OFFCURVE",
"-129 -133 OFFCURVE",
"-131 -139 CURVE SMOOTH",
"-143 -178 LINE SMOOTH",
"-144 -180 OFFCURVE",
"-145 -182 OFFCURVE",
"-145 -184 CURVE SMOOTH",
"-145 -199 OFFCURVE",
"-111 -204 OFFCURVE",
"-71 -204 CURVE SMOOTH"
);
}
);
width = 228;
},
{
layerId = "E33CDA44-370B-4890-B9EA-9A4809AB9281";
paths = (
{
closed = 1;
nodes = (
"36 -205 OFFCURVE",
"110 -169 OFFCURVE",
"149 -2 CURVE SMOOTH",
"261 483 LINE SMOOTH",
"262 486 OFFCURVE",
"262 489 OFFCURVE",
"262 493 CURVE SMOOTH",
"262 506 OFFCURVE",
"254 513 OFFCURVE",
"238 513 CURVE SMOOTH",
"160 513 LINE SMOOTH",
"140 513 OFFCURVE",
"129 503 OFFCURVE",
"125 483 CURVE SMOOTH",
"16 13 LINE SMOOTH",
"-3 -70 OFFCURVE",
"-28 -109 OFFCURVE",
"-73 -109 CURVE SMOOTH",
"-81 -109 OFFCURVE",
"-94 -105 OFFCURVE",
"-111 -105 CURVE SMOOTH",
"-122 -105 OFFCURVE",
"-129 -110 OFFCURVE",
"-132 -119 CURVE SMOOTH",
"-150 -170 LINE SMOOTH",
"-151 -173 OFFCURVE",
"-152 -177 OFFCURVE",
"-152 -182 CURVE SMOOTH",
"-152 -203 OFFCURVE",
"-115 -205 OFFCURVE",
"-71 -205 CURVE SMOOTH"
);
}
);
width = 274;
}
);
unicode = 0237;
},
{
color = 4;
glyphname = k;
layers = (
{
anchors = (
{
name = bottom;
position = "{186, 0}";
},
{
name = top;
position = "{304, 513}";
}
);
layerId = UUID0;
paths = (
{
closed = 1;
nodes = (
"80 0 LINE SMOOTH",
"95 0 OFFCURVE",
"102 7 OFFCURVE",
"106 22 CURVE SMOOTH",
"135 143 LINE",
"238 240 LINE",
"329 18 LINE SMOOTH",
"334 6 OFFCURVE",
"340 0 OFFCURVE",
"352 0 CURVE SMOOTH",
"392 0 LINE SMOOTH",
"407 0 OFFCURVE",
"414 5 OFFCURVE",
"414 15 CURVE SMOOTH",
"414 20 OFFCURVE",
"413 24 OFFCURVE",
"411 29 CURVE SMOOTH",
"300 298 LINE",
"500 484 LINE SMOOTH",
"509 492 OFFCURVE",
"514 499 OFFCURVE",
"514 504 CURVE SMOOTH",
"514 510 OFFCURVE",
"507 513 OFFCURVE",
"493 513 CURVE SMOOTH",
"439 513 LINE SMOOTH",
"430 513 OFFCURVE",
"420 509 OFFCURVE",
"410 500 CURVE SMOOTH",
"163 269 LINE",
"263 699 LINE",
"263 702 OFFCURVE",
"264 704 OFFCURVE",
"264 706 CURVE SMOOTH",
"264 716 OFFCURVE",
"258 721 OFFCURVE",
"246 721 CURVE SMOOTH",
"204 721 LINE SMOOTH",
"189 721 OFFCURVE",
"180 714 OFFCURVE",
"177 699 CURVE SMOOTH",
"21 22 LINE SMOOTH",
"20 20 OFFCURVE",
"20 17 OFFCURVE",
"20 14 CURVE SMOOTH",
"20 5 OFFCURVE",
"26 0 OFFCURVE",
"38 0 CURVE SMOOTH"
);
}
);
width = 490;
},
{
anchors = (
{
name = bottom;
position = "{214, 0}";
},
{
name = top;
position = "{332, 513}";
}
);
layerId = "E33CDA44-370B-4890-B9EA-9A4809AB9281";
paths = (
{
closed = 1;
nodes = (
"115 0 LINE SMOOTH",
"135 0 OFFCURVE",
"147 10 OFFCURVE",
"151 29 CURVE SMOOTH",
"173 125 LINE",
"263 210 LINE",
"337 25 LINE SMOOTH",
"344 8 OFFCURVE",
"355 0 OFFCURVE",
"371 0 CURVE SMOOTH",
"441 0 LINE SMOOTH",
"460 0 OFFCURVE",
"469 6 OFFCURVE",
"469 18 CURVE SMOOTH",
"469 22 OFFCURVE",
"467 28 OFFCURVE",
"464 36 CURVE SMOOTH",
"355 295 LINE",
"544 477 LINE SMOOTH",
"555 488 OFFCURVE",
"561 497 OFFCURVE",
"561 502 CURVE SMOOTH",
"561 509 OFFCURVE",
"553 513 OFFCURVE",
"537 513 CURVE SMOOTH",
"444 513 LINE SMOOTH",
"430 513 OFFCURVE",
"416 506 OFFCURVE",
"401 493 CURVE",
"217 312 LINE",
"215 312 LINE",
"226 351 LINE",
"304 691 LINE SMOOTH",
"305 694 OFFCURVE",
"305 697 OFFCURVE",
"305 702 CURVE SMOOTH",
"305 715 OFFCURVE",
"297 721 OFFCURVE",
"282 721 CURVE SMOOTH",
"204 721 LINE SMOOTH",
"185 721 OFFCURVE",
"171 711 OFFCURVE",
"167 691 CURVE SMOOTH",
"15 29 LINE SMOOTH",
"14 26 OFFCURVE",
"14 23 OFFCURVE",
"14 19 CURVE SMOOTH",
"14 6 OFFCURVE",
"22 0 OFFCURVE",
"37 0 CURVE SMOOTH"
);
}
);
width = 546;
}
);
unicode = 006B;
},
{
color = 4;
glyphname = l;
layers = (
{
anchors = (
{
name = bottom;
position = "{54, 0}";
},
{
name = center;
position = "{113, 257}";
},
{
name = top;
position = "{172, 513}";
},
{
name = topright;
position = "{264, 513}";
}
);
layerId = UUID0;
paths = (
{
closed = 1;
nodes = (
"80 0 LINE SMOOTH",
"95 0 OFFCURVE",
"102 7 OFFCURVE",
"106 22 CURVE SMOOTH",
"266 712 LINE SMOOTH",
"267 715 OFFCURVE",
"267 717 OFFCURVE",
"267 719 CURVE SMOOTH",
"267 725 OFFCURVE",
"263 729 OFFCURVE",
"255 729 CURVE SMOOTH",
"238 729 LINE SMOOTH",
"235 729 OFFCURVE",
"228 723 OFFCURVE",
"219 712 CURVE SMOOTH",
"170 650 LINE SMOOTH",
"165 643 OFFCURVE",
"163 637 OFFCURVE",
"162 631 CURVE SMOOTH",
"21 22 LINE SMOOTH",
"20 20 OFFCURVE",
"20 17 OFFCURVE",
"20 14 CURVE SMOOTH",
"20 5 OFFCURVE",
"26 0 OFFCURVE",
"38 0 CURVE SMOOTH"
);
}
);
width = 225;
},
{
anchors = (
{
name = bottom;
position = "{76, 0}";
},
{
name = center;
position = "{135, 257}";
},
{
name = top;
position = "{194, 513}";
},
{
name = topright;
position = "{309, 513}";
}
);
layerId = "E33CDA44-370B-4890-B9EA-9A4809AB9281";
paths = (
{
closed = 1;
nodes = (
"115 0 LINE SMOOTH",
"135 0 OFFCURVE",
"146 10 OFFCURVE",
"151 29 CURVE SMOOTH",
"307 701 LINE SMOOTH",
"308 703 OFFCURVE",
"308 706 OFFCURVE",
"308 710 CURVE SMOOTH",
"308 723 OFFCURVE",
"300 730 OFFCURVE",
"284 730 CURVE SMOOTH",
"250 730 LINE SMOOTH",
"240 730 OFFCURVE",
"230 724 OFFCURVE",
"220 712 CURVE SMOOTH",
"167 646 LINE SMOOTH",
"157 633 OFFCURVE",
"151 619 OFFCURVE",
"148 606 CURVE SMOOTH",
"15 29 LINE SMOOTH",
"14 26 OFFCURVE",
"14 23 OFFCURVE",
"14 19 CURVE SMOOTH",
"14 6 OFFCURVE",
"22 0 OFFCURVE",
"37 0 CURVE SMOOTH"
);
}
);
width = 270;
}
);
unicode = 006C;
},
{
color = 4;
glyphname = lslash;
layers = (
{
layerId = UUID0;
paths = (
{
closed = 1;
nodes = (
"129 0 LINE SMOOTH",
"142 0 OFFCURVE",
"152 7 OFFCURVE",
"156 22 CURVE SMOOTH",
"236 371 LINE",
"333 431 LINE SMOOTH",
"346 439 OFFCURVE",
"354 449 OFFCURVE",
"356 460 CURVE SMOOTH",
"368 512 LINE SMOOTH",
"368 514 OFFCURVE",
"369 516 OFFCURVE",
"369 518 CURVE SMOOTH",
"369 523 OFFCURVE",
"367 525 OFFCURVE",
"363 525 CURVE SMOOTH",
"359 525 OFFCURVE",
"354 523 OFFCURVE",
"347 518 CURVE SMOOTH",
"256 462 LINE",
"261 477 OFFCURVE",
"263 486 OFFCURVE",
"264 491 CURVE SMOOTH",
"315 712 LINE SMOOTH",
"316 715 OFFCURVE",
"316 717 OFFCURVE",
"316 719 CURVE SMOOTH",
"316 726 OFFCURVE",
"312 729 OFFCURVE",
"305 729 CURVE SMOOTH",
"288 729 LINE SMOOTH",
"285 729 OFFCURVE",
"278 723 OFFCURVE",
"269 712 CURVE SMOOTH",
"220 650 LINE",
"215 645 OFFCURVE",
"212 639 OFFCURVE",
"211 631 CURVE",
"156 396 LINE",
"60 336 LINE SMOOTH",
"47 328 OFFCURVE",
"40 318 OFFCURVE",
"37 306 CURVE SMOOTH",
"25 254 LINE SMOOTH",
"24 251 OFFCURVE",
"24 249 OFFCURVE",
"24 247 CURVE SMOOTH",
"24 244 OFFCURVE",
"25 242 OFFCURVE",
"29 242 CURVE SMOOTH",
"33 242 OFFCURVE",
"39 244 OFFCURVE",
"46 249 CURVE SMOOTH",
"136 305 LINE",
"128 276 LINE",
"70 22 LINE SMOOTH",
"69 20 OFFCURVE",
"69 17 OFFCURVE",
"69 14 CURVE SMOOTH",
"69 5 OFFCURVE",
"75 0 OFFCURVE",
"87 0 CURVE SMOOTH"
);
}
);
width = 322;
},
{
layerId = "E33CDA44-370B-4890-B9EA-9A4809AB9281";
paths = (
{
closed = 1;
nodes = (
"147 0 LINE SMOOTH",
"167 0 OFFCURVE",
"178 10 OFFCURVE",
"183 29 CURVE SMOOTH",
"262 370 LINE",
"337 417 LINE SMOOTH",
"352 426 OFFCURVE",
"362 439 OFFCURVE",
"367 454 CURVE",
"384 531 LINE SMOOTH",
"385 533 OFFCURVE",
"385 536 OFFCURVE",
"385 540 CURVE SMOOTH",
"385 545 OFFCURVE",
"383 547 OFFCURVE",
"379 547 CURVE SMOOTH",
"375 547 OFFCURVE",
"368 544 OFFCURVE",
"359 539 CURVE SMOOTH",
"289 496 LINE",
"289 496 OFFCURVE",
"289 496 OFFCURVE",
"289 496 CURVE",
"288 496 OFFCURVE",
"292 509 OFFCURVE",
"300 535 CURVE",
"338 701 LINE SMOOTH",
"339 704 OFFCURVE",
"339 707 OFFCURVE",
"339 711 CURVE SMOOTH",
"339 724 OFFCURVE",
"331 730 OFFCURVE",
"315 730 CURVE SMOOTH",
"281 730 LINE SMOOTH",
"272 730 OFFCURVE",
"262 724 OFFCURVE",
"252 712 CURVE SMOOTH",
"199 646 LINE",
"189 635 OFFCURVE",
"184 622 OFFCURVE",
"180 606 CURVE SMOOTH",
"130 393 LINE",
"61 349 LINE SMOOTH",
"44 339 OFFCURVE",
"34 327 OFFCURVE",
"31 312 CURVE SMOOTH",
"13 234 LINE SMOOTH",
"12 231 OFFCURVE",
"12 229 OFFCURVE",
"12 227 CURVE SMOOTH",
"12 222 OFFCURVE",
"14 219 OFFCURVE",
"18 219 CURVE SMOOTH",
"23 219 OFFCURVE",
"30 222 OFFCURVE",
"38 227 CURVE SMOOTH",
"103 267 LINE",
"103 267 OFFCURVE",
"103 267 OFFCURVE",
"103 267 CURVE",
"103 267 OFFCURVE",
"99 254 OFFCURVE",
"92 228 CURVE",
"46 29 LINE SMOOTH",
"45 27 OFFCURVE",
"45 24 OFFCURVE",
"45 20 CURVE SMOOTH",
"45 7 OFFCURVE",
"53 0 OFFCURVE",
"69 0 CURVE SMOOTH"
);
}
);
width = 338;
}
);
unicode = 0142;
},
{
color = 4;
glyphname = m;
layers = (
{
anchors = (
{
name = bottom;
position = "{351, 0}";
},
{
name = top;
position = "{469, 513}";
}
);
layerId = UUID0;
paths = (
{
closed = 1;
nodes = (
"80 0 LINE SMOOTH",
"95 0 OFFCURVE",
"102 7 OFFCURVE",
"106 22 CURVE SMOOTH",
"164 271 LINE SMOOTH",
"186 368 OFFCURVE",
"265 458 OFFCURVE",
"321 458 CURVE SMOOTH",
"373 458 OFFCURVE",
"397 440 OFFCURVE",
"397 395 CURVE",
"398 371 OFFCURVE",
"392 341 OFFCURVE",
"384 306 CURVE SMOOTH",
"318 22 LINE SMOOTH",
"317 19 OFFCURVE",
"317 17 OFFCURVE",
"317 15 CURVE SMOOTH",
"317 5 OFFCURVE",
"323 0 OFFCURVE",
"335 0 CURVE SMOOTH",
"377 0 LINE SMOOTH",
"392 0 OFFCURVE",
"400 7 OFFCURVE",
"404 22 CURVE SMOOTH",
"462 271 LINE SMOOTH",
"483 362 OFFCURVE",
"563 458 OFFCURVE",
"619 458 CURVE SMOOTH",
"672 458 OFFCURVE",
"695 439 OFFCURVE",
"695 393 CURVE",
"696 370 OFFCURVE",
"690 341 OFFCURVE",
"682 306 CURVE SMOOTH",
"616 22 LINE SMOOTH",
"615 19 OFFCURVE",
"615 17 OFFCURVE",
"615 15 CURVE SMOOTH",
"615 5 OFFCURVE",
"621 0 OFFCURVE",
"633 0 CURVE SMOOTH",
"675 0 LINE SMOOTH",
"690 0 OFFCURVE",
"698 7 OFFCURVE",
"702 22 CURVE SMOOTH",
"774 334 LINE SMOOTH",
"780 358 OFFCURVE",
"782 379 OFFCURVE",
"782 396 CURVE SMOOTH",
"782 474 OFFCURVE",
"732 521 OFFCURVE",
"661 521 CURVE SMOOTH",
"583 521 OFFCURVE",
"514 454 OFFCURVE",
"479 407 CURVE",
"478 407 LINE",
"478 462 OFFCURVE",
"438 521 OFFCURVE",
"363 521 CURVE SMOOTH",
"304 521 OFFCURVE",
"237 476 OFFCURVE",
"203 432 CURVE",
"201 432 LINE",
"214 491 LINE",
"214 494 OFFCURVE",
"215 496 OFFCURVE",
"215 498 CURVE SMOOTH",
"215 508 OFFCURVE",
"209 513 OFFCURVE",
"197 513 CURVE SMOOTH",
"156 513 LINE SMOOTH",
"141 513 OFFCURVE",
"132 506 OFFCURVE",
"129 491 CURVE SMOOTH",
"21 22 LINE SMOOTH",
"20 20 OFFCURVE",
"20 17 OFFCURVE",
"20 14 CURVE SMOOTH",
"20 5 OFFCURVE",
"26 0 OFFCURVE",
"38 0 CURVE SMOOTH"
);
}
);
width = 819;
},
{
anchors = (
{
name = bottom;
position = "{368, 0}";
},
{
name = top;
position = "{486, 513}";
}
);
layerId = "E33CDA44-370B-4890-B9EA-9A4809AB9281";
paths = (
{
closed = 1;
nodes = (
"115 0 LINE SMOOTH",
"135 0 OFFCURVE",
"146 10 OFFCURVE",
"151 29 CURVE SMOOTH",
"191 201 LINE SMOOTH",
"227 357 OFFCURVE",
"290 427 OFFCURVE",
"334 427 CURVE SMOOTH",
"362 427 OFFCURVE",
"376 408 OFFCURVE",
"376 370 CURVE SMOOTH",
"376 345 OFFCURVE",
"370 303 OFFCURVE",
"357 244 CURVE SMOOTH",
"308 29 LINE SMOOTH",
"307 26 OFFCURVE",
"307 23 OFFCURVE",
"307 19 CURVE SMOOTH",
"307 6 OFFCURVE",
"315 0 OFFCURVE",
"330 0 CURVE SMOOTH",
"408 0 LINE SMOOTH",
"428 0 OFFCURVE",
"439 10 OFFCURVE",
"444 29 CURVE SMOOTH",
"484 201 LINE SMOOTH",
"530 399 OFFCURVE",
"581 427 OFFCURVE",
"627 427 CURVE SMOOTH",
"656 427 OFFCURVE",
"669 409 OFFCURVE",
"669 368 CURVE",
"668 343 OFFCURVE",
"663 305 OFFCURVE",
"652 254 CURVE SMOOTH",
"601 29 LINE SMOOTH",
"600 26 OFFCURVE",
"600 23 OFFCURVE",
"600 19 CURVE SMOOTH",
"600 6 OFFCURVE",
"608 0 OFFCURVE",
"623 0 CURVE SMOOTH",
"701 0 LINE SMOOTH",
"721 0 OFFCURVE",
"733 10 OFFCURVE",
"737 29 CURVE SMOOTH",
"798 293 LINE SMOOTH",
"807 331 OFFCURVE",
"811 362 OFFCURVE",
"811 386 CURVE SMOOTH",
"811 482 OFFCURVE",
"744 522 OFFCURVE",
"680 522 CURVE SMOOTH",
"599 522 OFFCURVE",
"544 485 OFFCURVE",
"493 410 CURVE",
"491 410 LINE",
"491 463 OFFCURVE",
"460 522 OFFCURVE",
"377 522 CURVE SMOOTH",
"325 522 OFFCURVE",
"275 481 OFFCURVE",
"247 439 CURVE",
"245 439 LINE",
"255 483 LINE SMOOTH",
"256 486 OFFCURVE",
"256 489 OFFCURVE",
"256 493 CURVE SMOOTH",
"256 506 OFFCURVE",
"248 513 OFFCURVE",
"232 513 CURVE SMOOTH",
"155 513 LINE SMOOTH",
"135 513 OFFCURVE",
"124 503 OFFCURVE",
"120 483 CURVE SMOOTH",
"15 29 LINE SMOOTH",
"14 26 OFFCURVE",
"14 23 OFFCURVE",
"14 19 CURVE SMOOTH",
"14 6 OFFCURVE",
"22 0 OFFCURVE",
"37 0 CURVE SMOOTH"
);
}
);
width = 854;
}
);
unicode = 006D;
},
{
color = 4;
glyphname = n;
layers = (
{
anchors = (
{
name = bottom;
position = "{217, 0}";
},
{
name = top;
position = "{335, 513}";
}
);
layerId = UUID0;
paths = (
{
closed = 1;
nodes = (
"80 0 LINE SMOOTH",
"95 0 OFFCURVE",
"102 7 OFFCURVE",
"106 22 CURVE SMOOTH",
"164 271 LINE SMOOTH",
"186 368 OFFCURVE",
"260 458 OFFCURVE",
"336 458 CURVE SMOOTH",
"390 458 OFFCURVE",
"425 442 OFFCURVE",
"425 387 CURVE SMOOTH",
"425 366 OFFCURVE",
"422 340 OFFCURVE",
"415 311 CURVE SMOOTH",
"348 22 LINE SMOOTH",
"347 20 OFFCURVE",
"347 17 OFFCURVE",
"347 14 CURVE SMOOTH",
"347 5 OFFCURVE",
"353 0 OFFCURVE",
"365 0 CURVE SMOOTH",
"407 0 LINE SMOOTH",
"420 0 OFFCURVE",
"430 7 OFFCURVE",
"434 22 CURVE SMOOTH",
"506 334 LINE SMOOTH",
"512 358 OFFCURVE",
"514 380 OFFCURVE",
"514 398 CURVE SMOOTH",
"514 476 OFFCURVE",
"471 521 OFFCURVE",
"382 521 CURVE SMOOTH",
"306 521 OFFCURVE",
"241 481 OFFCURVE",
"203 432 CURVE",
"201 432 LINE",
"214 491 LINE",
"214 494 OFFCURVE",
"215 496 OFFCURVE",
"215 498 CURVE SMOOTH",
"215 508 OFFCURVE",
"209 513 OFFCURVE",
"197 513 CURVE SMOOTH",
"156 513 LINE SMOOTH",
"141 513 OFFCURVE",
"132 506 OFFCURVE",
"129 491 CURVE SMOOTH",
"21 22 LINE SMOOTH",
"20 20 OFFCURVE",
"20 17 OFFCURVE",
"20 14 CURVE SMOOTH",
"20 5 OFFCURVE",
"26 0 OFFCURVE",
"38 0 CURVE SMOOTH"
);
}
);
width = 551;
},
{
anchors = (
{
name = bottom;
position = "{234, 0}";
},
{
name = top;
position = "{352, 513}";
}
);
layerId = "E33CDA44-370B-4890-B9EA-9A4809AB9281";
paths = (
{
closed = 1;
nodes = (
"115 0 LINE SMOOTH",
"135 0 OFFCURVE",
"147 10 OFFCURVE",
"151 29 CURVE SMOOTH",
"192 207 LINE SMOOTH",
"224 348 OFFCURVE",
"278 427 OFFCURVE",
"346 427 CURVE SMOOTH",
"384 427 OFFCURVE",
"402 410 OFFCURVE",
"402 369 CURVE SMOOTH",
"402 343 OFFCURVE",
"397 308 OFFCURVE",
"386 265 CURVE",
"332 29 LINE SMOOTH",
"331 27 OFFCURVE",
"331 24 OFFCURVE",
"331 20 CURVE SMOOTH",
"331 7 OFFCURVE",
"339 0 OFFCURVE",
"354 0 CURVE SMOOTH",
"433 0 LINE SMOOTH",
"451 0 OFFCURVE",
"464 10 OFFCURVE",
"469 29 CURVE SMOOTH",
"531 300 LINE SMOOTH",
"538 333 OFFCURVE",
"542 362 OFFCURVE",
"542 385 CURVE SMOOTH",
"542 481 OFFCURVE",
"478 522 OFFCURVE",
"407 522 CURVE SMOOTH",
"341 522 OFFCURVE",
"302 509 OFFCURVE",
"248 445 CURVE",
"246 445 LINE",
"255 483 LINE SMOOTH",
"256 486 OFFCURVE",
"256 489 OFFCURVE",
"256 493 CURVE SMOOTH",
"256 506 OFFCURVE",
"248 513 OFFCURVE",
"232 513 CURVE SMOOTH",
"155 513 LINE SMOOTH",
"135 513 OFFCURVE",
"124 503 OFFCURVE",
"120 483 CURVE SMOOTH",
"15 29 LINE SMOOTH",
"14 26 OFFCURVE",
"14 23 OFFCURVE",
"14 19 CURVE SMOOTH",
"14 6 OFFCURVE",
"22 0 OFFCURVE",
"37 0 CURVE SMOOTH"
);
}
);
width = 586;
}
);
unicode = 006E;
},
{
color = 4;
glyphname = eng;
layers = (
{
layerId = UUID0;
paths = (
{
closed = 1;
nodes = (
"320 -204 OFFCURVE",
"387 -178 OFFCURVE",
"418 -45 CURVE SMOOTH",
"506 334 LINE SMOOTH",
"512 358 OFFCURVE",
"514 380 OFFCURVE",
"514 398 CURVE SMOOTH",
"514 476 OFFCURVE",
"471 521 OFFCURVE",
"382 521 CURVE SMOOTH",
"306 521 OFFCURVE",
"241 481 OFFCURVE",
"203 432 CURVE",
"201 432 LINE",
"214 491 LINE",
"214 494 OFFCURVE",
"215 496 OFFCURVE",
"215 498 CURVE SMOOTH",
"215 508 OFFCURVE",
"209 513 OFFCURVE",
"197 513 CURVE SMOOTH",
"156 513 LINE SMOOTH",
"141 513 OFFCURVE",
"132 506 OFFCURVE",
"129 491 CURVE SMOOTH",
"21 22 LINE SMOOTH",
"20 20 OFFCURVE",
"20 17 OFFCURVE",
"20 14 CURVE SMOOTH",
"20 5 OFFCURVE",
"26 0 OFFCURVE",
"38 0 CURVE SMOOTH",
"80 0 LINE SMOOTH",
"95 0 OFFCURVE",
"102 7 OFFCURVE",
"106 22 CURVE SMOOTH",
"164 271 LINE SMOOTH",
"186 368 OFFCURVE",
"260 458 OFFCURVE",
"336 458 CURVE SMOOTH",
"390 458 OFFCURVE",
"425 442 OFFCURVE",
"425 387 CURVE SMOOTH",
"425 366 OFFCURVE",
"422 340 OFFCURVE",
"415 311 CURVE SMOOTH",
"343 3 LINE",
"317 -117 OFFCURVE",
"290 -140 OFFCURVE",
"253 -140 CURVE SMOOTH",
"232 -140 OFFCURVE",
"215 -130 OFFCURVE",
"203 -130 CURVE SMOOTH",
"199 -130 OFFCURVE",
"196 -133 OFFCURVE",
"194 -139 CURVE SMOOTH",
"182 -178 LINE SMOOTH",
"181 -180 OFFCURVE",
"181 -182 OFFCURVE",
"181 -183 CURVE SMOOTH",
"181 -200 OFFCURVE",
"214 -204 OFFCURVE",
"254 -204 CURVE SMOOTH"
);
}
);
width = 551;
},
{
layerId = "E33CDA44-370B-4890-B9EA-9A4809AB9281";
paths = (
{
closed = 1;
nodes = (
"350 -205 OFFCURVE",
"424 -166 OFFCURVE",
"461 -2 CURVE",
"531 300 LINE SMOOTH",
"538 332 OFFCURVE",
"542 362 OFFCURVE",
"542 385 CURVE SMOOTH",
"542 481 OFFCURVE",
"478 522 OFFCURVE",
"407 522 CURVE SMOOTH",
"341 522 OFFCURVE",
"302 509 OFFCURVE",
"248 445 CURVE",
"246 445 LINE",
"255 483 LINE SMOOTH",
"256 486 OFFCURVE",
"256 489 OFFCURVE",
"256 493 CURVE SMOOTH",
"256 506 OFFCURVE",
"248 513 OFFCURVE",
"232 513 CURVE SMOOTH",
"155 513 LINE SMOOTH",
"135 513 OFFCURVE",
"124 503 OFFCURVE",
"120 483 CURVE SMOOTH",
"15 29 LINE SMOOTH",
"14 26 OFFCURVE",
"14 23 OFFCURVE",
"14 19 CURVE SMOOTH",
"14 6 OFFCURVE",
"22 0 OFFCURVE",
"37 0 CURVE SMOOTH",
"115 0 LINE SMOOTH",
"135 0 OFFCURVE",
"147 10 OFFCURVE",
"151 29 CURVE SMOOTH",
"192 207 LINE SMOOTH",
"224 348 OFFCURVE",
"278 427 OFFCURVE",
"346 427 CURVE SMOOTH",
"384 427 OFFCURVE",
"402 410 OFFCURVE",
"402 369 CURVE SMOOTH",
"402 343 OFFCURVE",
"397 308 OFFCURVE",
"386 265 CURVE",
"328 13 LINE SMOOTH",
"309 -70 OFFCURVE",
"285 -109 OFFCURVE",
"240 -109 CURVE SMOOTH",
"231 -109 OFFCURVE",
"218 -105 OFFCURVE",
"201 -105 CURVE SMOOTH",
"191 -105 OFFCURVE",
"184 -110 OFFCURVE",
"181 -119 CURVE SMOOTH",
"163 -170 LINE SMOOTH",
"161 -175 OFFCURVE",
"160 -179 OFFCURVE",
"160 -182 CURVE SMOOTH",
"160 -202 OFFCURVE",
"194 -205 OFFCURVE",
"242 -205 CURVE SMOOTH"
);
}
);
width = 586;
}
);
unicode = 014B;
},
